<svg width="395" height="147" xmlns="http://www.w3.org/2000/svg" xmlns:xlink="http://www.w3.org/1999/xlink" overflow="hidden"><defs><clipPath id="clip0"><rect x="-813" y="313" width="395" height="147"/></clipPath></defs><g clip-path="url(#clip0)" transform="translate(813 -313)"><path d="M-794 385-476.516 385" stroke="#000000" stroke-width="2" stroke-linecap="round" stroke-miterlimit="8" stroke-dasharray="4 4" fill="#FFE382" fill-rule="evenodd"/><path d="M-755 377C-755 373.134-751.866 370-748 370-744.134 370-741 373.134-741 377-741 380.866-744.134 384-748 384-751.866 384-755 380.866-755 377Z" stroke="#000000" stroke-width="2" stroke-miterlimit="8" fill="#FFE382" fill-rule="evenodd"/><path d="M-743 406C-743 402.134-739.866 399-736 399-732.134 399-729 402.134-729 406-729 409.866-732.134 413-736 413-739.866 413-743 409.866-743 406Z" stroke="#000000" stroke-width="2" stroke-miterlimit="8" fill="#FFE382" fill-rule="evenodd"/><path d="M-731 385C-731 381.134-728.09 378-724.5 378-720.91 378-718 381.134-718 385-718 388.866-720.91 392-724.5 392-728.09 392-731 388.866-731 385Z" stroke="#000000" stroke-width="2" stroke-miterlimit="8" fill="#FFE382" fill-rule="evenodd"/><path d="M-708 410.5C-708 406.91-705.09 404-701.5 404-697.91 404-695 406.91-695 410.5-695 414.09-697.91 417-701.5 417-705.09 417-708 414.09-708 410.5Z" stroke="#000000" stroke-width="2" stroke-miterlimit="8" fill="#FFE382" fill-rule="evenodd"/><path d="M-697 378C-697 374.134-693.866 371-690 371-686.134 371-683 374.134-683 378-683 381.866-686.134 385-690 385-693.866 385-697 381.866-697 378Z" stroke="#000000" stroke-width="2" stroke-miterlimit="8" fill="#FFE382" fill-rule="evenodd"/><path d="M-685 382C-685 378.134-681.866 375-678 375-674.134 375-671 378.134-671 382-671 385.866-674.134 389-678 389-681.866 389-685 385.866-685 382Z" stroke="#000000" stroke-width="2" stroke-miterlimit="8" fill="#FFE382" fill-rule="evenodd"/><path d="M-662 404C-662 400.134-658.866 397-655 397-651.134 397-648 400.134-648 404-648 407.866-651.134 411-655 411-658.866 411-662 407.866-662 404Z" stroke="#000000" stroke-width="2" stroke-miterlimit="8" fill="#FFE382" fill-rule="evenodd"/><path d="M-650 367.5C-650 363.91-646.866 361-643 361-639.134 361-636 363.91-636 367.5-636 371.09-639.134 374-643 374-646.866 374-650 371.09-650 367.5Z" stroke="#000000" stroke-width="2" stroke-miterlimit="8" fill="#FFE382" fill-rule="evenodd"/><path d="M-627 396.5C-627 392.91-623.866 390-620 390-616.134 390-613 392.91-613 396.5-613 400.09-616.134 403-620 403-623.866 403-627 400.09-627 396.5Z" stroke="#000000" stroke-width="2" stroke-miterlimit="8" fill="#FFE382" fill-rule="evenodd"/><path d="M-615 396.5C-615 392.91-612.09 390-608.5 390-604.91 390-602 392.91-602 396.5-602 400.09-604.91 403-608.5 403-612.09 403-615 400.09-615 396.5Z" stroke="#000000" stroke-width="2" stroke-miterlimit="8" fill="#FFE382" fill-rule="evenodd"/><path d="M-604 384C-604 380.134-600.866 377-597 377-593.134 377-590 380.134-590 384-590 387.866-593.134 391-597 391-600.866 391-604 387.866-604 384Z" stroke="#000000" stroke-width="2" stroke-miterlimit="8" fill="#FFE382" fill-rule="evenodd"/><path d="M-592 357C-592 353.134-588.866 350-585 350-581.134 350-578 353.134-578 357-578 360.866-581.134 364-585 364-588.866 364-592 360.866-592 357Z" stroke="#000000" stroke-width="2" stroke-miterlimit="8" fill="#FFE382" fill-rule="evenodd"/><path d="M-569 397C-569 393.134-565.866 390-562 390-558.134 390-555 393.134-555 397-555 400.866-558.134 404-562 404-565.866 404-569 400.866-569 397Z" stroke="#000000" stroke-width="2" stroke-miterlimit="8" fill="#FFE382" fill-rule="evenodd"/><path d="M-778 396C-778 392.134-774.866 389-771 389-767.134 389-764 392.134-764 396-764 399.866-767.134 403-771 403-774.866 403-778 399.866-778 396Z" stroke="#000000" stroke-width="2" stroke-miterlimit="8" fill="#FFE382" fill-rule="evenodd"/><path d="M-790 371.5C-790 367.91-786.866 365-783 365-779.134 365-776 367.91-776 371.5-776 375.09-779.134 378-783 378-786.866 378-790 375.09-790 371.5Z" stroke="#000000" stroke-width="2" stroke-miterlimit="8" fill="#FFE382" fill-rule="evenodd"/><path d="M-557 385.5C-557 381.91-553.866 379-550 379-546.134 379-543 381.91-543 385.5-543 389.09-546.134 392-550 392-553.866 392-557 389.09-557 385.5Z" stroke="#000000" stroke-width="2" stroke-miterlimit="8" fill="#FFE382" fill-rule="evenodd"/><path d="M-545 403C-545 399.134-542.09 396-538.5 396-534.91 396-532 399.134-532 403-532 406.866-534.91 410-538.5 410-542.09 410-545 406.866-545 403Z" stroke="#000000" stroke-width="2" stroke-miterlimit="8" fill="#FFE382" fill-rule="evenodd"/><path d="M-522 366C-522 362.134-519.09 359-515.5 359-511.91 359-509 362.134-509 366-509 369.866-511.91 373-515.5 373-519.09 373-522 369.866-522 366Z" stroke="#000000" stroke-width="2" stroke-miterlimit="8" fill="#FFE382" fill-rule="evenodd"/><path d="M-499 402C-499 398.134-495.866 395-492 395-488.134 395-485 398.134-485 402-485 405.866-488.134 409-492 409-495.866 409-499 405.866-499 402Z" stroke="#000000" stroke-width="2" stroke-miterlimit="8" fill="#FFE382" fill-rule="evenodd"/><path d="M-638 386.5C-638 382.91-635.09 380-631.5 380-627.91 380-625 382.91-625 386.5-625 390.09-627.91 393-631.5 393-635.09 393-638 390.09-638 386.5Z" stroke="#000000" stroke-width="2" stroke-miterlimit="8" fill="#FFE382" fill-rule="evenodd"/><path d="M-673 394C-673 390.134-670.09 387-666.5 387-662.91 387-660 390.134-660 394-660 397.866-662.91 401-666.5 401-670.09 401-673 397.866-673 394Z" stroke="#000000" stroke-width="2" stroke-miterlimit="8" fill="#FFE382" fill-rule="evenodd"/><path d="M-720 379.5C-720 375.91-716.866 373-713 373-709.134 373-706 375.91-706 379.5-706 383.09-709.134 386-713 386-716.866 386-720 383.09-720 379.5Z" stroke="#000000" stroke-width="2" stroke-miterlimit="8" fill="#FFE382" fill-rule="evenodd"/><path d="M-766 340.5C-766 336.91-763.09 334-759.5 334-755.91 334-753 336.91-753 340.5-753 344.09-755.91 347-759.5 347-763.09 347-766 344.09-766 340.5Z" stroke="#000000" stroke-width="2" stroke-miterlimit="8" fill="#FFE382" fill-rule="evenodd"/><path d="M-580 408C-580 404.134-577.09 401-573.5 401-569.91 401-567 404.134-567 408-567 411.866-569.91 415-573.5 415-577.09 415-580 411.866-580 408Z" stroke="#000000" stroke-width="2" stroke-miterlimit="8" fill="#FFE382" fill-rule="evenodd"/><path d="M-534 435C-534 431.134-531.09 428-527.5 428-523.91 428-521 431.134-521 435-521 438.866-523.91 442-527.5 442-531.09 442-534 438.866-534 435Z" stroke="#000000" stroke-width="2" stroke-miterlimit="8" fill="#FFE382" fill-rule="evenodd"/><path d="M-511 402C-511 398.134-507.866 395-504 395-500.134 395-497 398.134-497 402-497 405.866-500.134 409-504 409-507.866 409-511 405.866-511 402Z" stroke="#000000" stroke-width="2" stroke-miterlimit="8" fill="#FFE382" fill-rule="evenodd"/><path d="M-476 332-475.977 333.789-475.932 335.579-475.887 337.417-475.842 339.206-475.752 340.996-475.616 342.785-475.436 344.575-475.187 346.413-474.849 348.202-474.397 349.992-473.81 351.781-473.065 353.619-472.14 355.409-471.011 357.198-469.634 358.988-468.008 360.777-466.135 362.615-464.013 364.405-461.642 366.194-459.069 367.984-456.36 369.773-453.561 371.611-450.761 373.401-448.075 375.19-445.569 376.98-443.357 378.769-441.506 380.607-440.129 382.397-439.293 384.186-439 385.976-439.293 387.765-440.129 389.603-441.506 391.393-443.357 393.182-445.569 394.972-448.075 396.81-450.761 398.599-453.561 400.389-456.36 402.178-459.069 403.968-461.642 405.806-464.013 407.595-466.135 409.385-468.008 411.174-469.634 412.964-471.011 414.802-472.14 416.591-473.065 418.381-473.81 420.17-474.397 421.96-474.849 423.798-475.187 425.587-475.436 427.377-475.616 429.166-475.752 430.956-475.842 432.793-475.887 434.583-475.932 436.373-475.977 438.162-476 440" stroke="#000000" stroke-width="2" stroke-miterlimit="8" fill="#FFE382" fill-rule="evenodd"/><path d="M-475 327.6-475 443.956-477 443.956-477 327.6ZM-480.256 335.215-476 325-471.744 335.215C-471.531 335.725-471.772 336.311-472.282 336.523-472.792 336.736-473.377 336.494-473.59 335.985L-476.923 327.985-475.077 327.985-478.41 335.985C-478.623 336.494-479.208 336.736-479.718 336.523-480.228 336.311-480.469 335.725-480.256 335.215ZM-471.743 436.34-476 446.556-480.256 436.34C-480.469 435.83-480.228 435.245-479.718 435.033-479.208 434.82-478.623 435.061-478.41 435.571L-475.077 443.571-476.923 443.571-473.59 435.571C-473.377 435.061-472.792 434.82-472.282 435.033-471.772 435.245-471.531 435.83-471.743 436.34Z"/></g></svg>