<svg width="395" height="178" xmlns="http://www.w3.org/2000/svg" xmlns:xlink="http://www.w3.org/1999/xlink" overflow="hidden"><defs><clipPath id="clip0"><rect x="262" y="283" width="395" height="178"/></clipPath></defs><g clip-path="url(#clip0)" transform="translate(-262 -283)"><path d="M282.5 385.5 595.389 385.5" stroke="#1AABD8" stroke-width="1.33333" stroke-miterlimit="8" stroke-dasharray="4 1.33333" fill="#FFFFFF" fill-rule="evenodd"/><path d="M321.5 377.5C321.5 373.634 324.634 370.5 328.5 370.5 332.366 370.5 335.5 373.634 335.5 377.5 335.5 381.366 332.366 384.5 328.5 384.5 324.634 384.5 321.5 381.366 321.5 377.5Z" stroke="#1AABD8" stroke-width="1.33333" stroke-miterlimit="8" fill="#FFFFFF" fill-rule="evenodd"/><path d="M333.5 406.5C333.5 402.634 336.41 399.5 340 399.5 343.59 399.5 346.5 402.634 346.5 406.5 346.5 410.366 343.59 413.5 340 413.5 336.41 413.5 333.5 410.366 333.5 406.5Z" stroke="#1AABD8" stroke-width="1.33333" stroke-miterlimit="8" fill="#FFFFFF" fill-rule="evenodd"/><path d="M344.5 385.5C344.5 381.634 347.634 378.5 351.5 378.5 355.366 378.5 358.5 381.634 358.5 385.5 358.5 389.366 355.366 392.5 351.5 392.5 347.634 392.5 344.5 389.366 344.5 385.5Z" stroke="#1AABD8" stroke-width="1.33333" stroke-miterlimit="8" fill="#FFFFFF" fill-rule="evenodd"/><path d="M368.5 411C368.5 407.41 371.41 404.5 375 404.5 378.59 404.5 381.5 407.41 381.5 411 381.5 414.59 378.59 417.5 375 417.5 371.41 417.5 368.5 414.59 368.5 411Z" stroke="#1AABD8" stroke-width="1.33333" stroke-miterlimit="8" fill="#FFFFFF" fill-rule="evenodd"/><path d="M379.5 378.5C379.5 374.634 382.634 371.5 386.5 371.5 390.366 371.5 393.5 374.634 393.5 378.5 393.5 382.366 390.366 385.5 386.5 385.5 382.634 385.5 379.5 382.366 379.5 378.5Z" stroke="#1AABD8" stroke-width="1.33333" stroke-miterlimit="8" fill="#FFFFFF" fill-rule="evenodd"/><path d="M391.5 382.5C391.5 378.634 394.41 375.5 398 375.5 401.59 375.5 404.5 378.634 404.5 382.5 404.5 386.366 401.59 389.5 398 389.5 394.41 389.5 391.5 386.366 391.5 382.5Z" stroke="#1AABD8" stroke-width="1.33333" stroke-miterlimit="8" fill="#FFFFFF" fill-rule="evenodd"/><path d="M414.5 404.5C414.5 400.634 417.634 397.5 421.5 397.5 425.366 397.5 428.5 400.634 428.5 404.5 428.5 408.366 425.366 411.5 421.5 411.5 417.634 411.5 414.5 408.366 414.5 404.5Z" stroke="#1AABD8" stroke-width="1.33333" stroke-miterlimit="8" fill="#FFFFFF" fill-rule="evenodd"/><path d="M426.5 368C426.5 364.41 429.41 361.5 433 361.5 436.59 361.5 439.5 364.41 439.5 368 439.5 371.59 436.59 374.5 433 374.5 429.41 374.5 426.5 371.59 426.5 368Z" stroke="#1AABD8" stroke-width="1.33333" stroke-miterlimit="8" fill="#FFFFFF" fill-rule="evenodd"/><path d="M449.5 397C449.5 393.41 452.634 390.5 456.5 390.5 460.366 390.5 463.5 393.41 463.5 397 463.5 400.59 460.366 403.5 456.5 403.5 452.634 403.5 449.5 400.59 449.5 397Z" stroke="#1AABD8" stroke-width="1.33333" stroke-miterlimit="8" fill="#FFFFFF" fill-rule="evenodd"/><path d="M461.5 397C461.5 393.41 464.41 390.5 468 390.5 471.59 390.5 474.5 393.41 474.5 397 474.5 400.59 471.59 403.5 468 403.5 464.41 403.5 461.5 400.59 461.5 397Z" stroke="#1AABD8" stroke-width="1.33333" stroke-miterlimit="8" fill="#FFFFFF" fill-rule="evenodd"/><path d="M472.5 384.5C472.5 380.634 475.634 377.5 479.5 377.5 483.366 377.5 486.5 380.634 486.5 384.5 486.5 388.366 483.366 391.5 479.5 391.5 475.634 391.5 472.5 388.366 472.5 384.5Z" stroke="#1AABD8" stroke-width="1.33333" stroke-miterlimit="8" fill="#FFFFFF" fill-rule="evenodd"/><path d="M484.5 357.5C484.5 353.634 487.41 350.5 491 350.5 494.59 350.5 497.5 353.634 497.5 357.5 497.5 361.366 494.59 364.5 491 364.5 487.41 364.5 484.5 361.366 484.5 357.5Z" stroke="#1AABD8" stroke-width="1.33333" stroke-miterlimit="8" fill="#FFFFFF" fill-rule="evenodd"/><path d="M507.5 397.5C507.5 393.634 510.634 390.5 514.5 390.5 518.366 390.5 521.5 393.634 521.5 397.5 521.5 401.366 518.366 404.5 514.5 404.5 510.634 404.5 507.5 401.366 507.5 397.5Z" stroke="#1AABD8" stroke-width="1.33333" stroke-miterlimit="8" fill="#FFFFFF" fill-rule="evenodd"/><path d="M298.5 396.5C298.5 392.634 301.41 389.5 305 389.5 308.59 389.5 311.5 392.634 311.5 396.5 311.5 400.366 308.59 403.5 305 403.5 301.41 403.5 298.5 400.366 298.5 396.5Z" stroke="#1AABD8" stroke-width="1.33333" stroke-miterlimit="8" fill="#FFFFFF" fill-rule="evenodd"/><path d="M286.5 372C286.5 368.41 289.634 365.5 293.5 365.5 297.366 365.5 300.5 368.41 300.5 372 300.5 375.59 297.366 378.5 293.5 378.5 289.634 378.5 286.5 375.59 286.5 372Z" stroke="#1AABD8" stroke-width="1.33333" stroke-miterlimit="8" fill="#FFFFFF" fill-rule="evenodd"/><path d="M519.5 386C519.5 382.41 522.41 379.5 526 379.5 529.59 379.5 532.5 382.41 532.5 386 532.5 389.59 529.59 392.5 526 392.5 522.41 392.5 519.5 389.59 519.5 386Z" stroke="#1AABD8" stroke-width="1.33333" stroke-miterlimit="8" fill="#FFFFFF" fill-rule="evenodd"/><path d="M530.5 403.5C530.5 399.634 533.634 396.5 537.5 396.5 541.366 396.5 544.5 399.634 544.5 403.5 544.5 407.366 541.366 410.5 537.5 410.5 533.634 410.5 530.5 407.366 530.5 403.5Z" stroke="#1AABD8" stroke-width="1.33333" stroke-miterlimit="8" fill="#FFFFFF" fill-rule="evenodd"/><path d="M554.5 366.5C554.5 362.634 557.41 359.5 561 359.5 564.59 359.5 567.5 362.634 567.5 366.5 567.5 370.366 564.59 373.5 561 373.5 557.41 373.5 554.5 370.366 554.5 366.5Z" stroke="#1AABD8" stroke-width="1.33333" stroke-miterlimit="8" fill="#FFFFFF" fill-rule="evenodd"/><path d="M577.5 402.5C577.5 398.634 580.41 395.5 584 395.5 587.59 395.5 590.5 398.634 590.5 402.5 590.5 406.366 587.59 409.5 584 409.5 580.41 409.5 577.5 406.366 577.5 402.5Z" stroke="#1AABD8" stroke-width="1.33333" stroke-miterlimit="8" fill="#FFFFFF" fill-rule="evenodd"/><path d="M437.5 387C437.5 383.41 440.634 380.5 444.5 380.5 448.366 380.5 451.5 383.41 451.5 387 451.5 390.59 448.366 393.5 444.5 393.5 440.634 393.5 437.5 390.59 437.5 387Z" stroke="#1AABD8" stroke-width="1.33333" stroke-miterlimit="8" fill="#FFFFFF" fill-rule="evenodd"/><path d="M403.5 394.5C403.5 390.634 406.41 387.5 410 387.5 413.59 387.5 416.5 390.634 416.5 394.5 416.5 398.366 413.59 401.5 410 401.5 406.41 401.5 403.5 398.366 403.5 394.5Z" stroke="#1AABD8" stroke-width="1.33333" stroke-miterlimit="8" fill="#FFFFFF" fill-rule="evenodd"/><path d="M356.5 380C356.5 376.41 359.634 373.5 363.5 373.5 367.366 373.5 370.5 376.41 370.5 380 370.5 383.59 367.366 386.5 363.5 386.5 359.634 386.5 356.5 383.59 356.5 380Z" stroke="#1AABD8" stroke-width="1.33333" stroke-miterlimit="8" fill="#FFFFFF" fill-rule="evenodd"/><path d="M309.5 341C309.5 337.41 312.634 334.5 316.5 334.5 320.366 334.5 323.5 337.41 323.5 341 323.5 344.59 320.366 347.5 316.5 347.5 312.634 347.5 309.5 344.59 309.5 341Z" stroke="#1AABD8" stroke-width="1.33333" stroke-miterlimit="8" fill="#FFFFFF" fill-rule="evenodd"/><path d="M496.5 408.5C496.5 404.634 499.41 401.5 503 401.5 506.59 401.5 509.5 404.634 509.5 408.5 509.5 412.366 506.59 415.5 503 415.5 499.41 415.5 496.5 412.366 496.5 408.5Z" stroke="#1AABD8" stroke-width="1.33333" stroke-miterlimit="8" fill="#FFFFFF" fill-rule="evenodd"/><path d="M542.5 435.5C542.5 431.634 545.41 428.5 549 428.5 552.59 428.5 555.5 431.634 555.5 435.5 555.5 439.366 552.59 442.5 549 442.5 545.41 442.5 542.5 439.366 542.5 435.5Z" stroke="#1AABD8" stroke-width="1.33333" stroke-miterlimit="8" fill="#FFFFFF" fill-rule="evenodd"/><path d="M565.5 402.5C565.5 398.634 568.634 395.5 572.5 395.5 576.366 395.5 579.5 398.634 579.5 402.5 579.5 406.366 576.366 409.5 572.5 409.5 568.634 409.5 565.5 406.366 565.5 402.5Z" stroke="#1AABD8" stroke-width="1.33333" stroke-miterlimit="8" fill="#FFFFFF" fill-rule="evenodd"/><path d="M600.5 332.5 600.523 334.29 600.568 336.079 600.613 337.917 600.658 339.706 600.748 341.496 600.884 343.285 601.065 345.075 601.313 346.913 601.651 348.702 602.103 350.492 602.69 352.281 603.435 354.119 604.36 355.909 605.489 357.698 606.866 359.488 608.492 361.277 610.365 363.115 612.487 364.905 614.858 366.694 617.431 368.484 620.14 370.273 622.939 372.111 625.739 373.901 628.425 375.69 630.931 377.48 633.143 379.269 634.994 381.107 636.371 382.897 637.207 384.686 637.5 386.476 637.207 388.265 636.371 390.103 634.994 391.893 633.143 393.682 630.931 395.472 628.425 397.31 625.739 399.099 622.939 400.889 620.14 402.678 617.431 404.468 614.858 406.306 612.487 408.095 610.365 409.885 608.492 411.674 606.866 413.464 605.489 415.302 604.36 417.091 603.435 418.881 602.69 420.67 602.103 422.46 601.651 424.298 601.313 426.087 601.065 427.877 600.884 429.666 600.748 431.456 600.658 433.294 600.613 435.083 600.568 436.873 600.523 438.662 600.5 440.5" stroke="#1AABD8" stroke-width="1.33333" stroke-miterlimit="8" fill="#FFFFFF" fill-rule="evenodd"/><path d="M601.167 327.234 601.167 445.322 599.833 445.322 599.833 327.234ZM596.551 334.977 600.5 325.5 604.449 334.977C604.59 335.317 604.43 335.707 604.09 335.849 603.75 335.99 603.36 335.83 603.218 335.49L599.885 327.49 601.115 327.49 597.782 335.49C597.641 335.83 597.25 335.99 596.91 335.849 596.57 335.707 596.41 335.317 596.551 334.977ZM604.449 437.579 600.5 447.056 596.551 437.579C596.41 437.239 596.571 436.849 596.91 436.707 597.25 436.565 597.641 436.726 597.782 437.066L601.116 445.066 599.885 445.066 603.218 437.066C603.36 436.726 603.75 436.565 604.09 436.707 604.43 436.849 604.591 437.239 604.449 437.579Z" fill="#1AABD8"/><text font-family="Open Sans,Open Sans_MSFontService,sans-serif" font-weight="300" font-size="24" transform="translate(402.834 314)">GAUSSIAN</text></g></svg>