<svg width="395" height="148" xmlns="http://www.w3.org/2000/svg" xmlns:xlink="http://www.w3.org/1999/xlink" overflow="hidden"><defs><clipPath id="clip0"><rect x="-273" y="313" width="395" height="148"/></clipPath></defs><g clip-path="url(#clip0)" transform="translate(273 -313)"><path d="M-253 385 64.4845 385" stroke="#000000" stroke-width="2" stroke-linecap="round" stroke-miterlimit="8" stroke-dasharray="4 4" fill="#FFFFFF" fill-rule="evenodd"/><path d="M-214 377C-214 373.134-210.866 370-207 370-203.134 370-200 373.134-200 377-200 380.866-203.134 384-207 384-210.866 384-214 380.866-214 377Z" stroke="#000000" stroke-width="2" stroke-miterlimit="8" fill="#FFFFFF" fill-rule="evenodd"/><path d="M-202 406C-202 402.134-199.09 399-195.5 399-191.91 399-189 402.134-189 406-189 409.866-191.91 413-195.5 413-199.09 413-202 409.866-202 406Z" stroke="#000000" stroke-width="2" stroke-miterlimit="8" fill="#FFFFFF" fill-rule="evenodd"/><path d="M-191 385C-191 381.134-187.866 378-184 378-180.134 378-177 381.134-177 385-177 388.866-180.134 392-184 392-187.866 392-191 388.866-191 385Z" stroke="#000000" stroke-width="2" stroke-miterlimit="8" fill="#FFFFFF" fill-rule="evenodd"/><path d="M-167 410.5C-167 406.91-164.09 404-160.5 404-156.91 404-154 406.91-154 410.5-154 414.09-156.91 417-160.5 417-164.09 417-167 414.09-167 410.5Z" stroke="#000000" stroke-width="2" stroke-miterlimit="8" fill="#FFFFFF" fill-rule="evenodd"/><path d="M-156 378C-156 374.134-152.866 371-149 371-145.134 371-142 374.134-142 378-142 381.866-145.134 385-149 385-152.866 385-156 381.866-156 378Z" stroke="#000000" stroke-width="2" stroke-miterlimit="8" fill="#FFFFFF" fill-rule="evenodd"/><path d="M-144 382C-144 378.134-141.09 375-137.5 375-133.91 375-131 378.134-131 382-131 385.866-133.91 389-137.5 389-141.09 389-144 385.866-144 382Z" stroke="#000000" stroke-width="2" stroke-miterlimit="8" fill="#FFFFFF" fill-rule="evenodd"/><path d="M-121 404C-121 400.134-117.866 397-114 397-110.134 397-107 400.134-107 404-107 407.866-110.134 411-114 411-117.866 411-121 407.866-121 404Z" stroke="#000000" stroke-width="2" stroke-miterlimit="8" fill="#FFFFFF" fill-rule="evenodd"/><path d="M-109 367.5C-109 363.91-106.09 361-102.5 361-98.9101 361-96 363.91-96 367.5-96 371.09-98.9101 374-102.5 374-106.09 374-109 371.09-109 367.5Z" stroke="#000000" stroke-width="2" stroke-miterlimit="8" fill="#FFFFFF" fill-rule="evenodd"/><path d="M-86 396.5C-86 392.91-82.866 390-79 390-75.134 390-72 392.91-72 396.5-72 400.09-75.134 403-79 403-82.866 403-86 400.09-86 396.5Z" stroke="#000000" stroke-width="2" stroke-miterlimit="8" fill="#FFFFFF" fill-rule="evenodd"/><path d="M-74 396.5C-74 392.91-71.0899 390-67.5 390-63.9101 390-61 392.91-61 396.5-61 400.09-63.9101 403-67.5 403-71.0899 403-74 400.09-74 396.5Z" stroke="#000000" stroke-width="2" stroke-miterlimit="8" fill="#FFFFFF" fill-rule="evenodd"/><path d="M-63 384C-63 380.134-59.866 377-56 377-52.134 377-49 380.134-49 384-49 387.866-52.134 391-56 391-59.866 391-63 387.866-63 384Z" stroke="#000000" stroke-width="2" stroke-miterlimit="8" fill="#FFFFFF" fill-rule="evenodd"/><path d="M-51 357C-51 353.134-48.0899 350-44.5 350-40.9101 350-38 353.134-38 357-38 360.866-40.9101 364-44.5 364-48.0899 364-51 360.866-51 357Z" stroke="#000000" stroke-width="2" stroke-miterlimit="8" fill="#FFFFFF" fill-rule="evenodd"/><path d="M-28 397C-28 393.134-24.866 390-21 390-17.134 390-14 393.134-14 397-14 400.866-17.134 404-21 404-24.866 404-28 400.866-28 397Z" stroke="#000000" stroke-width="2" stroke-miterlimit="8" fill="#FFFFFF" fill-rule="evenodd"/><path d="M-237 396C-237 392.134-234.09 389-230.5 389-226.91 389-224 392.134-224 396-224 399.866-226.91 403-230.5 403-234.09 403-237 399.866-237 396Z" stroke="#000000" stroke-width="2" stroke-miterlimit="8" fill="#FFFFFF" fill-rule="evenodd"/><path d="M-249 371.5C-249 367.91-245.866 365-242 365-238.134 365-235 367.91-235 371.5-235 375.09-238.134 378-242 378-245.866 378-249 375.09-249 371.5Z" stroke="#000000" stroke-width="2" stroke-miterlimit="8" fill="#FFFFFF" fill-rule="evenodd"/><path d="M-16 385.5C-16 381.91-13.0899 379-9.5 379-5.91015 379-3 381.91-3 385.5-3 389.09-5.91015 392-9.5 392-13.0899 392-16 389.09-16 385.5Z" stroke="#000000" stroke-width="2" stroke-miterlimit="8" fill="#FFFFFF" fill-rule="evenodd"/><path d="M-5 403C-5 399.134-1.86599 396 2 396 5.86599 396 9 399.134 9 403 9 406.866 5.86599 410 2 410-1.86599 410-5 406.866-5 403Z" stroke="#000000" stroke-width="2" stroke-miterlimit="8" fill="#FFFFFF" fill-rule="evenodd"/><path d="M19 366C19 362.134 21.9101 359 25.5 359 29.0899 359 32 362.134 32 366 32 369.866 29.0899 373 25.5 373 21.9101 373 19 369.866 19 366Z" stroke="#000000" stroke-width="2" stroke-miterlimit="8" fill="#FFFFFF" fill-rule="evenodd"/><path d="M42 402C42 398.134 45.134 395 49 395 52.866 395 56 398.134 56 402 56 405.866 52.866 409 49 409 45.134 409 42 405.866 42 402Z" stroke="#000000" stroke-width="2" stroke-miterlimit="8" fill="#FFFFFF" fill-rule="evenodd"/><path d="M-98 386.5C-98 382.91-94.866 380-91 380-87.134 380-84 382.91-84 386.5-84 390.09-87.134 393-91 393-94.866 393-98 390.09-98 386.5Z" stroke="#000000" stroke-width="2" stroke-miterlimit="8" fill="#FFFFFF" fill-rule="evenodd"/><path d="M-132 394C-132 390.134-129.09 387-125.5 387-121.91 387-119 390.134-119 394-119 397.866-121.91 401-125.5 401-129.09 401-132 397.866-132 394Z" stroke="#000000" stroke-width="2" stroke-miterlimit="8" fill="#FFFFFF" fill-rule="evenodd"/><path d="M-179 379.5C-179 375.91-175.866 373-172 373-168.134 373-165 375.91-165 379.5-165 383.09-168.134 386-172 386-175.866 386-179 383.09-179 379.5Z" stroke="#000000" stroke-width="2" stroke-miterlimit="8" fill="#FFFFFF" fill-rule="evenodd"/><path d="M-225 340.5C-225 336.91-222.09 334-218.5 334-214.91 334-212 336.91-212 340.5-212 344.09-214.91 347-218.5 347-222.09 347-225 344.09-225 340.5Z" stroke="#000000" stroke-width="2" stroke-miterlimit="8" fill="#FFFFFF" fill-rule="evenodd"/><path d="M-39 408C-39 404.134-36.0899 401-32.5 401-28.9101 401-26 404.134-26 408-26 411.866-28.9101 415-32.5 415-36.0899 415-39 411.866-39 408Z" stroke="#000000" stroke-width="2" stroke-miterlimit="8" fill="#FFFFFF" fill-rule="evenodd"/><path d="M7 435C7 431.134 9.91015 428 13.5 428 17.0899 428 20 431.134 20 435 20 438.866 17.0899 442 13.5 442 9.91015 442 7 438.866 7 435Z" stroke="#000000" stroke-width="2" stroke-miterlimit="8" fill="#FFFFFF" fill-rule="evenodd"/><path d="M30 402C30 398.134 33.134 395 37 395 40.866 395 44 398.134 44 402 44 405.866 40.866 409 37 409 33.134 409 30 405.866 30 402Z" stroke="#000000" stroke-width="2" stroke-miterlimit="8" fill="#FFFFFF" fill-rule="evenodd"/><path d="M65.0001 332 65.0226 333.789 65.0678 335.579 65.1129 337.417 65.1581 339.206 65.2484 340.996 65.3838 342.785 65.5644 344.575 65.8127 346.413 66.1514 348.202 66.6029 349.992 67.1898 351.781 67.9348 353.619 68.8603 355.409 69.9891 357.198 71.3661 358.988 72.9915 360.777 74.8652 362.615 76.9872 364.405 79.3576 366.194 81.9311 367.984 84.6401 369.773 87.4393 371.611 90.2386 373.401 92.925 375.19 95.4308 376.98 97.6431 378.769 99.4943 380.607 100.871 382.397 101.707 384.186 102 385.976 101.707 387.765 100.871 389.603 99.4943 391.393 97.6431 393.182 95.4308 394.972 92.925 396.81 90.2386 398.599 87.4393 400.389 84.6401 402.178 81.9311 403.968 79.3576 405.806 76.9872 407.595 74.8652 409.385 72.9915 411.174 71.3661 412.964 69.9891 414.802 68.8603 416.591 67.9348 418.381 67.1898 420.17 66.6029 421.96 66.1514 423.798 65.8127 425.587 65.5644 427.377 65.3838 429.166 65.2484 430.956 65.1581 432.793 65.1129 434.583 65.0678 436.373 65.0226 438.162 65.0001 440" stroke="#000000" stroke-width="2" stroke-miterlimit="8" fill="#FFFFFF" fill-rule="evenodd"/><path d="M66 327.6 66.0001 443.956 64.0001 443.956 64 327.6ZM60.7436 335.215 65 325 69.2564 335.215C69.4688 335.725 69.2278 336.311 68.718 336.523 68.2082 336.736 67.6227 336.494 67.4103 335.985L64.0769 327.985 65.9231 327.985 62.5898 335.985C62.3773 336.494 61.7919 336.736 61.2821 336.523 60.7723 336.311 60.5312 335.725 60.7436 335.215ZM69.2565 436.34 65.0001 446.556 60.7437 436.34C60.5313 435.83 60.7723 435.245 61.2821 435.033 61.7919 434.82 62.3774 435.061 62.5898 435.571L65.9232 443.571 64.077 443.571 67.4104 435.571C67.6228 435.061 68.2082 434.82 68.718 435.033 69.2278 435.245 69.4689 435.83 69.2565 436.34Z"/></g></svg>