<svg width="395" height="178" xmlns="http://www.w3.org/2000/svg" xmlns:xlink="http://www.w3.org/1999/xlink" overflow="hidden"><defs><clipPath id="clip0"><rect x="262" y="283" width="395" height="178"/></clipPath></defs><g clip-path="url(#clip0)" transform="translate(-262 -283)"><path d="M282 385 594.889 385" stroke="#1AABD8" stroke-width="2" stroke-miterlimit="8" stroke-dasharray="6 2" fill="#FFFFFF" fill-rule="evenodd"/><path d="M321 377C321 373.134 324.134 370 328 370 331.866 370 335 373.134 335 377 335 380.866 331.866 384 328 384 324.134 384 321 380.866 321 377Z" stroke="#1AABD8" stroke-width="2" stroke-miterlimit="8" fill="#FFFFFF" fill-rule="evenodd"/><path d="M333 406C333 402.134 335.91 399 339.5 399 343.09 399 346 402.134 346 406 346 409.866 343.09 413 339.5 413 335.91 413 333 409.866 333 406Z" stroke="#1AABD8" stroke-width="2" stroke-miterlimit="8" fill="#FFFFFF" fill-rule="evenodd"/><path d="M344 385C344 381.134 347.134 378 351 378 354.866 378 358 381.134 358 385 358 388.866 354.866 392 351 392 347.134 392 344 388.866 344 385Z" stroke="#1AABD8" stroke-width="2" stroke-miterlimit="8" fill="#FFFFFF" fill-rule="evenodd"/><path d="M368 410.5C368 406.91 370.91 404 374.5 404 378.09 404 381 406.91 381 410.5 381 414.09 378.09 417 374.5 417 370.91 417 368 414.09 368 410.5Z" stroke="#1AABD8" stroke-width="2" stroke-miterlimit="8" fill="#FFFFFF" fill-rule="evenodd"/><path d="M379 378C379 374.134 382.134 371 386 371 389.866 371 393 374.134 393 378 393 381.866 389.866 385 386 385 382.134 385 379 381.866 379 378Z" stroke="#1AABD8" stroke-width="2" stroke-miterlimit="8" fill="#FFFFFF" fill-rule="evenodd"/><path d="M391 382C391 378.134 393.91 375 397.5 375 401.09 375 404 378.134 404 382 404 385.866 401.09 389 397.5 389 393.91 389 391 385.866 391 382Z" stroke="#1AABD8" stroke-width="2" stroke-miterlimit="8" fill="#FFFFFF" fill-rule="evenodd"/><path d="M414 404C414 400.134 417.134 397 421 397 424.866 397 428 400.134 428 404 428 407.866 424.866 411 421 411 417.134 411 414 407.866 414 404Z" stroke="#1AABD8" stroke-width="2" stroke-miterlimit="8" fill="#FFFFFF" fill-rule="evenodd"/><path d="M426 367.5C426 363.91 428.91 361 432.5 361 436.09 361 439 363.91 439 367.5 439 371.09 436.09 374 432.5 374 428.91 374 426 371.09 426 367.5Z" stroke="#1AABD8" stroke-width="2" stroke-miterlimit="8" fill="#FFFFFF" fill-rule="evenodd"/><path d="M449 396.5C449 392.91 452.134 390 456 390 459.866 390 463 392.91 463 396.5 463 400.09 459.866 403 456 403 452.134 403 449 400.09 449 396.5Z" stroke="#1AABD8" stroke-width="2" stroke-miterlimit="8" fill="#FFFFFF" fill-rule="evenodd"/><path d="M461 396.5C461 392.91 463.91 390 467.5 390 471.09 390 474 392.91 474 396.5 474 400.09 471.09 403 467.5 403 463.91 403 461 400.09 461 396.5Z" stroke="#1AABD8" stroke-width="2" stroke-miterlimit="8" fill="#FFFFFF" fill-rule="evenodd"/><path d="M472 384C472 380.134 475.134 377 479 377 482.866 377 486 380.134 486 384 486 387.866 482.866 391 479 391 475.134 391 472 387.866 472 384Z" stroke="#1AABD8" stroke-width="2" stroke-miterlimit="8" fill="#FFFFFF" fill-rule="evenodd"/><path d="M484 357C484 353.134 486.91 350 490.5 350 494.09 350 497 353.134 497 357 497 360.866 494.09 364 490.5 364 486.91 364 484 360.866 484 357Z" stroke="#1AABD8" stroke-width="2" stroke-miterlimit="8" fill="#FFFFFF" fill-rule="evenodd"/><path d="M507 397C507 393.134 510.134 390 514 390 517.866 390 521 393.134 521 397 521 400.866 517.866 404 514 404 510.134 404 507 400.866 507 397Z" stroke="#1AABD8" stroke-width="2" stroke-miterlimit="8" fill="#FFFFFF" fill-rule="evenodd"/><path d="M298 396C298 392.134 300.91 389 304.5 389 308.09 389 311 392.134 311 396 311 399.866 308.09 403 304.5 403 300.91 403 298 399.866 298 396Z" stroke="#1AABD8" stroke-width="2" stroke-miterlimit="8" fill="#FFFFFF" fill-rule="evenodd"/><path d="M286 371.5C286 367.91 289.134 365 293 365 296.866 365 300 367.91 300 371.5 300 375.09 296.866 378 293 378 289.134 378 286 375.09 286 371.5Z" stroke="#1AABD8" stroke-width="2" stroke-miterlimit="8" fill="#FFFFFF" fill-rule="evenodd"/><path d="M519 385.5C519 381.91 521.91 379 525.5 379 529.09 379 532 381.91 532 385.5 532 389.09 529.09 392 525.5 392 521.91 392 519 389.09 519 385.5Z" stroke="#1AABD8" stroke-width="2" stroke-miterlimit="8" fill="#FFFFFF" fill-rule="evenodd"/><path d="M530 403C530 399.134 533.134 396 537 396 540.866 396 544 399.134 544 403 544 406.866 540.866 410 537 410 533.134 410 530 406.866 530 403Z" stroke="#1AABD8" stroke-width="2" stroke-miterlimit="8" fill="#FFFFFF" fill-rule="evenodd"/><path d="M554 366C554 362.134 556.91 359 560.5 359 564.09 359 567 362.134 567 366 567 369.866 564.09 373 560.5 373 556.91 373 554 369.866 554 366Z" stroke="#1AABD8" stroke-width="2" stroke-miterlimit="8" fill="#FFFFFF" fill-rule="evenodd"/><path d="M577 402C577 398.134 579.91 395 583.5 395 587.09 395 590 398.134 590 402 590 405.866 587.09 409 583.5 409 579.91 409 577 405.866 577 402Z" stroke="#1AABD8" stroke-width="2" stroke-miterlimit="8" fill="#FFFFFF" fill-rule="evenodd"/><path d="M437 386.5C437 382.91 440.134 380 444 380 447.866 380 451 382.91 451 386.5 451 390.09 447.866 393 444 393 440.134 393 437 390.09 437 386.5Z" stroke="#1AABD8" stroke-width="2" stroke-miterlimit="8" fill="#FFFFFF" fill-rule="evenodd"/><path d="M403 394C403 390.134 405.91 387 409.5 387 413.09 387 416 390.134 416 394 416 397.866 413.09 401 409.5 401 405.91 401 403 397.866 403 394Z" stroke="#1AABD8" stroke-width="2" stroke-miterlimit="8" fill="#FFFFFF" fill-rule="evenodd"/><path d="M356 379.5C356 375.91 359.134 373 363 373 366.866 373 370 375.91 370 379.5 370 383.09 366.866 386 363 386 359.134 386 356 383.09 356 379.5Z" stroke="#1AABD8" stroke-width="2" stroke-miterlimit="8" fill="#FFFFFF" fill-rule="evenodd"/><path d="M309 340.5C309 336.91 312.134 334 316 334 319.866 334 323 336.91 323 340.5 323 344.09 319.866 347 316 347 312.134 347 309 344.09 309 340.5Z" stroke="#1AABD8" stroke-width="2" stroke-miterlimit="8" fill="#FFFFFF" fill-rule="evenodd"/><path d="M496 408C496 404.134 498.91 401 502.5 401 506.09 401 509 404.134 509 408 509 411.866 506.09 415 502.5 415 498.91 415 496 411.866 496 408Z" stroke="#1AABD8" stroke-width="2" stroke-miterlimit="8" fill="#FFFFFF" fill-rule="evenodd"/><path d="M542 435C542 431.134 544.91 428 548.5 428 552.09 428 555 431.134 555 435 555 438.866 552.09 442 548.5 442 544.91 442 542 438.866 542 435Z" stroke="#1AABD8" stroke-width="2" stroke-miterlimit="8" fill="#FFFFFF" fill-rule="evenodd"/><path d="M565 402C565 398.134 568.134 395 572 395 575.866 395 579 398.134 579 402 579 405.866 575.866 409 572 409 568.134 409 565 405.866 565 402Z" stroke="#1AABD8" stroke-width="2" stroke-miterlimit="8" fill="#FFFFFF" fill-rule="evenodd"/><path d="M600 332 600.023 333.789 600.068 335.579 600.113 337.417 600.158 339.206 600.248 340.996 600.384 342.785 600.564 344.575 600.813 346.413 601.151 348.202 601.603 349.992 602.19 351.781 602.935 353.619 603.86 355.409 604.989 357.198 606.366 358.988 607.992 360.777 609.865 362.615 611.987 364.405 614.358 366.194 616.931 367.984 619.64 369.773 622.439 371.611 625.239 373.401 627.925 375.19 630.431 376.98 632.643 378.769 634.494 380.607 635.871 382.397 636.707 384.186 637 385.976 636.707 387.765 635.871 389.603 634.494 391.393 632.643 393.182 630.431 394.972 627.925 396.81 625.239 398.599 622.439 400.389 619.64 402.178 616.931 403.968 614.358 405.806 611.987 407.595 609.865 409.385 607.992 411.174 606.366 412.964 604.989 414.802 603.86 416.591 602.935 418.381 602.19 420.17 601.603 421.96 601.151 423.798 600.813 425.587 600.564 427.377 600.384 429.166 600.248 430.956 600.158 432.793 600.113 434.583 600.068 436.373 600.023 438.162 600 440" stroke="#1AABD8" stroke-width="2" stroke-miterlimit="8" fill="#FFFFFF" fill-rule="evenodd"/><path d="M601 327.6 601 443.956 599 443.956 599 327.6ZM595.744 335.215 600 325 604.256 335.215C604.469 335.725 604.228 336.311 603.718 336.523 603.208 336.736 602.623 336.494 602.41 335.985L599.077 327.985 600.923 327.985 597.59 335.985C597.377 336.494 596.792 336.736 596.282 336.523 595.772 336.311 595.531 335.725 595.744 335.215ZM604.257 436.34 600 446.556 595.744 436.34C595.531 435.83 595.772 435.245 596.282 435.033 596.792 434.82 597.377 435.061 597.59 435.571L600.923 443.571 599.077 443.571 602.41 435.571C602.623 435.061 603.208 434.82 603.718 435.033 604.228 435.245 604.469 435.83 604.257 436.34Z" fill="#1AABD8"/><text font-family="Open Sans,Open Sans_MSFontService,sans-serif" font-weight="300" font-size="24" transform="translate(402.834 314)">GAUSSIAN</text></g></svg>