<svg width="290" height="137" xmlns="http://www.w3.org/2000/svg" xmlns:xlink="http://www.w3.org/1999/xlink" overflow="hidden"><defs><clipPath id="clip0"><rect x="1420" y="373" width="290" height="137"/></clipPath></defs><g clip-path="url(#clip0)" transform="translate(-1420 -373)"><path d="M1546.83 374C1555.08 374 1562.86 374.778 1570.18 376.335 1577.5 377.892 1583.87 379.868 1589.31 382.263L1578.11 410.108C1568.67 405.437 1558.3 403.102 1547.01 403.102 1536.67 403.102 1528.68 406.47 1523.04 413.207 1517.39 419.943 1514.57 429.569 1514.57 442.084 1514.57 454.359 1517.12 463.716 1522.23 470.153 1527.34 476.59 1534.7 479.808 1544.32 479.808 1549.58 479.808 1554.42 479.299 1558.84 478.281L1558.84 457.713 1535.45 457.713 1535.45 430.317 1592 430.317 1592 501.096C1576.64 506.365 1559.77 509 1541.36 509 1521.17 509 1505.56 503.132 1494.54 491.395 1483.51 479.659 1478 462.922 1478 441.186 1478 419.988 1484.03 403.491 1496.1 391.695 1508.17 379.898 1525.08 374 1546.83 374Z" fill="#FCB71E" fill-rule="evenodd"/><path d="M1560.18 377 1607.51 377 1634.95 470.718 1635.67 470.718 1662.58 377 1710 377 1710 509 1677.34 509 1677.34 451.126C1677.34 448.116 1677.38 444.776 1677.47 441.104 1677.56 437.432 1677.97 428.434 1678.69 414.108L1677.88 414.108 1651.33 509 1617.5 509 1592.23 419.709 1592.23 509 1591.67 509 1560.18 509 1559 509 1559 377.046 1560.18 377.046Z" fill="#1AABD8" fill-rule="evenodd"/><path d="M1456.37 404.583 1456.37 434.69 1462.81 434.69C1468.13 434.69 1472.35 433.197 1475.48 430.21 1478.62 427.223 1480.18 423.101 1480.18 417.845 1480.18 409.004 1475.29 404.583 1465.5 404.583ZM1421 376 1466.31 376C1482.84 376 1495.26 379.614 1503.55 386.842 1511.85 394.07 1516 404.345 1516 417.666 1516 432.301 1511.69 443.606 1503.06 451.58 1494.44 459.555 1482.18 463.542 1466.31 463.542L1456.37 463.542 1456.37 507 1421 507Z" fill="#EF5181" fill-rule="evenodd"/><path d="M1502.87 386 1503.71 386.574C1511.9 393.803 1516 404.079 1516 417.402 1516 432.039 1511.74 443.345 1503.22 451.321 1498.96 455.309 1493.8 458.3 1487.75 460.294L1480.34 462 1479.02 456.211C1478.34 451.413 1478 446.303 1478 440.881 1478 435.594 1478.37 430.599 1479.12 425.898L1479.43 424.658 1479.46 424.616 1479.49 424.422 1482.47 412.674C1485.44 404.445 1489.91 397.387 1495.87 391.503Z" fill="#6A4079" fill-rule="evenodd"/><path d="M1559 429.891 1592 429.891 1592 501.023 1580.27 504.488C1576.25 505.481 1572.14 506.308 1567.93 506.97L1559 508ZM1560.17 377 1575.48 377 1580.52 378.309C1583.7 379.302 1586.64 380.4 1589.35 381.603L1578.18 409.583C1573.48 407.236 1568.54 405.476 1563.37 404.303L1559 403.575 1559 377.046 1560.17 377.046Z" fill="#6A4079" fill-rule="evenodd"/></g></svg>