<svg width="291" height="138" xmlns="http://www.w3.org/2000/svg" xmlns:xlink="http://www.w3.org/1999/xlink" overflow="hidden"><defs><clipPath id="clip0"><rect x="800" y="410" width="291" height="138"/></clipPath></defs><g clip-path="url(#clip0)" transform="translate(-800 -410)"><path d="M926.83 411C935.075 411 942.858 411.778 950.177 413.335 957.496 414.892 963.874 416.868 969.311 419.263L958.109 447.108C948.668 442.437 938.302 440.102 927.009 440.102 916.673 440.102 908.682 443.47 903.035 450.207 897.389 456.943 894.566 466.569 894.566 479.084 894.566 491.359 897.12 500.716 902.229 507.153 907.337 513.59 914.701 516.808 924.321 516.808 929.579 516.808 934.418 516.299 938.84 515.281L938.84 494.713 915.448 494.713 915.448 467.317 972 467.317 972 538.096C956.645 543.365 939.766 546 921.363 546 901.168 546 885.559 540.132 874.535 528.395 863.512 516.659 858 499.922 858 478.186 858 456.988 864.035 440.491 876.104 428.695 888.173 416.898 905.082 411 926.83 411Z" fill="#FCB71E" fill-rule="evenodd"/><path d="M940.179 415 987.51 415 1014.95 508.008 1015.67 508.008 1042.58 415 1090 415 1090 546 1057.34 546 1057.34 488.564C1057.34 485.578 1057.38 482.262 1057.47 478.618 1057.56 474.974 1057.97 466.044 1058.69 451.827L1057.88 451.827 1031.33 546 997.498 546 972.23 457.386 972.23 546 971.673 546 940.179 546 939 546 939 415.045 940.179 415.045Z" fill="#1AABD8" fill-rule="evenodd"/><path d="M836.74 441.802 836.74 472.138 843.254 472.138C848.623 472.138 852.891 470.633 856.057 467.624 859.224 464.614 860.808 460.461 860.808 455.164 860.808 446.256 855.861 441.802 845.969 441.802ZM801 413 846.783 413C863.492 413 876.039 416.642 884.423 423.925 892.808 431.208 897 441.561 897 454.984 897 469.73 892.642 481.122 883.925 489.157 875.209 497.193 862.828 501.211 846.783 501.211L836.74 501.211 836.74 545 801 545Z" fill="#EF5181" fill-rule="evenodd"/><path d="M883.524 424 884.382 424.574C892.794 431.803 897 442.079 897 455.402 897 470.039 892.627 481.345 883.882 489.321 879.51 493.309 874.218 496.3 868.008 498.294L860.398 500 859.047 494.211C858.349 489.413 858 484.303 858 478.881 858 473.594 858.382 468.599 859.146 463.898L859.468 462.658 859.497 462.616 859.53 462.422 862.584 450.674C865.641 442.445 870.225 435.387 876.337 429.503Z" fill="#F2F2F2" fill-rule="evenodd"/><path d="M939 467.891 972 467.891 972 539.023 960.265 542.488C956.248 543.481 952.135 544.308 947.928 544.97L939 546ZM940.171 415 955.482 415 960.517 416.309C963.696 417.302 966.642 418.4 969.352 419.603L958.182 447.583C953.476 445.236 948.538 443.476 943.37 442.303L939 441.575 939 415.046 940.171 415.046Z" fill="#F2F2F2" fill-rule="evenodd"/><path d="M927.33 411.5C935.576 411.5 943.358 412.278 950.677 413.835 957.996 415.392 964.374 417.368 969.811 419.764L958.609 447.608C949.168 442.937 938.802 440.602 927.51 440.602 917.173 440.602 909.182 443.97 903.536 450.707 897.889 457.443 895.066 467.069 895.066 479.584 895.066 491.859 897.62 501.216 902.729 507.653 907.837 514.09 915.201 517.308 924.821 517.308 930.079 517.308 934.918 516.8 939.34 515.781L939.34 495.213 915.948 495.213 915.948 467.817 972.5 467.817 972.5 538.596C957.145 543.865 940.266 546.5 921.863 546.5 901.668 546.5 886.059 540.632 875.035 528.895 864.012 517.159 858.5 500.422 858.5 478.686 858.5 457.488 864.535 440.991 876.604 429.195 888.673 417.398 905.582 411.5 927.33 411.5Z" stroke="#000000" stroke-linejoin="round" stroke-miterlimit="10" fill="none" fill-rule="evenodd"/><path d="M940.679 415.5 988.01 415.5 1015.45 508.508 1016.17 508.508 1043.08 415.5 1090.5 415.5 1090.5 546.5 1057.84 546.5 1057.84 489.064C1057.84 486.078 1057.88 482.762 1057.97 479.118 1058.06 475.474 1058.47 466.544 1059.19 452.327L1058.38 452.327 1031.83 546.5 997.998 546.5 972.73 457.886 972.73 546.5 972.173 546.5 940.679 546.5 939.5 546.5 939.5 415.545 940.679 415.545Z" stroke="#000000" stroke-linejoin="round" stroke-miterlimit="10" fill="none" fill-rule="evenodd"/><path d="M837.24 442.302 837.24 472.638 843.754 472.638C849.123 472.638 853.391 471.133 856.557 468.124 859.724 465.114 861.308 460.961 861.308 455.664 861.308 446.756 856.361 442.302 846.469 442.302ZM801.5 413.5 847.283 413.5C863.992 413.5 876.539 417.142 884.923 424.425 893.308 431.708 897.5 442.061 897.5 455.484 897.5 470.231 893.142 481.622 884.426 489.657 875.709 497.693 863.328 501.711 847.283 501.711L837.24 501.711 837.24 545.5 801.5 545.5Z" stroke="#000000" stroke-linejoin="round" stroke-miterlimit="10" fill="none" fill-rule="evenodd"/></g></svg>