<svg width="290" height="137" xmlns="http://www.w3.org/2000/svg" xmlns:xlink="http://www.w3.org/1999/xlink" overflow="hidden"><defs><clipPath id="clip0"><rect x="1019" y="373" width="290" height="137"/></clipPath></defs><g clip-path="url(#clip0)" transform="translate(-1019 -373)"><path d="M1144.83 374C1153.08 374 1160.86 374.778 1168.18 376.335 1175.5 377.892 1181.87 379.868 1187.31 382.263L1176.11 410.108C1166.67 405.437 1156.3 403.102 1145.01 403.102 1134.67 403.102 1126.68 406.47 1121.04 413.207 1115.39 419.943 1112.57 429.569 1112.57 442.084 1112.57 454.359 1115.12 463.716 1120.23 470.153 1125.34 476.59 1132.7 479.808 1142.32 479.808 1147.58 479.808 1152.42 479.299 1156.84 478.281L1156.84 457.713 1133.45 457.713 1133.45 430.317 1190 430.317 1190 501.096C1174.64 506.365 1157.77 509 1139.36 509 1119.17 509 1103.56 503.132 1092.54 491.395 1081.51 479.659 1076 462.922 1076 441.186 1076 419.988 1082.03 403.491 1094.1 391.695 1106.17 379.898 1123.08 374 1144.83 374Z" fill="#EF5181" fill-rule="evenodd"/><path d="M1158.18 377 1205.51 377 1232.95 470.718 1233.67 470.718 1260.58 377 1308 377 1308 509 1275.34 509 1275.34 451.126C1275.34 448.116 1275.38 444.776 1275.47 441.104 1275.56 437.432 1275.97 428.434 1276.69 414.108L1275.88 414.108 1249.33 509 1215.5 509 1190.23 419.709 1190.23 509 1189.67 509 1158.18 509 1157 509 1157 377.046 1158.18 377.046Z" fill="#1AABD8" fill-rule="evenodd"/><path d="M1054.74 404.583 1054.74 434.69 1061.25 434.69C1066.62 434.69 1070.89 433.197 1074.06 430.21 1077.22 427.223 1078.81 423.101 1078.81 417.845 1078.81 409.004 1073.86 404.583 1063.97 404.583ZM1019 376 1064.78 376C1081.49 376 1094.04 379.614 1102.42 386.842 1110.81 394.07 1115 404.345 1115 417.666 1115 432.301 1110.64 443.606 1101.93 451.58 1093.21 459.555 1080.83 463.542 1064.78 463.542L1054.74 463.542 1054.74 507 1019 507Z" fill="#1AABD8" fill-rule="evenodd"/><path d="M1101.52 386 1102.38 386.574C1110.79 393.803 1115 404.079 1115 417.402 1115 432.039 1110.63 443.345 1101.88 451.321 1097.51 455.309 1092.22 458.3 1086.01 460.294L1078.4 462 1077.05 456.211C1076.35 451.413 1076 446.303 1076 440.881 1076 435.594 1076.38 430.599 1077.15 425.898L1077.47 424.658 1077.5 424.616 1077.53 424.422 1080.58 412.674C1083.64 404.445 1088.22 397.387 1094.34 391.503Z" fill="#6A4079" fill-rule="evenodd"/><path d="M1157 429.891 1190 429.891 1190 501.023 1178.27 504.488C1174.25 505.481 1170.14 506.308 1165.93 506.97L1157 508ZM1158.17 377 1173.48 377 1178.52 378.309C1181.7 379.302 1184.64 380.4 1187.35 381.603L1176.18 409.583C1171.48 407.236 1166.54 405.476 1161.37 404.303L1157 403.575 1157 377.046 1158.17 377.046Z" fill="#6A4079" fill-rule="evenodd"/></g></svg>