<svg width="232" height="137" xmlns="http://www.w3.org/2000/svg" xmlns:xlink="http://www.w3.org/1999/xlink" overflow="hidden"><defs><clipPath id="clip0"><rect x="578" y="777" width="232" height="137"/></clipPath></defs><g clip-path="url(#clip0)" transform="translate(-578 -777)"><path d="M614.367 808.583 614.367 838.69 620.814 838.69C626.127 838.69 630.35 837.197 633.484 834.21 636.618 831.223 638.185 827.101 638.185 821.845 638.185 813.004 633.29 808.583 623.5 808.583ZM579 780 624.306 780C640.841 780 653.257 783.614 661.554 790.842 669.851 798.07 674 808.345 674 821.666 674 836.301 669.687 847.606 661.062 855.58 652.436 863.555 640.184 867.542 624.306 867.542L614.367 867.542 614.367 911 579 911Z" fill="#A6A6A6" fill-rule="evenodd"/><path d="M704.83 778C713.075 778 720.858 778.778 728.177 780.335 735.496 781.892 741.874 783.868 747.311 786.263L736.109 814.108C726.668 809.437 716.302 807.102 705.009 807.102 694.673 807.102 686.682 810.47 681.035 817.207 675.389 823.943 672.566 833.569 672.566 846.084 672.566 858.359 675.12 867.716 680.229 874.153 685.337 880.59 692.701 883.808 702.321 883.808 707.579 883.808 712.418 883.299 716.84 882.281L716.84 861.713 693.448 861.713 693.448 834.317 750 834.317 750 905.096C734.645 910.365 717.766 913 699.363 913 679.168 913 663.559 907.132 652.535 895.395 641.512 883.659 636 866.922 636 845.186 636 823.988 642.035 807.491 654.104 795.695 666.173 783.898 683.082 778 704.83 778Z" fill="#A6A6A6" fill-rule="evenodd"/><path d="M767.402 778C780.999 778 794.865 781.144 809 787.431L798.129 814.826C785.85 809.198 775.249 806.383 766.324 806.383 761.712 806.383 758.358 807.192 756.262 808.808 754.165 810.425 753.117 812.431 753.117 814.826 753.117 817.401 754.45 819.707 757.115 821.743 759.781 823.778 767.013 827.491 778.812 832.88 790.133 837.97 797.994 843.434 802.396 849.273 806.799 855.111 809 862.461 809 871.323 809 879.467 806.934 886.698 802.801 893.015 798.668 899.332 792.708 904.243 784.922 907.745 777.135 911.249 768.001 913 757.519 913 748.775 913 741.438 912.386 735.508 911.159 729.578 909.931 723.409 907.79 717 904.737L717 873.12C723.768 876.593 730.806 879.302 738.113 881.249 745.421 883.195 752.129 884.168 758.238 884.168 763.509 884.168 767.372 883.255 769.828 881.428 772.284 879.602 773.512 877.251 773.512 874.377 773.512 872.581 773.018 871.009 772.029 869.662 771.041 868.314 769.454 866.952 767.268 865.575 765.081 864.198 759.256 861.383 749.793 857.132 741.228 853.24 734.804 849.467 730.521 845.814 726.239 842.162 723.064 837.97 720.998 833.24 718.932 828.509 717.898 822.91 717.898 816.443 717.898 804.347 722.301 794.916 731.105 788.15 739.91 781.383 752.009 778 767.402 778Z" fill="#A6A6A6" fill-rule="evenodd"/></g></svg>