<svg width="329" height="194" xmlns="http://www.w3.org/2000/svg" xmlns:xlink="http://www.w3.org/1999/xlink" overflow="hidden"><defs><clipPath id="clip0"><rect x="944" y="517" width="329" height="194"/></clipPath></defs><g clip-path="url(#clip0)" transform="translate(-944 -517)"><path d="M994.631 561.802 994.631 604.779 1003.86 604.779C1011.47 604.779 1017.51 602.647 1022 598.384 1026.48 594.12 1028.73 588.236 1028.73 580.732 1028.73 568.112 1021.72 561.802 1007.71 561.802ZM944 521 1008.86 521C1032.53 521 1050.3 526.159 1062.18 536.477 1074.06 546.794 1080 561.461 1080 580.477 1080 601.368 1073.83 617.506 1061.48 628.89 1049.13 640.273 1031.59 645.965 1008.86 645.965L994.631 645.965 994.631 708 944 708Z" fill="#EF5181" fill-rule="evenodd"/><path d="M1123.42 518C1135.2 518 1146.33 519.113 1156.8 521.339 1167.26 523.564 1176.38 526.389 1184.16 529.814L1168.14 569.621C1154.64 562.943 1139.82 559.605 1123.67 559.605 1108.89 559.605 1097.47 564.42 1089.39 574.051 1081.32 583.682 1077.28 597.443 1077.28 615.335 1077.28 632.884 1080.94 646.26 1088.24 655.463 1095.54 664.665 1106.07 669.267 1119.83 669.267 1127.34 669.267 1134.26 668.539 1140.59 667.084L1140.59 637.678 1107.14 637.678 1107.14 598.513 1188 598.513 1188 699.7C1166.04 707.233 1141.91 711 1115.6 711 1086.72 711 1064.4 702.611 1048.64 685.832 1032.88 669.053 1025 645.126 1025 614.051 1025 583.746 1033.63 560.161 1050.89 543.297 1068.14 526.432 1092.32 518 1123.42 518Z" fill="#1AABD8" fill-rule="evenodd"/><path d="M1212.77 518C1232.13 518 1251.87 522.494 1272 531.483L1256.52 570.648C1239.04 562.601 1223.94 558.577 1211.23 558.577 1204.67 558.577 1199.89 559.733 1196.91 562.045 1193.92 564.356 1192.43 567.224 1192.43 570.648 1192.43 574.329 1194.33 577.625 1198.12 580.536 1201.92 583.446 1212.21 588.754 1229.02 596.458 1245.13 603.735 1256.33 611.547 1262.6 619.893 1268.87 628.24 1272 638.748 1272 651.418 1272 663.06 1269.06 673.397 1263.17 682.429 1257.29 691.46 1248.8 698.48 1237.71 703.488 1226.63 708.496 1213.62 711 1198.7 711 1186.24 711 1175.8 710.123 1167.35 708.368 1158.91 706.613 1150.13 703.552 1141 699.186L1141 653.986C1150.64 658.951 1160.66 662.825 1171.06 665.607 1181.47 668.389 1191.02 669.781 1199.72 669.781 1207.22 669.781 1212.73 668.475 1216.22 665.864 1219.72 663.253 1221.47 659.893 1221.47 655.784 1221.47 653.216 1220.76 650.968 1219.36 649.042 1217.95 647.116 1215.69 645.169 1212.58 643.2 1209.46 641.231 1201.17 637.207 1187.69 631.129 1175.5 625.565 1166.35 620.172 1160.25 614.949 1154.16 609.727 1149.64 603.735 1146.69 596.972 1143.75 590.209 1142.28 582.205 1142.28 572.959 1142.28 555.667 1148.55 542.184 1161.08 532.51 1173.62 522.837 1190.85 518 1212.77 518Z" fill="#EF5181" fill-rule="evenodd"/><path d="M1060.97 535 1062.26 535.88C1074.09 546.239 1080 560.964 1080 580.056 1080 601.031 1073.85 617.233 1061.55 628.663 1055.41 634.377 1047.96 638.663 1039.23 641.521L1028.38 644 1026.47 635.67C1025.49 628.794 1025 621.471 1025 613.702 1025 606.125 1025.54 598.968 1026.61 592.232L1026.96 590.847 1027.26 590.394 1027.6 588.342 1031.45 573.282C1035.74 561.489 1042.19 551.375 1050.79 542.943Z" fill="#6A4079" fill-rule="evenodd"/><path d="M1141 653.644C1150.63 658.581 1160.64 662.432 1171.04 665.199 1176.24 666.582 1181.23 667.619 1186 668.311L1188 668.463 1188 699.096C1182.52 700.969 1176.91 702.607 1171.17 704.012L1161.17 706 1154.42 704.123C1150.03 702.602 1145.56 700.756 1141 698.585ZM1147.59 598.489 1188 598.489 1188 631.073 1187.66 630.918C1175.47 625.386 1166.33 620.023 1160.24 614.831 1157.19 612.235 1154.54 609.448 1152.28 606.469ZM1172.82 526 1184.17 530.183 1168.19 569.762C1161.45 566.443 1154.39 563.953 1147 562.293L1143.38 561.697 1143.45 560.897C1145.8 549.422 1151.67 540.078 1161.07 532.864 1164.2 530.46 1167.63 528.356 1171.34 526.552Z" fill="#6A4079" fill-rule="evenodd"/></g></svg>