<svg width="395" height="146" xmlns="http://www.w3.org/2000/svg" xmlns:xlink="http://www.w3.org/1999/xlink" overflow="hidden"><defs><clipPath id="clip0"><rect x="262" y="93" width="395" height="146"/></clipPath></defs><g clip-path="url(#clip0)" transform="translate(-262 -93)"><path d="M398.072 148.003 452.826 151.971 452.681 153.966 397.928 149.997ZM445.466 148.173 455.347 153.157 444.851 156.663C444.327 156.839 443.76 156.556 443.585 156.032 443.41 155.508 443.693 154.942 444.217 154.767L452.437 152.02 452.303 153.862 444.565 149.959C444.072 149.71 443.874 149.109 444.123 148.615 444.372 148.122 444.973 147.924 445.466 148.173Z" fill="#EF5181"/><path d="M386 149C386 144.029 390.029 140 395 140 399.971 140 404 144.029 404 149 404 153.971 399.971 158 395 158 390.029 158 386 153.971 386 149Z" fill="#FFFFFF" fill-rule="evenodd"/><path d="M384.995 149 385.202 146.992 385.772 145.069 387.905 141.905 391.069 139.772 392.992 139.202 395 138.995 397.008 139.202 398.931 139.772 402.095 141.905 404.255 145.109 405.019 149 404.255 152.891 402.095 156.095 398.891 158.255 395 159.019 391.109 158.255 387.905 156.095 385.772 152.931 385.202 151.008ZM387.182 150.71 387.146 150.528 387.646 152.216 387.517 151.941 389.454 154.816 389.184 154.546 392.059 156.483 391.693 156.331 395.193 157.019 394.807 157.019 398.307 156.331 397.941 156.483 400.816 154.546 400.546 154.816 402.483 151.941 402.331 152.307 403.019 148.807 403.019 149.193 402.331 145.693 402.483 146.059 400.546 143.184 400.816 143.454 397.941 141.517 398.216 141.646 396.528 141.146 396.71 141.182 394.897 140.995 395.103 140.995 393.29 141.182 393.472 141.146 391.784 141.646 392.059 141.517 389.184 143.454 389.454 143.184 387.517 146.059 387.646 145.784 387.146 147.472 387.182 147.29 386.995 149.103 386.995 148.897Z" fill="#EF5181"/><path d="M418.265 120.036 480.536 137.164 480.006 139.092 417.735 121.964ZM474.057 132.004 482.778 138.818 471.8 140.212C471.252 140.282 470.751 139.894 470.681 139.346 470.612 138.798 471 138.298 471.547 138.228L480.145 137.136 479.655 138.916 472.826 133.58C472.391 133.24 472.314 132.612 472.654 132.177 472.994 131.742 473.622 131.664 474.057 132.004Z" fill="#EF5181"/><path d="M0.130178-0.991491 71.6146 8.39405 71.3542 10.377-0.130178 0.991491ZM64.4878 4.17398 74.0621 9.72399 63.3796 12.6144C62.8465 12.7586 62.2974 12.4434 62.1531 11.9102 62.0089 11.3771 62.3241 10.828 62.8572 10.6838L71.2231 8.42024 70.9828 10.2507 63.4848 5.90429C63.007 5.62731 62.8442 5.01544 63.1211 4.53763 63.3981 4.05981 64.01 3.897 64.4878 4.17398Z" fill="#EF5181" transform="matrix(1 0 0 -1 396 207.724)"/><path d="M0.0830451-0.996546 44.9972 2.74628 44.8311 4.73937-0.0830451 0.996546ZM37.6785-1.13131 47.5051 3.95874 36.9715 7.35211C36.4458 7.52146 35.8824 7.23259 35.7131 6.70691 35.5437 6.18123 35.8326 5.6178 36.3583 5.44845L44.6074 2.79099 44.4541 4.63077 36.7586 0.64459C36.2682 0.39057 36.0766-0.212902 36.3306-0.703302 36.5846-1.1937 37.1881-1.38533 37.6785-1.13131Z" fill="#EF5181" transform="matrix(1 0 0 -1 433 179.959)"/><path d="M409 121C409 116.029 413.029 112 418 112 422.971 112 427 116.029 427 121 427 125.971 422.971 130 418 130 413.029 130 409 125.971 409 121Z" fill="#FFFFFF" fill-rule="evenodd"/><path d="M407.995 121 408.202 118.992 408.772 117.069 410.905 113.905 414.069 111.772 415.992 111.202 418 110.995 420.008 111.202 421.931 111.772 425.095 113.905 427.255 117.109 428.019 121 427.255 124.891 425.095 128.095 421.891 130.255 418 131.019 414.109 130.255 410.905 128.095 408.772 124.931 408.202 123.008ZM410.182 122.71 410.146 122.528 410.646 124.216 410.517 123.941 412.454 126.816 412.184 126.546 415.059 128.483 414.693 128.331 418.193 129.019 417.807 129.019 421.307 128.331 420.941 128.483 423.816 126.546 423.546 126.816 425.483 123.941 425.331 124.307 426.019 120.807 426.019 121.193 425.331 117.693 425.483 118.059 423.546 115.184 423.816 115.454 420.941 113.517 421.216 113.646 419.528 113.146 419.71 113.182 417.897 112.995 418.103 112.995 416.29 113.182 416.472 113.146 414.784 113.646 415.059 113.517 412.184 115.454 412.454 115.184 410.517 118.059 410.646 117.784 410.146 119.472 410.182 119.29 409.995 121.103 409.995 120.897Z" fill="#EF5181"/><path d="M423 180C423 175.029 427.029 171 432 171 436.971 171 441 175.029 441 180 441 184.971 436.971 189 432 189 427.029 189 423 184.971 423 180Z" fill="#FFFFFF" fill-rule="evenodd"/><path d="M421.995 180 422.202 177.992 422.772 176.069 424.905 172.905 428.069 170.772 429.992 170.202 432 169.995 434.008 170.202 435.931 170.772 439.095 172.905 441.255 176.109 442.019 180 441.255 183.891 439.095 187.095 435.891 189.255 432 190.019 428.109 189.255 424.905 187.095 422.772 183.931 422.202 182.008ZM424.182 181.71 424.146 181.528 424.646 183.216 424.517 182.941 426.454 185.816 426.184 185.546 429.059 187.483 428.693 187.331 432.193 188.019 431.807 188.019 435.307 187.331 434.941 187.483 437.816 185.546 437.546 185.816 439.483 182.941 439.331 183.307 440.019 179.807 440.019 180.193 439.331 176.693 439.483 177.059 437.546 174.184 437.816 174.454 434.941 172.517 435.216 172.646 433.528 172.146 433.71 172.182 431.897 171.995 432.103 171.995 430.29 172.182 430.472 172.146 428.784 172.646 429.059 172.517 426.184 174.454 426.454 174.184 424.517 177.059 424.646 176.784 424.146 178.472 424.182 178.29 423.995 180.103 423.995 179.897Z" fill="#EF5181"/><path d="M388 207.5C388 202.806 391.806 199 396.5 199 401.194 199 405 202.806 405 207.5 405 212.194 401.194 216 396.5 216 391.806 216 388 212.194 388 207.5Z" fill="#FFFFFF" fill-rule="evenodd"/><path d="M386.979 207.5 387.748 203.792 389.78 200.78 392.792 198.748 396.5 197.979 400.203 198.747 403.287 200.78 405.253 203.8 406.021 207.5 405.254 211.195 403.287 214.287 400.195 216.254 396.5 217.021 392.8 216.253 389.78 214.287 387.747 211.203ZM389.667 210.609 389.522 210.262 391.335 213.012 391.046 212.725 393.733 214.475 393.391 214.333 396.703 215.021 396.297 215.021 399.609 214.333 399.276 214.469 402.026 212.719 401.719 213.026 403.469 210.276 403.333 210.609 404.021 207.297 404.021 207.703 403.333 204.391 403.474 204.733 401.724 202.046 402.012 202.335 399.262 200.522 399.609 200.667 396.297 199.979 396.703 199.979 393.391 200.667 393.747 200.517 391.059 202.329 391.329 202.059 389.517 204.747 389.667 204.391 388.979 207.703 388.979 207.297Z" fill="#EF5181"/><path d="M0.115314-0.993329 56.1874 5.51599 55.9568 7.50265-0.115314 0.993329ZM48.9983 1.40314 58.6547 6.80913 48.0166 9.85917C47.4857 10.0114 46.932 9.7044 46.7798 9.17351 46.6275 8.64261 46.9345 8.08884 47.4654 7.93663L55.7964 5.54805 55.5835 7.38188 48.0213 3.14827C47.5394 2.87849 47.3674 2.26912 47.6372 1.78721 47.907 1.30531 48.5164 1.13335 48.9983 1.40314Z" fill="#EF5181" transform="matrix(1 0 0 -1 344 176.809)"/><path d="M335 175.5C335 170.806 339.029 167 344 167 348.971 167 353 170.806 353 175.5 353 180.194 348.971 184 344 184 339.029 184 335 180.194 335 175.5Z" fill="#FFFFFF" fill-rule="evenodd"/><path d="M333.994 175.498 334.204 173.608 334.78 171.736 336.927 168.758 340.124 166.742 344 165.981 347.876 166.742 351.073 168.758 353.248 171.776 354.021 175.5 353.249 179.219 351.073 182.309 347.868 184.259 344 185.019 340.132 184.259 336.927 182.309 334.782 179.263 334.204 177.458ZM336.182 177.143 336.14 176.945 336.64 178.508 336.505 178.237 338.442 180.987 338.145 180.708 341.02 182.458 340.693 182.331 344.193 183.019 343.807 183.019 347.307 182.331 346.98 182.458 349.855 180.708 349.558 180.987 351.495 178.237 351.333 178.609 352.021 175.297 352.021 175.703 351.333 172.391 351.501 172.772 349.564 170.085 349.842 170.346 346.967 168.533 347.307 168.669 343.807 167.981 344.193 167.981 340.693 168.669 341.033 168.533 338.158 170.346 338.436 170.085 336.499 172.772 336.643 172.482 336.143 174.107 336.181 173.923 335.994 175.61 335.994 175.393Z" fill="#EF5181"/><path d="M353.277 115.039 400.618 128.687 400.064 130.609 352.723 116.961ZM394.202 123.449 402.839 130.369 391.844 131.629C391.295 131.691 390.8 131.298 390.737 130.749 390.674 130.2 391.068 129.704 391.616 129.642L400.227 128.655 399.715 130.429 392.952 125.01C392.521 124.664 392.451 124.035 392.797 123.604 393.142 123.173 393.771 123.104 394.202 123.449Z" fill="#EF5181"/><path d="M345 116.5C345 111.806 349.029 108 354 108 358.971 108 363 111.806 363 116.5 363 121.194 358.971 125 354 125 349.029 125 345 121.194 345 116.5Z" fill="#FFFFFF" fill-rule="evenodd"/><path d="M343.994 116.498 344.204 114.608 344.78 112.736 346.927 109.758 350.124 107.742 354 106.981 357.876 107.742 361.073 109.758 363.248 112.776 364.021 116.5 363.249 120.219 361.073 123.309 357.868 125.259 354 126.019 350.132 125.259 346.927 123.309 344.782 120.263 344.204 118.458ZM346.182 118.143 346.14 117.945 346.64 119.508 346.505 119.237 348.442 121.987 348.145 121.708 351.02 123.458 350.693 123.331 354.193 124.019 353.807 124.019 357.307 123.331 356.98 123.458 359.855 121.708 359.558 121.987 361.495 119.237 361.333 119.609 362.021 116.297 362.021 116.703 361.333 113.391 361.501 113.772 359.564 111.085 359.842 111.346 356.967 109.533 357.307 109.669 353.807 108.981 354.193 108.981 350.693 109.669 351.033 109.533 348.158 111.346 348.436 111.085 346.499 113.772 346.643 113.482 346.143 115.107 346.181 114.923 345.994 116.61 345.994 116.393Z" fill="#EF5181"/><path d="M300.128 139.008 350.356 145.477 350.1 147.46 299.872 140.992ZM343.218 141.274 352.807 146.801 342.131 149.717C341.598 149.863 341.048 149.549 340.903 149.016 340.757 148.483 341.071 147.934 341.604 147.788L349.964 145.504 349.728 147.335 342.22 143.007C341.741 142.731 341.577 142.12 341.853 141.641 342.128 141.163 342.74 140.998 343.218 141.274Z" fill="#EF5181"/><path d="M292 139.5C292 134.806 295.806 131 300.5 131 305.194 131 309 134.806 309 139.5 309 144.194 305.194 148 300.5 148 295.806 148 292 144.194 292 139.5Z" fill="#FFFFFF" fill-rule="evenodd"/><path d="M290.979 139.5 291.748 135.792 293.78 132.78 296.792 130.748 300.5 129.979 304.203 130.747 307.287 132.78 309.253 135.8 310.021 139.5 309.254 143.195 307.287 146.287 304.195 148.254 300.5 149.021 296.8 148.253 293.78 146.287 291.747 143.203ZM293.667 142.609 293.522 142.262 295.335 145.012 295.046 144.725 297.733 146.475 297.391 146.333 300.703 147.021 300.297 147.021 303.609 146.333 303.276 146.469 306.026 144.719 305.719 145.026 307.469 142.276 307.333 142.609 308.021 139.297 308.021 139.703 307.333 136.391 307.474 136.733 305.724 134.046 306.012 134.335 303.262 132.522 303.609 132.667 300.297 131.979 300.703 131.979 297.391 132.667 297.747 132.517 295.059 134.329 295.329 134.059 293.517 136.747 293.667 136.391 292.979 139.703 292.979 139.297Z" fill="#EF5181"/><path d="M0.17677-0.984252 80.4629 13.435 80.1093 15.4035-0.17677 0.984252ZM73.5431 8.8837 82.8452 14.8788 72.0383 17.2625C71.499 17.3814 70.9654 17.0406 70.8464 16.5013 70.7275 15.962 71.0682 15.4284 71.6076 15.3094L80.0708 13.4427 79.7445 15.2598 72.4597 10.5648C71.9955 10.2656 71.8617 9.64674 72.1609 9.18252 72.46 8.71829 73.0789 8.58451 73.5431 8.8837Z" fill="#EF5181" transform="matrix(1 0 0 -1 291 207.879)"/><path d="M282 207.5C282 202.806 286.029 199 291 199 295.971 199 300 202.806 300 207.5 300 212.194 295.971 216 291 216 286.029 216 282 212.194 282 207.5Z" fill="#FFFFFF" fill-rule="evenodd"/><path d="M280.994 207.498 281.204 205.608 281.78 203.736 283.927 200.758 287.124 198.742 291 197.981 294.876 198.742 298.073 200.758 300.248 203.776 301.021 207.5 300.249 211.219 298.073 214.309 294.868 216.259 291 217.019 287.132 216.259 283.927 214.309 281.782 211.263 281.204 209.458ZM283.182 209.143 283.14 208.945 283.64 210.508 283.505 210.237 285.442 212.987 285.145 212.708 288.02 214.458 287.693 214.331 291.193 215.019 290.807 215.019 294.307 214.331 293.98 214.458 296.855 212.708 296.558 212.987 298.495 210.237 298.333 210.609 299.021 207.297 299.021 207.703 298.333 204.391 298.501 204.772 296.564 202.085 296.842 202.346 293.967 200.533 294.307 200.669 290.807 199.981 291.193 199.981 287.693 200.669 288.033 200.533 285.158 202.346 285.436 202.085 283.499 204.772 283.643 204.482 283.143 206.107 283.181 205.923 282.994 207.61 282.994 207.393Z" fill="#EF5181"/><path d="M496.684 122 509.55 122C510.48 122 511.234 122.76 511.234 123.698L511.234 131.928 517.141 133.417 517.141 128.494C517.141 127.122 518.244 126.01 519.604 126.01L616.537 126.01C617.897 126.01 619 127.122 619 128.494L619 205.506C619 206.878 617.897 207.99 616.537 207.99L519.604 207.99C518.244 207.99 517.141 206.878 517.141 205.506L517.141 200.583 511.234 202.072 511.234 210.302C511.234 211.24 510.48 212 509.55 212L496.684 212C495.754 212 495 211.24 495 210.302L495 123.698C495 122.76 495.754 122 496.684 122Z" fill="#FFFFFF" fill-rule="evenodd"/><path d="M496.486 121 509.764 121 511.523 121.741 512.25 123.557 512.25 131.938 511.495 130.968 517.432 132.468 516.188 133.438 516.188 128.401 516.43 127.191 517.148 126.023 518.316 125.305 519.526 125.062 616.661 125.062 617.872 125.305 619.039 126.023 619.758 127.191 620 128.401 620 205.662 619.758 206.872 619.039 208.039 617.872 208.758 616.661 209 519.526 209 518.316 208.758 517.148 208.039 516.43 206.872 516.188 205.662 516.188 200.625 517.432 201.595 511.495 203.095 512.25 202.125 512.25 210.514 511.514 212.264 509.764 213 496.486 213 494.736 212.264 494 210.514 494 123.557 494.727 121.741ZM495.888 123.422 496.428 122.871 495.928 124.121 496 123.75 496 210.312 495.922 209.924 496.422 211.112 495.888 210.578 497.076 211.078 496.688 211 509.562 211 509.174 211.078 510.362 210.578 509.828 211.112 510.328 209.924 510.25 210.312 510.25 201.346 518.188 199.341 518.188 205.562 518.168 205.366 518.356 206.304 518.227 205.976 518.727 206.788 518.399 206.461 519.212 206.961 518.884 206.832 519.821 207.019 519.625 207 616.562 207 616.366 207.019 617.304 206.832 616.976 206.961 617.788 206.461 617.461 206.788 617.961 205.976 617.832 206.304 618.019 205.366 618 205.562 618 128.5 618.019 128.696 617.832 127.759 617.961 128.087 617.461 127.274 617.788 127.602 616.976 127.102 617.304 127.231 616.366 127.043 616.562 127.062 519.625 127.062 519.821 127.043 518.884 127.231 519.212 127.102 518.399 127.602 518.727 127.274 518.227 128.087 518.356 127.759 518.168 128.696 518.188 128.5 518.188 134.722 510.25 132.716 510.25 123.75 510.322 124.121 509.822 122.871 510.362 123.422 509.174 122.922 509.562 123 496.688 123 497.076 122.922Z" fill="#EF5181"/></g></svg>