<svg width="395" height="146" xmlns="http://www.w3.org/2000/svg" xmlns:xlink="http://www.w3.org/1999/xlink" overflow="hidden"><defs><clipPath id="clip0"><rect x="-273" y="93" width="395" height="146"/></clipPath></defs><g clip-path="url(#clip0)" transform="translate(273 -93)"><path d="M-130.928 149.003-82.1325 152.539-82.2771 154.534-131.072 150.997ZM-89.4925 148.741-79.6115 153.725-90.1079 157.232C-90.6317 157.407-91.1983 157.124-91.3733 156.6-91.5483 156.076-91.2655 155.51-90.7417 155.335L-82.5216 152.588-82.6551 154.43-90.3932 150.527C-90.8863 150.278-91.0844 149.677-90.8357 149.184-90.587 148.69-89.9856 148.492-89.4925 148.741Z"/><path d="M-149 149C-149 144.029-144.971 140-140 140-135.029 140-131 144.029-131 149-131 153.971-135.029 158-140 158-144.971 158-149 153.971-149 149Z" fill="#FFFFFF" fill-rule="evenodd"/><path d="M-150.005 149-149.798 146.992-149.228 145.069-147.095 141.905-143.931 139.772-142.008 139.202-140 138.995-137.992 139.202-136.069 139.772-132.905 141.905-130.745 145.109-129.981 149-130.745 152.891-132.905 156.095-136.109 158.255-140 159.019-143.891 158.255-147.095 156.095-149.228 152.931-149.798 151.008ZM-147.818 150.71-147.854 150.528-147.354 152.216-147.483 151.941-145.546 154.816-145.816 154.546-142.941 156.483-143.307 156.331-139.807 157.019-140.193 157.019-136.693 156.331-137.059 156.483-134.184 154.546-134.454 154.816-132.517 151.941-132.669 152.307-131.981 148.807-131.981 149.193-132.669 145.693-132.517 146.059-134.454 143.184-134.184 143.454-137.059 141.517-136.784 141.646-138.472 141.146-138.29 141.182-140.103 140.995-139.897 140.995-141.71 141.182-141.528 141.146-143.216 141.646-142.941 141.517-145.816 143.454-145.546 143.184-147.483 146.059-147.354 145.784-147.854 147.472-147.818 147.29-148.005 149.103-148.005 148.897Z"/><path d="M-107.735 122.036-53.8018 136.87-54.3322 138.799-108.265 123.964ZM-60.2809 131.711-51.5601 138.524-62.5385 139.919C-63.0864 139.989-63.587 139.601-63.6566 139.053-63.7262 138.505-63.3385 138.004-62.7906 137.935L-54.193 136.843-54.6827 138.623-61.5122 133.287C-61.9474 132.947-62.0246 132.318-61.6845 131.883-61.3445 131.448-60.7161 131.371-60.2809 131.711Z"/><path d="M0.130176-0.991491 62.9799 7.26027 62.7195 9.24325-0.130176 0.991491ZM55.8533 3.04024 65.4277 8.59024 54.7452 11.4806C54.2121 11.6249 53.6629 11.3096 53.5187 10.7765 53.3745 10.2434 53.6897 9.69429 54.2228 9.55005L62.5887 7.28649 62.3483 9.11693 54.8503 4.77055C54.3725 4.49358 54.2097 3.88171 54.4867 3.40389 54.7636 2.92608 55.3755 2.76327 55.8533 3.04024Z" transform="matrix(1 0 0 -1 -130 206.59)"/><path d="M0.0830435-0.996546 37.2838 2.10345 37.1178 4.09654-0.0830435 0.996546ZM29.9652-1.77413 39.7918 3.31591 29.2582 6.70929C28.7326 6.87864 28.1691 6.58977 27.9998 6.06409 27.8304 5.53841 28.1193 4.97498 28.645 4.80563L36.8942 2.14816 36.7408 3.98794 29.0453 0.00177196C28.5549-0.252247 28.3633-0.855719 28.6173-1.34612 28.8713-1.83652 29.4748-2.02814 29.9652-1.77413Z" transform="matrix(1 0 0 -1 -94 179.316)"/><path d="M-126 121C-126 116.029-121.971 112-117 112-112.029 112-108 116.029-108 121-108 125.971-112.029 130-117 130-121.971 130-126 125.971-126 121Z" fill="#FFFFFF" fill-rule="evenodd"/><path d="M-127.005 121-126.798 118.992-126.228 117.069-124.095 113.905-120.931 111.772-119.008 111.202-117 110.995-114.992 111.202-113.069 111.772-109.905 113.905-107.745 117.109-106.981 121-107.745 124.891-109.905 128.095-113.109 130.255-117 131.019-120.891 130.255-124.095 128.095-126.228 124.931-126.798 123.008ZM-124.818 122.71-124.854 122.528-124.354 124.216-124.483 123.941-122.546 126.816-122.816 126.546-119.941 128.483-120.307 128.331-116.807 129.019-117.193 129.019-113.693 128.331-114.059 128.483-111.184 126.546-111.454 126.816-109.517 123.941-109.669 124.307-108.981 120.807-108.981 121.193-109.669 117.693-109.517 118.059-111.454 115.184-111.184 115.454-114.059 113.517-113.784 113.646-115.472 113.146-115.29 113.182-117.103 112.995-116.897 112.995-118.71 113.182-118.528 113.146-120.216 113.646-119.941 113.517-122.816 115.454-122.546 115.184-124.483 118.059-124.354 117.784-124.854 119.472-124.818 119.29-125.005 121.103-125.005 120.897Z"/><path d="M-112 180C-112 175.029-107.971 171-103 171-98.0294 171-94 175.029-94 180-94 184.971-98.0294 189-103 189-107.971 189-112 184.971-112 180Z" fill="#FFFFFF" fill-rule="evenodd"/><path d="M-113.005 180-112.798 177.992-112.228 176.069-110.095 172.905-106.931 170.772-105.008 170.202-103 169.995-100.992 170.202-99.0686 170.772-95.9046 172.905-93.7452 176.109-92.9809 180-93.7452 183.891-95.9046 187.095-99.1088 189.255-103 190.019-106.891 189.255-110.095 187.095-112.228 183.931-112.798 182.008ZM-110.818 181.71-110.854 181.528-110.354 183.216-110.483 182.941-108.546 185.816-108.816 185.546-105.941 187.483-106.307 187.331-102.807 188.019-103.193 188.019-99.6927 187.331-100.059 187.483-97.1839 185.546-97.4543 185.816-95.5168 182.941-95.6687 183.307-94.9812 179.807-94.9812 180.193-95.6687 176.693-95.5168 177.059-97.4543 174.184-97.1839 174.454-100.059 172.517-99.7841 172.646-101.472 172.146-101.29 172.182-103.103 171.995-102.897 171.995-104.71 172.182-104.528 172.146-106.216 172.646-105.941 172.517-108.816 174.454-108.546 174.184-110.483 177.059-110.354 176.784-110.854 178.472-110.818 178.29-111.005 180.103-111.005 179.897Z"/><path d="M-147 207.5C-147 202.806-143.194 199-138.5 199-133.806 199-130 202.806-130 207.5-130 212.194-133.806 216-138.5 216-143.194 216-147 212.194-147 207.5Z" fill="#FFFFFF" fill-rule="evenodd"/><path d="M-148.021 207.5-147.252 203.792-145.22 200.78-142.208 198.748-138.5 197.979-134.797 198.747-131.713 200.78-129.747 203.8-128.979 207.5-129.746 211.195-131.713 214.287-134.805 216.254-138.5 217.021-142.2 216.253-145.22 214.287-147.253 211.203ZM-145.333 210.609-145.478 210.262-143.665 213.012-143.954 212.725-141.267 214.475-141.609 214.333-138.297 215.021-138.703 215.021-135.391 214.333-135.724 214.469-132.974 212.719-133.281 213.026-131.531 210.276-131.667 210.609-130.979 207.297-130.979 207.703-131.667 204.391-131.525 204.733-133.275 202.046-132.988 202.335-135.738 200.522-135.391 200.667-138.703 199.979-138.297 199.979-141.609 200.667-141.253 200.517-143.941 202.329-143.671 202.059-145.483 204.747-145.333 204.391-146.021 207.703-146.021 207.297Z"/><path d="M0.115312-0.993329 47.9387 4.55831 47.708 6.54497-0.115312 0.993329ZM40.7496 0.445471 50.406 5.85144 39.7679 8.9015C39.237 9.05372 38.6833 8.74674 38.531 8.21584 38.3788 7.68495 38.6858 7.13118 39.2167 6.97897L47.5477 4.59036 47.3348 6.4242 39.7726 2.19061C39.2907 1.92082 39.1187 1.31145 39.3885 0.829548 39.6583 0.347642 40.2677 0.175685 40.7496 0.445471Z" transform="matrix(1 0 0 -1 -182 175.851)"/><path d="M-200 175.5C-200 170.806-195.971 167-191 167-186.029 167-182 170.806-182 175.5-182 180.194-186.029 184-191 184-195.971 184-200 180.194-200 175.5Z" fill="#FFFFFF" fill-rule="evenodd"/><path d="M-201.006 175.498-200.796 173.608-200.22 171.736-198.073 168.758-194.876 166.742-191 165.981-187.124 166.742-183.927 168.758-181.752 171.776-180.979 175.5-181.751 179.219-183.927 182.309-187.132 184.259-191 185.019-194.868 184.259-198.073 182.309-200.218 179.263-200.796 177.458ZM-198.818 177.143-198.86 176.945-198.36 178.508-198.495 178.237-196.558 180.987-196.855 180.708-193.98 182.458-194.307 182.331-190.807 183.019-191.193 183.019-187.693 182.331-188.02 182.458-185.145 180.708-185.442 180.987-183.505 178.237-183.667 178.609-182.979 175.297-182.979 175.703-183.667 172.391-183.499 172.772-185.436 170.085-185.158 170.346-188.033 168.533-187.693 168.669-191.193 167.981-190.807 167.981-194.307 168.669-193.967 168.533-196.842 170.346-196.564 170.085-198.501 172.772-198.357 172.482-198.857 174.107-198.819 173.923-199.006 175.61-199.006 175.393Z"/><path d="M-171.723 118.039-133.559 129.042-134.113 130.964-172.277 119.961ZM-139.974 123.803-131.337 130.723-142.332 131.983C-142.881 132.046-143.377 131.652-143.439 131.103-143.502 130.555-143.109 130.059-142.56 129.996L-133.95 129.009-134.461 130.783-141.224 125.364C-141.655 125.019-141.725 124.39-141.38 123.959-141.034 123.527-140.405 123.458-139.974 123.803Z"/><path d="M-190 116.5C-190 111.806-185.971 108-181 108-176.029 108-172 111.806-172 116.5-172 121.194-176.029 125-181 125-185.971 125-190 121.194-190 116.5Z" fill="#FFFFFF" fill-rule="evenodd"/><path d="M-191.006 116.498-190.796 114.608-190.22 112.736-188.073 109.758-184.876 107.742-181 106.981-177.124 107.742-173.927 109.758-171.752 112.776-170.979 116.5-171.751 120.219-173.927 123.309-177.132 125.259-181 126.019-184.868 125.259-188.073 123.309-190.218 120.263-190.796 118.458ZM-188.818 118.143-188.86 117.945-188.36 119.508-188.495 119.237-186.558 121.987-186.855 121.708-183.98 123.458-184.307 123.331-180.807 124.019-181.193 124.019-177.693 123.331-178.02 123.458-175.145 121.708-175.442 121.987-173.505 119.237-173.667 119.609-172.979 116.297-172.979 116.703-173.667 113.391-173.499 113.772-175.436 111.085-175.158 111.346-178.033 109.533-177.693 109.669-181.193 108.981-180.807 108.981-184.307 109.669-183.967 109.533-186.842 111.346-186.564 111.085-188.501 113.772-188.357 113.482-188.857 115.107-188.819 114.923-189.006 116.61-189.006 116.393Z"/><path d="M-225.872 140.008-184.427 145.346-184.682 147.329-226.128 141.992ZM-191.564 141.143-181.976 146.669-192.651 149.586C-193.184 149.732-193.734 149.418-193.88 148.885-194.025 148.352-193.711 147.803-193.179 147.657L-184.818 145.373-185.054 147.204-192.563 142.876C-193.041 142.6-193.206 141.989-192.93 141.51-192.654 141.032-192.043 140.867-191.564 141.143Z"/><path d="M-243 139.5C-243 134.806-239.194 131-234.5 131-229.806 131-226 134.806-226 139.5-226 144.194-229.806 148-234.5 148-239.194 148-243 144.194-243 139.5Z" fill="#FFFFFF" fill-rule="evenodd"/><path d="M-244.021 139.5-243.252 135.792-241.22 132.78-238.208 130.748-234.5 129.979-230.797 130.747-227.713 132.78-225.747 135.8-224.979 139.5-225.746 143.195-227.713 146.287-230.805 148.254-234.5 149.021-238.2 148.253-241.22 146.287-243.253 143.203ZM-241.333 142.609-241.478 142.262-239.665 145.012-239.954 144.725-237.267 146.475-237.609 146.333-234.297 147.021-234.703 147.021-231.391 146.333-231.724 146.469-228.974 144.719-229.281 145.026-227.531 142.276-227.667 142.609-226.979 139.297-226.979 139.703-227.667 136.391-227.525 136.733-229.275 134.046-228.988 134.335-231.738 132.522-231.391 132.667-234.703 131.979-234.297 131.979-237.609 132.667-237.253 132.517-239.941 134.329-239.671 134.059-241.483 136.747-241.333 136.391-242.021 139.703-242.021 139.297Z"/><path d="M0.176769-0.984252 71.7583 11.8716 71.4048 13.8401-0.176769 0.984252ZM64.8387 7.32034 74.1408 13.3155 63.3339 15.6991C62.7945 15.8181 62.2609 15.4773 62.142 14.938 62.023 14.3986 62.3638 13.865 62.9031 13.746L71.3663 11.8794 71.04 13.6964 63.7552 9.00144C63.291 8.70226 63.1572 8.08339 63.4564 7.61916 63.7556 7.15494 64.3744 7.02115 64.8387 7.32034Z" transform="matrix(1 0 0 -1 -235 206.315)"/><path d="M-253 207.5C-253 202.806-248.971 199-244 199-239.029 199-235 202.806-235 207.5-235 212.194-239.029 216-244 216-248.971 216-253 212.194-253 207.5Z" fill="#FFFFFF" fill-rule="evenodd"/><path d="M-254.006 207.498-253.796 205.608-253.22 203.736-251.073 200.758-247.876 198.742-244 197.981-240.124 198.742-236.927 200.758-234.752 203.776-233.979 207.5-234.751 211.219-236.927 214.309-240.132 216.259-244 217.019-247.868 216.259-251.073 214.309-253.218 211.263-253.796 209.458ZM-251.818 209.143-251.86 208.945-251.36 210.508-251.495 210.237-249.558 212.987-249.855 212.708-246.98 214.458-247.307 214.331-243.807 215.019-244.193 215.019-240.693 214.331-241.02 214.458-238.145 212.708-238.442 212.987-236.505 210.237-236.667 210.609-235.979 207.297-235.979 207.703-236.667 204.391-236.499 204.772-238.436 202.085-238.158 202.346-241.033 200.533-240.693 200.669-244.193 199.981-243.807 199.981-247.307 200.669-246.967 200.533-249.842 202.346-249.564 202.085-251.501 204.772-251.357 204.482-251.857 206.107-251.819 205.923-252.006 207.61-252.006 207.393Z"/><path d="M-38.3161 122-25.4501 122C-24.5201 122-23.7662 122.76-23.7662 123.698L-23.7662 131.928-17.859 133.417-17.859 128.494C-17.859 127.122-16.7561 126.01-15.3955 126.01L81.5366 126.01C82.8971 126.01 84 127.122 84 128.494L84 205.506C84 206.878 82.8971 207.99 81.5366 207.99L-15.3955 207.99C-16.7561 207.99-17.859 206.878-17.859 205.506L-17.859 200.583-23.7662 202.072-23.7662 210.302C-23.7662 211.24-24.5201 212-25.4501 212L-38.3161 212C-39.2461 212-40 211.24-40 210.302L-40 123.698C-40 122.76-39.2461 122-38.3161 122Z" fill="#FFFFFF" fill-rule="evenodd"/><path d="M-38.5144 121-25.2356 121-23.4767 121.741-22.75 123.557-22.75 131.938-23.5051 130.968-17.5676 132.468-18.8125 133.438-18.8125 128.401-18.5705 127.191-17.8519 126.023-16.6841 125.305-15.474 125.062 81.6615 125.062 82.8717 125.305 84.0394 126.023 84.758 127.191 85 128.401 85 205.662 84.758 206.872 84.0394 208.039 82.8717 208.758 81.6615 209-15.474 209-16.6841 208.758-17.8519 208.039-18.5705 206.872-18.8125 205.662-18.8125 200.625-17.5676 201.595-23.5051 203.095-22.75 202.125-22.75 210.514-23.4865 212.264-25.2356 213-38.5144 213-40.2635 212.264-41 210.514-41 123.557-40.2733 121.741ZM-39.1119 123.422-38.5715 122.871-39.0715 124.121-39 123.75-39 210.312-39.0784 209.924-38.5784 211.112-39.1119 210.578-37.9244 211.078-38.3125 211-25.4375 211-25.8256 211.078-24.6381 210.578-25.1716 211.112-24.6716 209.924-24.75 210.312-24.75 201.346-16.8125 199.341-16.8125 205.562-16.8319 205.366-16.6444 206.304-16.7733 205.976-16.2733 206.788-16.6009 206.461-15.7884 206.961-16.1164 206.832-15.1789 207.019-15.375 207 81.5625 207 81.3664 207.019 82.3039 206.832 81.9759 206.961 82.7884 206.461 82.4608 206.788 82.9608 205.976 82.8319 206.304 83.0194 205.366 83 205.562 83 128.5 83.0194 128.696 82.8319 127.759 82.9608 128.087 82.4608 127.274 82.7884 127.602 81.9759 127.102 82.3039 127.231 81.3664 127.043 81.5625 127.062-15.375 127.062-15.1789 127.043-16.1164 127.231-15.7884 127.102-16.6009 127.602-16.2733 127.274-16.7733 128.087-16.6444 127.759-16.8319 128.696-16.8125 128.5-16.8125 134.722-24.75 132.716-24.75 123.75-24.6785 124.121-25.1785 122.871-24.6381 123.422-25.8256 122.922-25.4375 123-38.3125 123-37.9244 122.922Z"/></g></svg>