<svg width="395" height="178" xmlns="http://www.w3.org/2000/svg" xmlns:xlink="http://www.w3.org/1999/xlink" overflow="hidden"><defs><clipPath id="clip0"><rect x="262" y="61" width="395" height="178"/></clipPath></defs><g clip-path="url(#clip0)" transform="translate(-262 -61)"><path d="M398.613 148.843 465.689 160.424 465.462 161.738 398.387 150.157ZM458.617 155.873 467.284 161.376 457.273 163.655C456.914 163.737 456.557 163.512 456.475 163.153 456.393 162.794 456.618 162.437 456.977 162.355L465.428 160.431 465.218 161.644 457.902 156.998C457.591 156.801 457.499 156.389 457.697 156.078 457.894 155.767 458.306 155.675 458.617 155.873Z" fill="#EF5181"/><path d="M386.5 149.5C386.5 144.529 390.53 140.5 395.5 140.5 400.471 140.5 404.5 144.529 404.5 149.5 404.5 154.471 400.471 158.5 395.5 158.5 390.53 158.5 386.5 154.471 386.5 149.5Z" fill="#FFFFFF" fill-rule="evenodd"/><path d="M385.83 149.5 386.031 147.557 386.577 145.712 388.645 142.645 391.712 140.577 393.557 140.031 395.5 139.83 397.443 140.031 399.288 140.577 402.355 142.645 404.441 145.739 405.179 149.5 404.441 153.261 402.355 156.355 399.261 158.441 395.5 159.179 391.739 158.441 388.645 156.355 386.577 153.288 386.031 151.443ZM387.351 151.244 387.327 151.123 387.827 152.811 387.74 152.627 389.678 155.502 389.498 155.322 392.373 157.26 392.129 157.158 395.629 157.846 395.372 157.846 398.872 157.158 398.628 157.26 401.503 155.322 401.322 155.502 403.26 152.627 403.158 152.872 403.846 149.372 403.846 149.629 403.158 146.129 403.26 146.373 401.322 143.498 401.503 143.678 398.628 141.74 398.811 141.827 397.123 141.327 397.244 141.351 395.431 141.163 395.569 141.163 393.756 141.351 393.877 141.327 392.189 141.827 392.373 141.74 389.498 143.678 389.678 143.498 387.74 146.373 387.827 146.189 387.327 147.877 387.351 147.756 387.163 149.569 387.163 149.431Z" fill="#EF5181"/><path d="M418.677 120.857 481.784 138.215 481.43 139.501 418.323 122.143ZM475.188 132.997 483.278 139.318 473.093 140.612C472.728 140.658 472.394 140.399 472.348 140.034 472.301 139.669 472.56 139.335 472.925 139.289L481.523 138.197 481.196 139.383 474.367 134.048C474.077 133.821 474.025 133.402 474.252 133.112 474.479 132.822 474.898 132.77 475.188 132.997Z" fill="#EF5181"/><path d="M0.0867852-0.660994 72.4306 8.83739 72.257 10.1594-0.0867852 0.660994ZM65.1799 4.57518 74.0621 9.72399 64.1518 12.4054C63.7964 12.5016 63.4304 12.2914 63.3342 11.936 63.238 11.5806 63.4482 11.2145 63.8036 11.1184L72.1694 8.85482 72.0092 10.0751 64.5112 5.72872C64.1927 5.54407 64.0842 5.13615 64.2688 4.81761 64.4535 4.49907 64.8614 4.39053 65.1799 4.57518Z" fill="#EF5181" transform="matrix(1 0 0 -1 396.5 208.224)"/><path d="M0.0553634-0.664364 45.8332 3.15043 45.7224 4.47916-0.0553634 0.664364ZM38.3888-0.763349 47.5051 3.95874 37.733 7.10681C37.3825 7.21971 37.0069 7.02713 36.894 6.67667 36.7811 6.32622 36.9737 5.9506 37.3241 5.8377L45.5733 3.18024 45.4711 4.40676 37.7756 0.420581C37.4486 0.251235 37.3209-0.15108 37.4902-0.478013 37.6596-0.804947 38.0619-0.932696 38.3888-0.763349Z" fill="#EF5181" transform="matrix(1 0 0 -1 433.5 180.459)"/><path d="M409.5 121.5C409.5 116.529 413.53 112.5 418.5 112.5 423.471 112.5 427.5 116.529 427.5 121.5 427.5 126.471 423.471 130.5 418.5 130.5 413.53 130.5 409.5 126.471 409.5 121.5Z" fill="#FFFFFF" fill-rule="evenodd"/><path d="M408.83 121.5 409.031 119.557 409.577 117.712 411.645 114.645 414.712 112.577 416.557 112.031 418.5 111.83 420.443 112.031 422.288 112.577 425.355 114.645 427.441 117.739 428.179 121.5 427.441 125.261 425.355 128.355 422.261 130.441 418.5 131.179 414.739 130.441 411.645 128.355 409.577 125.288 409.031 123.443ZM410.351 123.244 410.327 123.123 410.827 124.811 410.74 124.627 412.678 127.502 412.498 127.322 415.373 129.26 415.129 129.158 418.629 129.846 418.372 129.846 421.872 129.158 421.628 129.26 424.503 127.322 424.322 127.502 426.26 124.627 426.158 124.872 426.846 121.372 426.846 121.629 426.158 118.129 426.26 118.373 424.322 115.498 424.503 115.678 421.628 113.74 421.811 113.827 420.123 113.327 420.244 113.351 418.431 113.163 418.569 113.163 416.756 113.351 416.877 113.327 415.189 113.827 415.373 113.74 412.498 115.678 412.678 115.498 410.74 118.373 410.827 118.189 410.327 119.877 410.351 119.756 410.163 121.569 410.163 121.431Z" fill="#EF5181"/><path d="M423.5 180.5C423.5 175.529 427.53 171.5 432.5 171.5 437.471 171.5 441.5 175.529 441.5 180.5 441.5 185.471 437.471 189.5 432.5 189.5 427.53 189.5 423.5 185.471 423.5 180.5Z" fill="#FFFFFF" fill-rule="evenodd"/><path d="M422.83 180.5 423.031 178.557 423.577 176.712 425.645 173.645 428.712 171.577 430.557 171.031 432.5 170.83 434.443 171.031 436.288 171.577 439.355 173.645 441.441 176.739 442.179 180.5 441.441 184.261 439.355 187.355 436.261 189.441 432.5 190.179 428.739 189.441 425.645 187.355 423.577 184.288 423.031 182.443ZM424.351 182.244 424.327 182.123 424.827 183.811 424.74 183.627 426.678 186.502 426.498 186.322 429.373 188.26 429.129 188.158 432.629 188.846 432.372 188.846 435.872 188.158 435.628 188.26 438.503 186.322 438.322 186.502 440.26 183.627 440.158 183.872 440.846 180.372 440.846 180.629 440.158 177.129 440.26 177.373 438.322 174.498 438.503 174.678 435.628 172.74 435.811 172.827 434.123 172.327 434.244 172.351 432.431 172.163 432.569 172.163 430.756 172.351 430.877 172.327 429.189 172.827 429.373 172.74 426.498 174.678 426.678 174.498 424.74 177.373 424.827 177.189 424.327 178.877 424.351 178.756 424.163 180.569 424.163 180.431Z" fill="#EF5181"/><path d="M388.5 208C388.5 203.306 392.306 199.5 397 199.5 401.694 199.5 405.5 203.306 405.5 208 405.5 212.694 401.694 216.5 397 216.5 392.306 216.5 388.5 212.694 388.5 208Z" fill="#FFFFFF" fill-rule="evenodd"/><path d="M387.819 208 388.561 204.424 390.52 201.52 393.424 199.561 397 198.819 400.573 199.561 403.545 201.52 405.44 204.429 406.181 208 405.441 211.568 403.545 214.545 400.568 216.441 397 217.181 393.429 216.44 390.52 214.545 388.561 211.573ZM389.84 211.177 389.744 210.946 391.557 213.696 391.364 213.504 394.051 215.254 393.823 215.16 397.136 215.847 396.865 215.847 400.177 215.16 399.955 215.25 402.705 213.5 402.5 213.705 404.25 210.955 404.16 211.177 404.847 207.865 404.847 208.136 404.16 204.823 404.254 205.051 402.504 202.364 402.696 202.557 399.946 200.744 400.177 200.84 396.865 200.153 397.136 200.153 393.823 200.84 394.06 200.74 391.373 202.553 391.553 202.373 389.74 205.06 389.84 204.823 389.153 208.136 389.153 207.865Z" fill="#EF5181"/><path d="M0.076876-0.662219 57.01 5.94705 56.8562 7.27149-0.076876 0.662219ZM49.6963 1.79393 58.6547 6.80913 48.7857 9.63869C48.4317 9.74016 48.0625 9.53551 47.9611 9.18158 47.8596 8.82765 48.0642 8.45847 48.4182 8.35699L56.7492 5.96841 56.6073 7.19097 49.045 2.95736C48.7237 2.7775 48.6091 2.37125 48.789 2.04998 48.9688 1.72871 49.3751 1.61408 49.6963 1.79393Z" fill="#EF5181" transform="matrix(1 0 0 -1 344.5 177.309)"/><path d="M335.5 176C335.5 171.306 339.53 167.5 344.5 167.5 349.471 167.5 353.5 171.306 353.5 176 353.5 180.694 349.471 184.5 344.5 184.5 339.53 184.5 335.5 180.694 335.5 176Z" fill="#FFFFFF" fill-rule="evenodd"/><path d="M334.829 175.999 335.032 174.177 335.583 172.387 337.66 169.505 340.75 167.557 344.5 166.821 348.25 167.557 351.34 169.505 353.436 172.413 354.181 176 353.437 179.583 351.34 182.56 348.245 184.444 344.5 185.179 340.755 184.444 337.66 182.56 335.584 179.613 335.032 177.889ZM336.35 177.679 336.323 177.547 336.823 179.109 336.733 178.929 338.67 181.679 338.472 181.493 341.347 183.243 341.129 183.158 344.629 183.846 344.372 183.846 347.872 183.158 347.653 183.243 350.528 181.493 350.33 181.679 352.268 178.929 352.16 179.177 352.847 175.865 352.847 176.136 352.16 172.823 352.272 173.077 350.334 170.39 350.52 170.564 347.645 168.751 347.872 168.842 344.372 168.154 344.629 168.154 341.129 168.842 341.356 168.751 338.481 170.564 338.666 170.39 336.728 173.077 336.825 172.884 336.325 174.509 336.35 174.386 336.163 176.074 336.163 175.929Z" fill="#EF5181"/><path d="M353.692 115.862 430.084 138.789 429.701 140.066 353.308 117.139ZM423.611 133.42 431.552 139.926 421.34 140.984C420.974 141.022 420.647 140.756 420.609 140.389 420.571 140.023 420.837 139.696 421.203 139.658L429.824 138.765 429.47 139.944 422.766 134.451C422.481 134.218 422.439 133.798 422.672 133.513 422.906 133.228 423.326 133.186 423.611 133.42Z" fill="#EF5181"/><path d="M345.5 117C345.5 112.306 349.53 108.5 354.5 108.5 359.471 108.5 363.5 112.306 363.5 117 363.5 121.694 359.471 125.5 354.5 125.5 349.53 125.5 345.5 121.694 345.5 117Z" fill="#FFFFFF" fill-rule="evenodd"/><path d="M344.829 116.999 345.032 115.177 345.583 113.387 347.66 110.505 350.75 108.557 354.5 107.821 358.25 108.557 361.34 110.505 363.436 113.413 364.181 117 363.437 120.583 361.34 123.56 358.245 125.444 354.5 126.179 350.755 125.444 347.66 123.56 345.584 120.613 345.032 118.889ZM346.35 118.679 346.323 118.547 346.823 120.109 346.733 119.929 348.67 122.679 348.472 122.493 351.347 124.243 351.129 124.158 354.629 124.846 354.372 124.846 357.872 124.158 357.653 124.243 360.528 122.493 360.33 122.679 362.268 119.929 362.16 120.177 362.847 116.865 362.847 117.136 362.16 113.823 362.272 114.077 360.334 111.39 360.52 111.564 357.645 109.752 357.872 109.842 354.372 109.154 354.629 109.154 351.129 109.842 351.356 109.752 348.481 111.564 348.666 111.39 346.728 114.077 346.825 113.884 346.325 115.509 346.35 115.386 346.163 117.074 346.163 116.929Z" fill="#EF5181"/><path d="M300.585 139.839 351.673 146.418 351.502 147.74 300.415 141.161ZM344.412 142.174 353.307 147.301 343.403 150.006C343.048 150.104 342.681 149.894 342.584 149.539 342.487 149.184 342.696 148.817 343.051 148.72L351.412 146.436 351.255 147.657 343.746 143.329C343.427 143.145 343.317 142.737 343.501 142.418 343.685 142.099 344.093 141.99 344.412 142.174Z" fill="#EF5181"/><path d="M292.5 140C292.5 135.306 296.306 131.5 301 131.5 305.694 131.5 309.5 135.306 309.5 140 309.5 144.694 305.694 148.5 301 148.5 296.306 148.5 292.5 144.694 292.5 140Z" fill="#FFFFFF" fill-rule="evenodd"/><path d="M291.819 140 292.561 136.424 294.52 133.52 297.424 131.561 301 130.819 304.573 131.561 307.545 133.52 309.44 136.429 310.181 140 309.441 143.568 307.545 146.545 304.568 148.441 301 149.181 297.429 148.44 294.52 146.545 292.561 143.573ZM293.84 143.177 293.744 142.946 295.557 145.696 295.364 145.504 298.051 147.254 297.823 147.16 301.136 147.847 300.865 147.847 304.177 147.16 303.955 147.25 306.705 145.5 306.5 145.705 308.25 142.955 308.16 143.177 308.847 139.865 308.847 140.136 308.16 136.823 308.254 137.051 306.504 134.364 306.696 134.557 303.946 132.744 304.177 132.84 300.865 132.153 301.136 132.153 297.823 132.84 298.06 132.74 295.373 134.553 295.553 134.373 293.74 137.06 293.84 136.823 293.153 140.136 293.153 139.865Z" fill="#EF5181"/><path d="M0.117847-0.656168 81.2569 13.9162 81.0212 15.2286-0.117847 0.656168ZM74.2156 9.31707 82.8452 14.8788 72.8195 17.0901C72.46 17.1694 72.1042 16.9423 72.0249 16.5827 71.9456 16.2232 72.1728 15.8674 72.5324 15.7881L80.9956 13.9214 80.7781 15.1328 73.4933 10.4378C73.1838 10.2383 73.0946 9.82577 73.2941 9.51629 73.4935 9.2068 73.9061 9.11761 74.2156 9.31707Z" fill="#EF5181" transform="matrix(1 0 0 -1 291.5 208.379)"/><path d="M282.5 208C282.5 203.306 286.53 199.5 291.5 199.5 296.471 199.5 300.5 203.306 300.5 208 300.5 212.694 296.471 216.5 291.5 216.5 286.53 216.5 282.5 212.694 282.5 208Z" fill="#FFFFFF" fill-rule="evenodd"/><path d="M281.829 207.999 282.032 206.177 282.583 204.387 284.66 201.505 287.75 199.557 291.5 198.821 295.25 199.557 298.34 201.505 300.436 204.413 301.181 208 300.437 211.583 298.34 214.56 295.245 216.444 291.5 217.179 287.755 216.444 284.66 214.56 282.584 211.613 282.032 209.889ZM283.35 209.679 283.323 209.547 283.823 211.109 283.733 210.929 285.67 213.679 285.472 213.493 288.347 215.243 288.129 215.158 291.629 215.846 291.372 215.846 294.872 215.158 294.653 215.243 297.528 213.493 297.33 213.679 299.268 210.929 299.16 211.177 299.847 207.865 299.847 208.136 299.16 204.823 299.272 205.077 297.334 202.39 297.52 202.564 294.645 200.751 294.872 200.842 291.372 200.154 291.629 200.154 288.129 200.842 288.356 200.751 285.481 202.564 285.666 202.39 283.728 205.077 283.825 204.884 283.325 206.509 283.35 206.386 283.163 208.074 283.163 207.929Z" fill="#EF5181"/><path d="M497.184 122.5 510.05 122.5C510.98 122.5 511.734 123.26 511.734 124.198L511.734 132.428 517.641 133.917 517.641 128.994C517.641 127.622 518.744 126.51 520.104 126.51L617.037 126.51C618.397 126.51 619.5 127.622 619.5 128.994L619.5 206.006C619.5 207.378 618.397 208.49 617.037 208.49L520.104 208.49C518.744 208.49 517.641 207.378 517.641 206.006L517.641 201.083 511.734 202.572 511.734 210.802C511.734 211.74 510.98 212.5 510.05 212.5L497.184 212.5C496.254 212.5 495.5 211.74 495.5 210.802L495.5 124.198C495.5 123.26 496.254 122.5 497.184 122.5Z" fill="#FFFFFF" fill-rule="evenodd"/><path d="M497.053 121.833 510.197 121.833 511.766 122.494 512.417 124.122 512.417 132.438 511.913 131.791 517.851 133.291 517.021 133.938 517.021 128.934 517.245 127.815 517.891 126.765 518.94 126.12 520.059 125.896 617.129 125.896 618.248 126.12 619.297 126.765 619.943 127.815 620.167 128.934 620.167 206.129 619.943 207.248 619.297 208.297 618.248 208.943 617.129 209.167 520.059 209.167 518.94 208.943 517.891 208.297 517.245 207.248 517.021 206.129 517.021 201.125 517.851 201.771 511.913 203.271 512.417 202.625 512.417 210.947 511.759 212.509 510.197 213.167 497.053 213.167 495.491 212.509 494.833 210.947 494.833 124.122 495.485 122.494ZM496.259 123.614 496.619 123.248 496.119 124.498 496.167 124.25 496.167 210.813 496.114 210.554 496.614 211.741 496.259 211.386 497.446 211.886 497.188 211.833 510.063 211.833 509.804 211.886 510.991 211.386 510.636 211.741 511.136 210.554 511.083 210.813 511.083 202.106 518.354 200.269 518.354 206.063 518.341 205.932 518.529 206.869 518.443 206.651 518.943 207.463 518.724 207.245 519.537 207.745 519.318 207.659 520.256 207.846 520.125 207.833 617.063 207.833 616.932 207.846 617.869 207.659 617.651 207.745 618.463 207.245 618.245 207.463 618.745 206.651 618.659 206.869 618.846 205.932 618.833 206.063 618.833 129 618.846 129.131 618.659 128.193 618.745 128.412 618.245 127.599 618.463 127.818 617.651 127.318 617.869 127.404 616.932 127.216 617.063 127.229 520.125 127.229 520.256 127.216 519.318 127.404 519.537 127.318 518.724 127.818 518.943 127.599 518.443 128.412 518.529 128.193 518.341 129.131 518.354 129 518.354 134.794 511.083 132.957 511.083 124.25 511.131 124.498 510.631 123.248 510.991 123.614 509.804 123.114 510.063 123.167 497.188 123.167 497.446 123.114Z" fill="#EF5181"/><text font-family="Open Sans,Open Sans_MSFontService,sans-serif" font-weight="300" font-size="24" transform="translate(409.167 92)">POISSON</text></g></svg>