<svg width="395" height="146" xmlns="http://www.w3.org/2000/svg" xmlns:xlink="http://www.w3.org/1999/xlink" overflow="hidden"><defs><clipPath id="clip0"><rect x="-814" y="93" width="395" height="146"/></clipPath></defs><g clip-path="url(#clip0)" transform="translate(814 -93)"><path d="M-671.928 149.003-623.133 152.539-623.277 154.534-672.072 150.997ZM-630.492 148.741-620.612 153.725-631.108 157.232C-631.632 157.407-632.198 157.124-632.373 156.6-632.548 156.076-632.266 155.51-631.742 155.335L-623.522 152.588-623.655 154.43-631.393 150.527C-631.886 150.278-632.084 149.677-631.836 149.184-631.587 148.69-630.986 148.492-630.492 148.741Z"/><path d="M-689 149C-689 144.029-685.194 140-680.5 140-675.806 140-672 144.029-672 149-672 153.971-675.806 158-680.5 158-685.194 158-689 153.971-689 149Z" fill="#FF8290" fill-rule="evenodd"/><path d="M-690.019 149-689.258 145.124-687.242 141.927-684.264 139.78-682.392 139.204-680.502 138.994-678.542 139.204-676.737 139.782-673.691 141.927-671.741 145.132-670.981 149-671.741 152.868-673.691 156.073-676.781 158.249-680.5 159.021-684.224 158.248-687.242 156.073-689.258 152.876ZM-687.331 152.307-687.467 151.967-685.654 154.842-685.915 154.564-683.228 156.501-683.609 156.333-680.297 157.021-680.703 157.021-677.391 156.333-677.763 156.495-675.013 154.558-675.292 154.855-673.542 151.98-673.669 152.307-672.981 148.807-672.981 149.193-673.669 145.693-673.542 146.02-675.292 143.145-675.013 143.442-677.763 141.505-677.492 141.64-679.055 141.14-678.857 141.182-680.607 140.994-680.39 140.994-682.077 141.181-681.893 141.143-683.518 141.643-683.228 141.499-685.915 143.436-685.654 143.158-687.467 146.033-687.331 145.693-688.019 149.193-688.019 148.807Z"/><path d="M-648.735 122.036-594.802 136.87-595.332 138.799-649.265 123.964ZM-601.281 131.711-592.56 138.524-603.539 139.919C-604.086 139.989-604.587 139.601-604.657 139.053-604.726 138.505-604.339 138.004-603.791 137.935L-595.193 136.843-595.683 138.623-602.512 133.287C-602.947 132.947-603.025 132.318-602.685 131.883-602.345 131.448-601.716 131.371-601.281 131.711Z"/><path d="M0.130176-0.991491 62.9799 7.26027 62.7195 9.24325-0.130176 0.991491ZM55.8533 3.04024 65.4277 8.59024 54.7452 11.4806C54.2121 11.6249 53.6629 11.3096 53.5187 10.7765 53.3745 10.2434 53.6897 9.69429 54.2228 9.55005L62.5887 7.28649 62.3483 9.11693 54.8503 4.77055C54.3725 4.49358 54.2097 3.88171 54.4867 3.40389 54.7636 2.92608 55.3755 2.76327 55.8533 3.04024Z" transform="matrix(1 0 0 -1 -671 206.59)"/><path d="M0.0830435-0.996546 37.2838 2.10345 37.1178 4.09654-0.0830435 0.996546ZM29.9652-1.77413 39.7918 3.31591 29.2582 6.70929C28.7326 6.87864 28.1691 6.58977 27.9998 6.06409 27.8304 5.53841 28.1193 4.97498 28.645 4.80563L36.8942 2.14816 36.7408 3.98794 29.0453 0.00177196C28.5549-0.252247 28.3633-0.855719 28.6173-1.34612 28.8713-1.83652 29.4748-2.02814 29.9652-1.77413Z" transform="matrix(1 0 0 -1 -635 179.316)"/><path d="M-666 121C-666 116.029-662.194 112-657.5 112-652.806 112-649 116.029-649 121-649 125.971-652.806 130-657.5 130-662.194 130-666 125.971-666 121Z" fill="#FF8290" fill-rule="evenodd"/><path d="M-667.019 121-666.258 117.124-664.242 113.927-661.264 111.78-659.392 111.204-657.502 110.994-655.542 111.204-653.737 111.782-650.691 113.927-648.741 117.132-647.981 121-648.741 124.868-650.691 128.073-653.781 130.249-657.5 131.021-661.224 130.248-664.242 128.073-666.258 124.876ZM-664.331 124.307-664.467 123.967-662.654 126.842-662.915 126.564-660.228 128.501-660.609 128.333-657.297 129.021-657.703 129.021-654.391 128.333-654.763 128.495-652.013 126.558-652.292 126.855-650.542 123.98-650.669 124.307-649.981 120.807-649.981 121.193-650.669 117.693-650.542 118.02-652.292 115.145-652.013 115.442-654.763 113.505-654.492 113.64-656.055 113.14-655.857 113.182-657.607 112.994-657.39 112.994-659.077 113.181-658.893 113.143-660.518 113.643-660.228 113.499-662.915 115.436-662.654 115.158-664.467 118.033-664.331 117.693-665.019 121.193-665.019 120.807Z"/><path d="M-652 180C-652 175.029-648.194 171-643.5 171-638.806 171-635 175.029-635 180-635 184.971-638.806 189-643.5 189-648.194 189-652 184.971-652 180Z" fill="#FF8290" fill-rule="evenodd"/><path d="M-653.019 180-652.258 176.124-650.242 172.927-647.264 170.78-645.392 170.204-643.502 169.994-641.542 170.204-639.737 170.782-636.691 172.927-634.741 176.132-633.981 180-634.741 183.868-636.691 187.073-639.781 189.249-643.5 190.021-647.224 189.248-650.242 187.073-652.258 183.876ZM-650.331 183.307-650.467 182.967-648.654 185.842-648.915 185.564-646.228 187.501-646.609 187.333-643.297 188.021-643.703 188.021-640.391 187.333-640.763 187.495-638.013 185.558-638.292 185.855-636.542 182.98-636.669 183.307-635.981 179.807-635.981 180.193-636.669 176.693-636.542 177.02-638.292 174.145-638.013 174.442-640.763 172.505-640.492 172.64-642.055 172.14-641.857 172.182-643.607 171.994-643.39 171.994-645.077 172.181-644.893 172.143-646.518 172.643-646.228 172.499-648.915 174.436-648.654 174.158-650.467 177.033-650.331 176.693-651.019 180.193-651.019 179.807Z"/><path d="M-688 207.5C-688 202.806-684.194 199-679.5 199-674.806 199-671 202.806-671 207.5-671 212.194-674.806 216-679.5 216-684.194 216-688 212.194-688 207.5Z" fill="#FF8290" fill-rule="evenodd"/><path d="M-689.021 207.5-688.252 203.792-686.22 200.78-683.208 198.748-679.5 197.979-675.797 198.747-672.713 200.78-670.747 203.8-669.979 207.5-670.746 211.195-672.713 214.287-675.805 216.254-679.5 217.021-683.2 216.253-686.22 214.287-688.253 211.203ZM-686.333 210.609-686.478 210.262-684.665 213.012-684.954 212.725-682.267 214.475-682.609 214.333-679.297 215.021-679.703 215.021-676.391 214.333-676.724 214.469-673.974 212.719-674.281 213.026-672.531 210.276-672.667 210.609-671.979 207.297-671.979 207.703-672.667 204.391-672.526 204.733-674.276 202.046-673.988 202.335-676.738 200.522-676.391 200.667-679.703 199.979-679.297 199.979-682.609 200.667-682.253 200.517-684.941 202.329-684.671 202.059-686.483 204.747-686.333 204.391-687.021 207.703-687.021 207.297Z"/><path d="M0.115312-0.993329 47.9387 4.55831 47.708 6.54497-0.115312 0.993329ZM40.7496 0.445471 50.406 5.85144 39.7679 8.9015C39.237 9.05372 38.6833 8.74674 38.531 8.21584 38.3788 7.68495 38.6858 7.13118 39.2167 6.97897L47.5477 4.59036 47.3348 6.4242 39.7726 2.19061C39.2907 1.92082 39.1187 1.31145 39.3885 0.829548 39.6583 0.347642 40.2677 0.175685 40.7496 0.445471Z" transform="matrix(1 0 0 -1 -723 175.851)"/><path d="M-740 175.5C-740 170.806-736.194 167-731.5 167-726.806 167-723 170.806-723 175.5-723 180.194-726.806 184-731.5 184-736.194 184-740 180.194-740 175.5Z" fill="#FF8290" fill-rule="evenodd"/><path d="M-741.021 175.5-740.252 171.792-738.22 168.78-735.208 166.748-731.5 165.979-727.797 166.747-724.713 168.78-722.747 171.8-721.979 175.5-722.746 179.195-724.713 182.287-727.805 184.254-731.5 185.021-735.2 184.253-738.22 182.287-740.253 179.203ZM-738.333 178.609-738.478 178.262-736.665 181.012-736.954 180.725-734.267 182.475-734.609 182.333-731.297 183.021-731.703 183.021-728.391 182.333-728.724 182.469-725.974 180.719-726.281 181.026-724.531 178.276-724.667 178.609-723.979 175.297-723.979 175.703-724.667 172.391-724.526 172.733-726.276 170.046-725.988 170.335-728.738 168.522-728.391 168.667-731.703 167.979-731.297 167.979-734.609 168.667-734.253 168.517-736.941 170.329-736.671 170.059-738.483 172.747-738.333 172.391-739.021 175.703-739.021 175.297Z"/><path d="M-712.723 118.039-674.559 129.042-675.113 130.964-713.277 119.961ZM-680.974 123.803-672.337 130.723-683.332 131.983C-683.881 132.046-684.377 131.652-684.44 131.103-684.502 130.555-684.109 130.059-683.56 129.996L-674.95 129.009-675.461 130.783-682.224 125.364C-682.655 125.019-682.725 124.39-682.38 123.959-682.034 123.527-681.405 123.458-680.974 123.803Z"/><path d="M-730 116.5C-730 111.806-726.194 108-721.5 108-716.806 108-713 111.806-713 116.5-713 121.194-716.806 125-721.5 125-726.194 125-730 121.194-730 116.5Z" fill="#FF8290" fill-rule="evenodd"/><path d="M-731.021 116.5-730.252 112.792-728.22 109.78-725.208 107.748-721.5 106.979-717.797 107.747-714.713 109.78-712.747 112.8-711.979 116.5-712.746 120.195-714.713 123.287-717.805 125.254-721.5 126.021-725.2 125.253-728.22 123.287-730.253 120.203ZM-728.333 119.609-728.478 119.262-726.665 122.012-726.954 121.725-724.267 123.475-724.609 123.333-721.297 124.021-721.703 124.021-718.391 123.333-718.724 123.469-715.974 121.719-716.281 122.026-714.531 119.276-714.667 119.609-713.979 116.297-713.979 116.703-714.667 113.391-714.526 113.733-716.276 111.046-715.988 111.335-718.738 109.522-718.391 109.667-721.703 108.979-721.297 108.979-724.609 109.667-724.253 109.517-726.941 111.329-726.671 111.059-728.483 113.747-728.333 113.391-729.021 116.703-729.021 116.297Z"/><path d="M-766.872 140.008-725.427 145.346-725.682 147.329-767.128 141.992ZM-732.564 141.143-722.976 146.669-733.651 149.586C-734.184 149.732-734.734 149.418-734.88 148.885-735.025 148.352-734.711 147.803-734.179 147.657L-725.818 145.373-726.054 147.204-733.563 142.876C-734.041 142.6-734.206 141.989-733.93 141.51-733.654 141.032-733.043 140.867-732.564 141.143Z"/><path d="M-784 139.5C-784 134.806-780.194 131-775.5 131-770.806 131-767 134.806-767 139.5-767 144.194-770.806 148-775.5 148-780.194 148-784 144.194-784 139.5Z" fill="#FF8290" fill-rule="evenodd"/><path d="M-785.021 139.5-784.252 135.792-782.22 132.78-779.208 130.748-775.5 129.979-771.797 130.747-768.713 132.78-766.747 135.8-765.979 139.5-766.746 143.195-768.713 146.287-771.805 148.254-775.5 149.021-779.2 148.253-782.22 146.287-784.253 143.203ZM-782.333 142.609-782.478 142.262-780.665 145.012-780.954 144.725-778.267 146.475-778.609 146.333-775.297 147.021-775.703 147.021-772.391 146.333-772.724 146.469-769.974 144.719-770.281 145.026-768.531 142.276-768.667 142.609-767.979 139.297-767.979 139.703-768.667 136.391-768.526 136.733-770.276 134.046-769.988 134.335-772.738 132.522-772.391 132.667-775.703 131.979-775.297 131.979-778.609 132.667-778.253 132.517-780.941 134.329-780.671 134.059-782.483 136.747-782.333 136.391-783.021 139.703-783.021 139.297Z"/><path d="M0.176769-0.984252 71.7583 11.8716 71.4048 13.8401-0.176769 0.984252ZM64.8387 7.32034 74.1408 13.3155 63.3339 15.6991C62.7945 15.8181 62.2609 15.4773 62.142 14.938 62.023 14.3986 62.3638 13.865 62.9031 13.746L71.3663 11.8794 71.04 13.6964 63.7552 9.00144C63.291 8.70226 63.1572 8.08339 63.4564 7.61916 63.7556 7.15494 64.3744 7.02115 64.8387 7.32034Z" transform="matrix(1 0 0 -1 -776 206.315)"/><path d="M-793 207.5C-793 202.806-789.194 199-784.5 199-779.806 199-776 202.806-776 207.5-776 212.194-779.806 216-784.5 216-789.194 216-793 212.194-793 207.5Z" fill="#FF8290" fill-rule="evenodd"/><path d="M-794.021 207.5-793.252 203.792-791.22 200.78-788.208 198.748-784.5 197.979-780.797 198.747-777.713 200.78-775.747 203.8-774.979 207.5-775.746 211.195-777.713 214.287-780.805 216.254-784.5 217.021-788.2 216.253-791.22 214.287-793.253 211.203ZM-791.333 210.609-791.478 210.262-789.665 213.012-789.954 212.725-787.267 214.475-787.609 214.333-784.297 215.021-784.703 215.021-781.391 214.333-781.724 214.469-778.974 212.719-779.281 213.026-777.531 210.276-777.667 210.609-776.979 207.297-776.979 207.703-777.667 204.391-777.526 204.733-779.276 202.046-778.988 202.335-781.738 200.522-781.391 200.667-784.703 199.979-784.297 199.979-787.609 200.667-787.253 200.517-789.941 202.329-789.671 202.059-791.483 204.747-791.333 204.391-792.021 207.703-792.021 207.297Z"/><path d="M-579.316 122-566.45 122C-565.52 122-564.766 122.76-564.766 123.698L-564.766 131.928-558.859 133.417-558.859 128.494C-558.859 127.122-557.756 126.01-556.396 126.01L-459.463 126.01C-458.103 126.01-457 127.122-457 128.494L-457 205.506C-457 206.878-458.103 207.99-459.463 207.99L-556.396 207.99C-557.756 207.99-558.859 206.878-558.859 205.506L-558.859 200.583-564.766 202.072-564.766 210.302C-564.766 211.24-565.52 212-566.45 212L-579.316 212C-580.246 212-581 211.24-581 210.302L-581 123.698C-581 122.76-580.246 122-579.316 122Z" fill="#FF8290" fill-rule="evenodd"/><path d="M-579.514 121-566.236 121-564.477 121.741-563.75 123.557-563.75 131.938-564.505 130.968-558.568 132.468-559.812 133.438-559.812 128.401-559.57 127.191-558.852 126.023-557.684 125.305-556.474 125.062-459.339 125.062-458.128 125.305-456.961 126.023-456.242 127.191-456 128.401-456 205.662-456.242 206.872-456.961 208.039-458.128 208.758-459.339 209-556.474 209-557.684 208.758-558.852 208.039-559.57 206.872-559.812 205.662-559.812 200.625-558.568 201.595-564.505 203.095-563.75 202.125-563.75 210.514-564.486 212.264-566.236 213-579.514 213-581.264 212.264-582 210.514-582 123.557-581.273 121.741ZM-580.112 123.422-579.572 122.871-580.072 124.121-580 123.75-580 210.312-580.078 209.924-579.578 211.112-580.112 210.578-578.924 211.078-579.312 211-566.438 211-566.826 211.078-565.638 210.578-566.172 211.112-565.672 209.924-565.75 210.312-565.75 201.346-557.812 199.341-557.812 205.562-557.832 205.366-557.644 206.304-557.773 205.976-557.273 206.788-557.601 206.461-556.788 206.961-557.116 206.832-556.179 207.019-556.375 207-459.438 207-459.634 207.019-458.696 206.832-459.024 206.961-458.212 206.461-458.539 206.788-458.039 205.976-458.168 206.304-457.981 205.366-458 205.562-458 128.5-457.981 128.696-458.168 127.759-458.039 128.087-458.539 127.274-458.212 127.602-459.024 127.102-458.696 127.231-459.634 127.043-459.438 127.062-556.375 127.062-556.179 127.043-557.116 127.231-556.788 127.102-557.601 127.602-557.273 127.274-557.773 128.087-557.644 127.759-557.832 128.696-557.812 128.5-557.812 134.722-565.75 132.716-565.75 123.75-565.678 124.121-566.178 122.871-565.638 123.422-566.826 122.922-566.438 123-579.312 123-578.924 122.922Z"/></g></svg>