<svg width="407" height="178" xmlns="http://www.w3.org/2000/svg" xmlns:xlink="http://www.w3.org/1999/xlink" overflow="hidden"><defs><clipPath id="clip0"><rect x="257" y="496" width="407" height="178"/></clipPath></defs><g clip-path="url(#clip0)" transform="translate(-257 -496)"><path d="M273.5 660.5 279.681 660.5 285.861 660.437 292.209 660.374 298.389 660.31 304.569 660.121 310.75 659.931 316.93 659.678 323.278 659.299 329.458 658.793 335.639 658.161 341.819 657.276 348.167 656.201 354.347 654.81 360.528 653.104 366.708 651.081 372.889 648.678 379.236 645.833 385.417 642.672 391.597 639.132 397.778 635.339 403.958 631.293 410.306 627.184 416.486 623.012 422.667 618.966 428.847 615.236 435.028 611.948 441.375 609.23 447.556 607.207 453.736 605.943 459.917 605.5 466.097 605.943 472.445 607.207 478.625 609.23 484.805 611.948 490.986 615.236 497.333 618.966 503.514 623.012 509.694 627.184 515.875 631.293 522.055 635.339 528.403 639.132 534.583 642.672 540.764 645.833 546.944 648.678 553.125 651.081 559.472 653.104 565.653 654.81 571.833 656.201 578.014 657.276 584.194 658.161 590.542 658.793 596.722 659.299 602.903 659.678 609.083 659.931 615.264 660.121 621.611 660.31 627.792 660.374 633.972 660.437 640.153 660.5 646.5 660.5" stroke="#EF5181" stroke-linecap="round" stroke-miterlimit="8" stroke-dasharray="2 2" fill="none" fill-rule="evenodd"/><path d="M273.5 660.5 279.681 660.437 285.861 660.31 292.209 660.183 298.389 660.056 304.569 659.802 310.75 659.421 316.93 658.914 323.278 658.216 329.458 657.264 335.639 655.995 341.819 654.345 348.167 652.251 354.347 649.65 360.528 646.477 366.708 642.606 372.889 638.038 379.236 632.771 385.417 626.806 391.597 620.144 397.778 612.91 403.958 605.296 410.306 597.427 416.486 589.559 422.667 582.008 428.847 574.965 435.028 568.747 441.375 563.543 447.556 559.673 453.736 557.325 459.917 556.5 466.097 557.325 472.445 559.673 478.625 563.543 484.805 568.747 490.986 574.965 497.333 582.008 503.514 589.559 509.694 597.427 515.875 605.296 522.055 612.91 528.403 620.144 534.583 626.806 540.764 632.771 546.944 638.038 553.125 642.606 559.472 646.477 565.653 649.65 571.833 652.251 578.014 654.345 584.194 655.995 590.542 657.264 596.722 658.216 602.903 658.914 609.083 659.421 615.264 659.802 621.611 660.056 627.792 660.183 633.972 660.31 640.153 660.437 646.5 660.5" stroke="#EF5181" stroke-linecap="round" stroke-miterlimit="8" stroke-dasharray="2 2" fill="none" fill-rule="evenodd"/><path d="M273.5 660.5 279.681 660.436 285.861 660.373 292.209 660.246 298.389 660.118 304.569 659.864 310.75 659.546 316.93 659.101 323.278 658.528 329.458 657.701 335.639 656.62 341.819 655.221 348.167 653.376 354.347 651.15 360.528 648.352 366.708 645.044 372.889 641.101 379.236 636.521 385.417 631.306 391.597 625.581 397.778 619.348 403.958 612.733 410.306 605.928 416.486 599.122 422.667 592.571 428.847 586.465 435.028 581.122 441.375 576.606 447.556 573.299 453.736 571.2 459.917 570.5 466.097 571.2 472.445 573.299 478.625 576.606 484.805 581.122 490.986 586.465 497.333 592.571 503.514 599.122 509.694 605.928 515.875 612.733 522.055 619.348 528.403 625.581 534.583 631.306 540.764 636.521 546.944 641.101 553.125 645.044 559.472 648.352 565.653 651.15 571.833 653.376 578.014 655.221 584.194 656.62 590.542 657.701 596.722 658.528 602.903 659.101 609.083 659.546 615.264 659.864 621.611 660.118 627.792 660.246 633.972 660.373 640.153 660.436 646.5 660.5" stroke="#EF5181" stroke-linecap="round" stroke-miterlimit="8" stroke-dasharray="2 2" fill="none" fill-rule="evenodd"/><path d="M273.5 660.5 279.681 660.436 285.861 660.373 292.209 660.245 298.389 660.118 304.569 659.927 310.75 659.608 316.93 659.162 323.278 658.589 329.458 657.825 335.639 656.805 341.819 655.467 348.167 653.747 354.347 651.582 360.528 648.906 366.708 645.721 372.889 641.962 379.236 637.567 385.417 632.598 391.597 627.119 397.778 621.131 403.958 614.825 410.306 608.327 416.486 601.893 422.667 595.586 428.847 589.725 435.028 584.565 441.375 580.297 447.556 577.112 453.736 575.137 459.917 574.5 466.097 575.137 472.445 577.112 478.625 580.297 484.805 584.565 490.986 589.725 497.333 595.586 503.514 601.893 509.694 608.327 515.875 614.825 522.055 621.131 528.403 627.119 534.583 632.598 540.764 637.567 546.944 641.962 553.125 645.721 559.472 648.906 565.653 651.582 571.833 653.747 578.014 655.467 584.194 656.805 590.542 657.825 596.722 658.589 602.903 659.162 609.083 659.608 615.264 659.927 621.611 660.118 627.792 660.245 633.972 660.373 640.153 660.436 646.5 660.5" stroke="#EF5181" stroke-linecap="round" stroke-miterlimit="8" stroke-dasharray="2 2" fill="none" fill-rule="evenodd"/><path d="M273.5 660.5 279.681 660.437 285.861 660.373 292.209 660.31 298.389 660.184 304.569 659.994 310.75 659.677 316.93 659.297 323.278 658.791 329.458 658.031 335.639 657.082 341.819 655.879 348.167 654.297 354.347 652.271 360.528 649.865 366.708 646.954 372.889 643.472 379.236 639.484 385.417 634.926 391.597 629.862 397.778 624.355 403.958 618.595 410.306 612.644 416.486 606.631 422.667 600.934 428.847 595.553 435.028 590.805 441.375 586.881 447.556 583.969 453.736 582.133 459.917 581.5 466.097 582.133 472.445 583.969 478.625 586.881 484.805 590.805 490.986 595.553 497.333 600.934 503.514 606.631 509.694 612.644 515.875 618.595 522.055 624.355 528.403 629.862 534.583 634.926 540.764 639.484 546.944 643.472 553.125 646.954 559.472 649.865 565.653 652.271 571.833 654.297 578.014 655.879 584.194 657.082 590.542 658.031 596.722 658.791 602.903 659.297 609.083 659.677 615.264 659.994 621.611 660.184 627.792 660.31 633.972 660.373 640.153 660.437 646.5 660.5" stroke="#EF5181" stroke-linecap="round" stroke-miterlimit="8" stroke-dasharray="2 2" fill="none" fill-rule="evenodd"/><path d="M273.5 660.5 279.681 660.437 285.861 660.373 292.209 660.247 298.389 659.994 304.569 659.741 310.75 659.298 316.93 658.728 323.278 657.905 329.458 656.829 335.639 655.373 341.819 653.475 348.167 651.07 354.347 648.095 360.528 644.361 366.708 639.93 372.889 634.677 379.236 628.538 385.417 621.639 391.597 613.981 397.778 605.627 403.958 596.829 410.306 587.779 416.486 578.728 422.667 569.994 428.847 561.829 435.028 554.614 441.375 548.665 447.556 544.234 453.736 541.449 459.917 540.5 466.097 541.449 472.445 544.234 478.625 548.665 484.805 554.614 490.986 561.829 497.333 569.994 503.514 578.728 509.694 587.779 515.875 596.829 522.055 605.627 528.403 613.981 534.583 621.639 540.764 628.538 546.944 634.677 553.125 639.93 559.472 644.361 565.653 648.095 571.833 651.07 578.014 653.475 584.194 655.373 590.542 656.829 596.722 657.905 602.903 658.728 609.083 659.298 615.264 659.741 621.611 659.994 627.792 660.247 633.972 660.373 640.153 660.437 646.5 660.5" stroke="#EF5181" stroke-linecap="round" stroke-miterlimit="8" stroke-dasharray="2 2" fill="none" fill-rule="evenodd"/><path d="M273 660 279.18 659.936 285.361 659.873 291.708 659.809 297.889 659.618 304.069 659.426 310.25 659.108 316.43 658.725 322.778 658.152 328.958 657.387 335.139 656.367 341.319 655.029 347.667 653.372 353.847 651.269 360.028 648.656 366.208 645.596 372.389 641.9 378.736 637.63 384.917 632.786 391.097 627.369 397.278 621.569 403.458 615.451 409.806 609.077 415.986 602.768 422.167 596.586 428.347 590.914 434.528 585.879 440.875 581.736 447.056 578.549 453.236 576.637 459.416 576 465.597 576.637 471.944 578.549 478.125 581.736 484.305 585.879 490.486 590.914 496.833 596.586 503.014 602.768 509.194 609.077 515.375 615.451 521.555 621.569 527.903 627.369 534.083 632.786 540.264 637.63 546.444 641.9 552.625 645.596 558.972 648.656 565.153 651.269 571.333 653.372 577.514 655.029 583.694 656.367 590.042 657.387 596.222 658.152 602.403 658.725 608.583 659.108 614.764 659.426 621.111 659.618 627.292 659.809 633.472 659.873 639.652 659.936 646 660" stroke="#EF5181" stroke-width="2" stroke-miterlimit="8" fill="none" fill-rule="evenodd"/><path d="M273.5 660.5 279.681 660.5 285.861 660.433 292.209 660.366 298.389 660.232 304.569 660.03 310.75 659.829 316.93 659.493 323.278 659.023 329.458 658.419 335.639 657.613 341.819 656.606 348.167 655.264 354.347 653.585 360.528 651.504 366.708 649.02 372.889 646.066 379.236 642.642 385.417 638.816 391.597 634.519 397.778 629.887 403.958 624.919 410.306 619.884 416.486 614.849 422.667 609.948 428.847 605.383 435.028 601.355 441.375 598.065 447.556 595.581 453.736 594.037 459.917 593.5 466.097 594.037 472.445 595.581 478.625 598.065 484.805 601.355 490.986 605.383 497.333 609.948 503.514 614.849 509.694 619.884 515.875 624.919 522.055 629.887 528.403 634.519 534.583 638.816 540.764 642.642 546.944 646.066 553.125 649.02 559.472 651.504 565.653 653.585 571.833 655.264 578.014 656.606 584.194 657.613 590.542 658.419 596.722 659.023 602.903 659.493 609.083 659.829 615.264 660.03 621.611 660.232 627.792 660.366 633.972 660.433 640.153 660.5 646.5 660.5" stroke="#EF5181" stroke-linecap="round" stroke-miterlimit="8" stroke-dasharray="2 2" fill="none" fill-rule="evenodd"/><text font-family="Open Sans,Open Sans_MSFontService,sans-serif" font-weight="300" font-size="24" transform="translate(374.917 527)">SHOT<tspan font-size="24" x="61.1667" y="0">-</tspan><tspan font-size="24" x="68.8333" y="0">TO</tspan><tspan font-size="24" x="99.6667" y="0">-</tspan><tspan font-size="24" x="107.333" y="0">SHOT</tspan></text><path d="M271.6 659 648.622 659 648.622 661 271.6 661ZM279.215 664.256 269 660 279.215 655.744C279.725 655.531 280.311 655.772 280.523 656.282 280.736 656.792 280.494 657.377 279.985 657.59L271.985 660.923 271.985 659.077 279.985 662.41C280.494 662.623 280.736 663.208 280.523 663.718 280.311 664.228 279.725 664.469 279.215 664.256ZM641.007 655.744 651.222 660 641.007 664.257C640.497 664.469 639.912 664.228 639.699 663.718 639.487 663.208 639.728 662.623 640.238 662.41L648.238 659.077 648.238 660.923 640.238 657.59C639.728 657.377 639.487 656.792 639.699 656.282 639.912 655.772 640.497 655.531 641.007 655.744Z" fill="#EF5181"/><path d="M2.3749 1.4559 37.7684 47.6612 36.1806 48.8774 0.78718 2.67211ZM2.83299 10.6979-1.02526e-07-2.05052e-07 9.59098 5.52125C10.0696 5.79679 10.2343 6.40818 9.95872 6.88682 9.68318 7.36546 9.0718 7.5301 8.59316 7.25456L1.08215 2.93069 2.54774 1.80804 4.76635 10.1859C4.90773 10.7198 4.58955 11.2672 4.05566 11.4086 3.52178 11.55 2.97437 11.2318 2.83299 10.6979ZM35.7226 39.6354 38.5556 50.3333 28.9646 44.8121C28.486 44.5365 28.3213 43.9252 28.5969 43.4465 28.8724 42.9679 29.4838 42.8032 29.9624 43.0788L37.4734 47.4026 36.0078 48.5253 33.7892 40.1474C33.6479 39.6135 33.966 39.0661 34.4999 38.9247 35.0338 38.7834 35.5812 39.1015 35.7226 39.6354Z" fill="#EF5181" transform="matrix(1 0 0 -1 485 630.333)"/></g></svg>