<svg width="407" height="146" xmlns="http://www.w3.org/2000/svg" xmlns:xlink="http://www.w3.org/1999/xlink" overflow="hidden"><defs><clipPath id="clip0"><rect x="-737" y="528" width="407" height="146"/></clipPath></defs><g clip-path="url(#clip0)" transform="translate(737 -528)"><path d="M-534.083 540-527.919 540.949-521.589 543.734-515.425 548.165-509.261 554.114-503.097 561.329-496.767 569.494-490.603 578.228-484.439 587.279-478.275 596.329-472.111 605.127-465.781 613.481-459.617 621.139-453.453 628.038-447.289 634.177-441.125 639.43-434.794 643.861-428.631 647.595-422.467 650.57-416.303 652.975-410.139 654.873-403.808 656.329-397.644 657.405-391.48 658.228-385.317 658.798-379.153 659.241-372.822 659.494-366.658 659.747-360.494 659.873-354.331 659.937-348 660-360.489 660-360.494 660-366.658 659.937-372.822 659.873-379.153 659.684-385.317 659.494-391.48 659.24-397.644 658.861-403.808 658.354-410.139 657.722-416.303 656.835-422.467 655.76-428.631 654.367-434.794 652.658-441.125 650.633-447.289 648.228-453.453 645.38-459.617 642.215-465.781 638.671-472.111 634.873-478.275 630.823-484.439 626.709-490.603 622.532-496.767 618.481-503.097 614.747-509.261 611.456-515.425 608.734-521.589 606.709-527.919 605.443-534.083 605-540.247 605.443-546.411 606.709-552.575 608.734-558.905 611.456-565.069 614.747-571.233 618.481-577.397 622.532-583.561 626.709-589.892 630.823-596.056 634.873-602.219 638.671-608.383 642.215-614.547 645.38-620.878 648.228-627.042 650.633-633.206 652.658-639.369 654.367-645.533 655.76-651.864 656.835-658.028 657.722-664.192 658.354-670.356 658.861-676.686 659.24-682.85 659.494-689.014 659.684-695.178 659.873-701.342 659.937-707.672 660-707.677 660-720 660-713.836 659.937-707.672 659.873-701.342 659.747-695.178 659.494-689.014 659.241-682.85 658.798-676.686 658.228-670.356 657.405-664.192 656.329-658.028 654.873-651.864 652.975-645.533 650.57-639.369 647.595-633.206 643.861-627.042 639.43-620.878 634.177-614.547 628.038-608.383 621.139-602.219 613.481-596.056 605.127-589.892 596.329-583.561 587.279-577.397 578.228-571.233 569.494-565.069 561.329-558.905 554.114-552.575 548.165-546.411 543.734-540.247 540.949Z" fill="#FFFFFF" fill-rule="evenodd"/><path d="M-720 660-713.836 659.937-707.672 659.873-701.342 659.747-695.178 659.494-689.014 659.24-682.85 658.797-676.686 658.228-670.356 657.405-664.192 656.329-658.028 654.873-651.864 652.975-645.533 650.57-639.369 647.595-633.206 643.861-627.042 639.43-620.878 634.177-614.547 628.038-608.383 621.139-602.219 613.481-596.056 605.127-589.892 596.329-583.561 587.279-577.397 578.228-571.233 569.494-565.069 561.329-558.906 554.114-552.575 548.165-546.411 543.734-540.247 540.949-534.083 540-527.919 540.949-521.589 543.734-515.425 548.165-509.261 554.114-503.097 561.329-496.767 569.494-490.603 578.228-484.439 587.279-478.275 596.329-472.111 605.127-465.781 613.481-459.617 621.139-453.453 628.038-447.289 634.177-441.125 639.43-434.794 643.861-428.631 647.595-422.467 650.57-416.303 652.975-410.139 654.873-403.808 656.329-397.644 657.405-391.481 658.228-385.317 658.797-379.153 659.24-372.822 659.494-366.658 659.747-360.494 659.873-354.331 659.937-348 660" stroke="#000000" stroke-width="1.66667" stroke-linecap="round" stroke-miterlimit="8" stroke-dasharray="3.33333 3.33333" fill="none" fill-rule="evenodd"/><path d="M-720 660-713.836 660-707.672 659.937-701.342 659.874-695.178 659.81-689.014 659.621-682.85 659.431-676.686 659.178-670.356 658.799-664.192 658.293-658.028 657.661-651.864 656.776-645.533 655.701-639.369 654.31-633.206 652.603-627.042 650.58-620.878 648.178-614.547 645.333-608.383 642.172-602.219 638.632-596.056 634.839-589.892 630.793-583.561 626.684-577.397 622.511-571.233 618.466-565.069 614.736-558.906 611.448-552.575 608.73-546.411 606.707-540.247 605.443-534.083 605-527.919 605.443-521.589 606.707-515.425 608.73-509.261 611.448-503.097 614.736-496.767 618.466-490.603 622.511-484.439 626.684-478.275 630.793-472.111 634.839-465.781 638.632-459.617 642.172-453.453 645.333-447.289 648.178-441.125 650.58-434.794 652.603-428.631 654.31-422.467 655.701-416.303 656.776-410.139 657.661-403.808 658.293-397.644 658.799-391.481 659.178-385.317 659.431-379.153 659.621-372.822 659.81-366.658 659.874-360.494 659.937-354.331 660-348 660" stroke="#000000" stroke-width="1.66667" stroke-linecap="round" stroke-miterlimit="8" stroke-dasharray="3.33333 3.33333" fill="none" fill-rule="evenodd"/><path d="M-720 660-713.836 659.937-707.672 659.81-701.342 659.683-695.178 659.556-689.014 659.302-682.85 658.921-676.686 658.414-670.356 657.716-664.192 656.764-658.028 655.495-651.864 653.845-645.533 651.751-639.369 649.149-633.206 645.977-627.042 642.106-620.878 637.538-614.547 632.271-608.383 626.306-602.219 619.644-596.056 612.41-589.892 604.796-583.561 596.927-577.397 589.059-571.233 581.508-565.069 574.465-558.906 568.247-552.575 563.043-546.411 559.173-540.247 556.825-534.083 556-527.919 556.825-521.589 559.173-515.425 563.043-509.261 568.247-503.097 574.465-496.767 581.508-490.603 589.059-484.439 596.927-478.275 604.796-472.111 612.41-465.781 619.644-459.617 626.306-453.453 632.271-447.289 637.538-441.125 642.106-434.794 645.977-428.631 649.149-422.467 651.751-416.303 653.845-410.139 655.495-403.808 656.764-397.644 657.716-391.481 658.414-385.317 658.921-379.153 659.302-372.822 659.556-366.658 659.683-360.494 659.81-354.331 659.937-348 660" stroke="#000000" stroke-width="1.66667" stroke-linecap="round" stroke-miterlimit="8" stroke-dasharray="3.33333 3.33333" fill="none" fill-rule="evenodd"/><path d="M-720 660-713.836 659.936-707.672 659.873-701.342 659.746-695.178 659.618-689.014 659.364-682.85 659.046-676.686 658.601-670.356 658.028-664.192 657.201-658.028 656.12-651.864 654.721-645.533 652.876-639.369 650.65-633.206 647.852-627.042 644.544-620.878 640.601-614.547 636.021-608.383 630.806-602.219 625.081-596.056 618.848-589.892 612.233-583.561 605.428-577.397 598.622-571.233 592.071-565.069 585.965-558.906 580.622-552.575 576.106-546.411 572.799-540.247 570.7-534.083 570-527.919 570.7-521.589 572.799-515.425 576.106-509.261 580.622-503.097 585.965-496.767 592.071-490.603 598.622-484.439 605.428-478.275 612.233-472.111 618.848-465.781 625.081-459.617 630.806-453.453 636.021-447.289 640.601-441.125 644.544-434.794 647.852-428.631 650.65-422.467 652.876-416.303 654.721-410.139 656.12-403.808 657.201-397.644 658.028-391.481 658.601-385.317 659.046-379.153 659.364-372.822 659.618-366.658 659.746-360.494 659.873-354.331 659.936-348 660" stroke="#000000" stroke-width="1.66667" stroke-linecap="round" stroke-miterlimit="8" stroke-dasharray="3.33333 3.33333" fill="none" fill-rule="evenodd"/><path d="M-720 660-713.836 659.936-707.672 659.873-701.342 659.745-695.178 659.618-689.014 659.427-682.85 659.108-676.686 658.662-670.356 658.089-664.192 657.324-658.028 656.305-651.864 654.967-645.533 653.247-639.369 651.081-633.206 648.406-627.042 645.221-620.878 641.462-614.547 637.067-608.383 632.098-602.219 626.619-596.056 620.631-589.892 614.324-583.561 607.827-577.397 601.393-571.233 595.086-565.069 589.225-558.906 584.065-552.575 579.797-546.411 576.612-540.247 574.637-534.083 574-527.919 574.637-521.589 576.612-515.425 579.797-509.261 584.065-503.097 589.225-496.767 595.086-490.603 601.393-484.439 607.827-478.275 614.324-472.111 620.631-465.781 626.619-459.617 632.098-453.453 637.067-447.289 641.462-441.125 645.221-434.794 648.406-428.631 651.081-422.467 653.247-416.303 654.967-410.139 656.305-403.808 657.324-397.644 658.089-391.481 658.662-385.317 659.108-379.153 659.427-372.822 659.618-366.658 659.745-360.494 659.873-354.331 659.936-348 660" stroke="#000000" stroke-width="1.66667" stroke-linecap="round" stroke-miterlimit="8" stroke-dasharray="3.33333 3.33333" fill="none" fill-rule="evenodd"/><path d="M-720 660-713.836 659.937-707.672 659.873-701.342 659.81-695.178 659.683-689.014 659.494-682.85 659.177-676.686 658.797-670.356 658.291-664.192 657.531-658.028 656.582-651.864 655.379-645.533 653.796-639.369 651.771-633.206 649.365-627.042 646.453-620.878 642.972-614.547 638.984-608.383 634.426-602.219 629.362-596.056 623.855-589.892 618.095-583.561 612.144-577.397 606.131-571.233 600.433-565.069 595.053-558.906 590.305-552.575 586.381-546.411 583.469-540.247 581.633-534.083 581-527.919 581.633-521.589 583.469-515.425 586.381-509.261 590.305-503.097 595.053-496.767 600.433-490.603 606.131-484.439 612.144-478.275 618.095-472.111 623.855-465.781 629.362-459.617 634.426-453.453 638.984-447.289 642.972-441.125 646.453-434.794 649.365-428.631 651.771-422.467 653.796-416.303 655.379-410.139 656.582-403.808 657.531-397.644 658.291-391.481 658.797-385.317 659.177-379.153 659.494-372.822 659.683-366.658 659.81-360.494 659.873-354.331 659.937-348 660" stroke="#000000" stroke-width="1.66667" stroke-linecap="round" stroke-miterlimit="8" stroke-dasharray="3.33333 3.33333" fill="none" fill-rule="evenodd"/><path d="M-720 660-713.836 659.936-707.672 659.873-701.342 659.809-695.178 659.618-689.014 659.426-682.85 659.108-676.686 658.725-670.356 658.152-664.192 657.387-658.028 656.367-651.864 655.029-645.533 653.372-639.369 651.269-633.206 648.656-627.042 645.596-620.878 641.9-614.547 637.63-608.383 632.786-602.219 627.369-596.056 621.569-589.892 615.451-583.561 609.077-577.397 602.768-571.233 596.586-565.069 590.914-558.906 585.879-552.575 581.736-546.411 578.549-540.247 576.637-534.083 576-527.919 576.637-521.589 578.549-515.425 581.736-509.261 585.879-503.097 590.914-496.767 596.586-490.603 602.768-484.439 609.077-478.275 615.451-472.111 621.569-465.781 627.369-459.617 632.786-453.453 637.63-447.289 641.9-441.125 645.596-434.794 648.656-428.631 651.269-422.467 653.372-416.303 655.029-410.139 656.367-403.808 657.387-397.644 658.152-391.481 658.725-385.317 659.108-379.153 659.426-372.822 659.618-366.658 659.809-360.494 659.873-354.331 659.936-348 660" stroke="#000000" stroke-width="2" stroke-miterlimit="8" fill="none" fill-rule="evenodd"/><path d="M-720 660-713.836 660-707.672 659.933-701.342 659.866-695.178 659.731-689.014 659.53-682.85 659.329-676.686 658.993-670.356 658.523-664.192 657.919-658.028 657.113-651.864 656.106-645.533 654.764-639.369 653.085-633.206 651.004-627.042 648.52-620.878 645.566-614.547 642.142-608.383 638.316-602.219 634.019-596.056 629.387-589.892 624.419-583.561 619.384-577.397 614.349-571.233 609.448-565.069 604.883-558.906 600.855-552.575 597.565-546.411 595.081-540.247 593.537-534.083 593-527.919 593.537-521.589 595.081-515.425 597.565-509.261 600.855-503.097 604.883-496.767 609.448-490.603 614.349-484.439 619.384-478.275 624.419-472.111 629.387-465.781 634.019-459.617 638.316-453.453 642.142-447.289 645.566-441.125 648.52-434.794 651.004-428.631 653.085-422.467 654.764-416.303 656.106-410.139 657.113-403.808 657.919-397.644 658.523-391.481 658.993-385.317 659.329-379.153 659.53-372.822 659.731-366.658 659.866-360.494 659.933-354.331 660-348 660" stroke="#000000" stroke-width="1.66667" stroke-linecap="round" stroke-miterlimit="8" stroke-dasharray="3.33333 3.33333" fill="none" fill-rule="evenodd"/><path d="M-722.4 659-345.378 659-345.378 661-722.4 661ZM-714.785 664.256-725 660-714.785 655.744C-714.275 655.531-713.689 655.772-713.477 656.282-713.265 656.792-713.506 657.377-714.015 657.59L-722.015 660.923-722.015 659.077-714.015 662.41C-713.506 662.623-713.265 663.208-713.477 663.718-713.689 664.228-714.275 664.469-714.785 664.256ZM-352.993 655.744-342.778 660-352.993 664.257C-353.503 664.469-354.088 664.228-354.301 663.718-354.513 663.208-354.272 662.623-353.762 662.41L-345.762 659.077-345.762 660.923-353.762 657.59C-354.272 657.377-354.513 656.792-354.301 656.282-354.088 655.772-353.503 655.531-352.993 655.744Z"/><path d="M2.31271 1.55291 35.7683 49.1862 34.1316 50.3357 0.676058 2.70242ZM2.38824 10.8059 3.07579e-07 0 9.35449 5.91309C9.82133 6.20819 9.96055 6.82586 9.66546 7.2927 9.37036 7.75953 8.75269 7.89876 8.28586 7.60366L0.960053 2.97293 2.4708 1.91184 4.34111 10.3743C4.4603 10.9136 4.11975 11.4473 3.58048 11.5665 3.04121 11.6857 2.50743 11.3452 2.38824 10.8059ZM34.0562 41.0828 36.4444 51.8887 27.0899 45.9756C26.6231 45.6805 26.4839 45.0628 26.779 44.596 27.0741 44.1292 27.6917 43.9899 28.1586 44.285L35.4844 48.9158 33.9736 49.9769 32.1033 41.5144C31.9841 40.9751 32.3247 40.4414 32.8639 40.3222 33.4032 40.203 33.937 40.5435 34.0562 41.0828Z" transform="matrix(1 0 0 -1 -506 631.889)"/></g></svg>