<svg width="407" height="146" xmlns="http://www.w3.org/2000/svg" xmlns:xlink="http://www.w3.org/1999/xlink" overflow="hidden"><defs><clipPath id="clip0"><rect x="257" y="528" width="407" height="146"/></clipPath></defs><g clip-path="url(#clip0)" transform="translate(-257 -528)"><path d="M273 660 279.18 660 285.361 659.937 291.708 659.874 297.889 659.81 304.069 659.621 310.25 659.431 316.43 659.178 322.778 658.799 328.958 658.293 335.139 657.661 341.319 656.776 347.667 655.701 353.847 654.31 360.028 652.603 366.208 650.58 372.389 648.178 378.736 645.333 384.917 642.172 391.097 638.632 397.278 634.839 403.458 630.793 409.806 626.684 415.986 622.511 422.167 618.466 428.347 614.736 434.528 611.448 440.875 608.73 447.056 606.707 453.236 605.443 459.416 605 465.597 605.443 471.944 606.707 478.125 608.73 484.305 611.448 490.486 614.736 496.833 618.466 503.014 622.511 509.194 626.684 515.375 630.793 521.555 634.839 527.903 638.632 534.083 642.172 540.264 645.333 546.444 648.178 552.625 650.58 558.972 652.603 565.153 654.31 571.333 655.701 577.514 656.776 583.694 657.661 590.042 658.293 596.222 658.799 602.403 659.178 608.583 659.431 614.764 659.621 621.111 659.81 627.292 659.874 633.472 659.937 639.652 660 646 660" stroke="#EF5181" stroke-width="1.66667" stroke-linecap="round" stroke-miterlimit="8" stroke-dasharray="3.33333 3.33333" fill="none" fill-rule="evenodd"/><path d="M273 660 279.18 659.937 285.361 659.81 291.708 659.683 297.889 659.556 304.069 659.302 310.25 658.921 316.43 658.414 322.778 657.716 328.958 656.764 335.139 655.495 341.319 653.845 347.667 651.751 353.847 649.149 360.028 645.977 366.208 642.106 372.389 637.538 378.736 632.271 384.917 626.306 391.097 619.644 397.278 612.41 403.458 604.796 409.806 596.927 415.986 589.059 422.167 581.508 428.347 574.465 434.528 568.247 440.875 563.043 447.056 559.173 453.236 556.825 459.416 556 465.597 556.825 471.944 559.173 478.125 563.043 484.305 568.247 490.486 574.465 496.833 581.508 503.014 589.059 509.194 596.927 515.375 604.796 521.555 612.41 527.903 619.644 534.083 626.306 540.264 632.271 546.444 637.538 552.625 642.106 558.972 645.977 565.153 649.149 571.333 651.751 577.514 653.845 583.694 655.495 590.042 656.764 596.222 657.716 602.403 658.414 608.583 658.921 614.764 659.302 621.111 659.556 627.292 659.683 633.472 659.81 639.652 659.937 646 660" stroke="#EF5181" stroke-width="1.66667" stroke-linecap="round" stroke-miterlimit="8" stroke-dasharray="3.33333 3.33333" fill="none" fill-rule="evenodd"/><path d="M273 660 279.18 659.936 285.361 659.873 291.708 659.746 297.889 659.618 304.069 659.364 310.25 659.046 316.43 658.601 322.778 658.028 328.958 657.201 335.139 656.12 341.319 654.721 347.667 652.876 353.847 650.65 360.028 647.852 366.208 644.544 372.389 640.601 378.736 636.021 384.917 630.806 391.097 625.081 397.278 618.848 403.458 612.233 409.806 605.428 415.986 598.622 422.167 592.071 428.347 585.965 434.528 580.622 440.875 576.106 447.056 572.799 453.236 570.7 459.416 570 465.597 570.7 471.944 572.799 478.125 576.106 484.305 580.622 490.486 585.965 496.833 592.071 503.014 598.622 509.194 605.428 515.375 612.233 521.555 618.848 527.903 625.081 534.083 630.806 540.264 636.021 546.444 640.601 552.625 644.544 558.972 647.852 565.153 650.65 571.333 652.876 577.514 654.721 583.694 656.12 590.042 657.201 596.222 658.028 602.403 658.601 608.583 659.046 614.764 659.364 621.111 659.618 627.292 659.746 633.472 659.873 639.652 659.936 646 660" stroke="#EF5181" stroke-width="1.66667" stroke-linecap="round" stroke-miterlimit="8" stroke-dasharray="3.33333 3.33333" fill="none" fill-rule="evenodd"/><path d="M273 660 279.18 659.936 285.361 659.873 291.708 659.745 297.889 659.618 304.069 659.427 310.25 659.108 316.43 658.662 322.778 658.089 328.958 657.324 335.139 656.305 341.319 654.967 347.667 653.247 353.847 651.081 360.028 648.406 366.208 645.221 372.389 641.462 378.736 637.067 384.917 632.098 391.097 626.619 397.278 620.631 403.458 614.324 409.806 607.827 415.986 601.393 422.167 595.086 428.347 589.225 434.528 584.065 440.875 579.797 447.056 576.612 453.236 574.637 459.416 574 465.597 574.637 471.944 576.612 478.125 579.797 484.305 584.065 490.486 589.225 496.833 595.086 503.014 601.393 509.194 607.827 515.375 614.324 521.555 620.631 527.903 626.619 534.083 632.098 540.264 637.067 546.444 641.462 552.625 645.221 558.972 648.406 565.153 651.081 571.333 653.247 577.514 654.967 583.694 656.305 590.042 657.324 596.222 658.089 602.403 658.662 608.583 659.108 614.764 659.427 621.111 659.618 627.292 659.745 633.472 659.873 639.652 659.936 646 660" stroke="#EF5181" stroke-width="1.66667" stroke-linecap="round" stroke-miterlimit="8" stroke-dasharray="3.33333 3.33333" fill="none" fill-rule="evenodd"/><path d="M273 660 279.18 659.937 285.361 659.873 291.708 659.81 297.889 659.683 304.069 659.494 310.25 659.177 316.43 658.797 322.778 658.291 328.958 657.531 335.139 656.582 341.319 655.379 347.667 653.796 353.847 651.771 360.028 649.365 366.208 646.453 372.389 642.972 378.736 638.984 384.917 634.426 391.097 629.362 397.278 623.855 403.458 618.095 409.806 612.144 415.986 606.131 422.167 600.433 428.347 595.053 434.528 590.305 440.875 586.381 447.056 583.469 453.236 581.633 459.416 581 465.597 581.633 471.944 583.469 478.125 586.381 484.305 590.305 490.486 595.053 496.833 600.433 503.014 606.131 509.194 612.144 515.375 618.095 521.555 623.855 527.903 629.362 534.083 634.426 540.264 638.984 546.444 642.972 552.625 646.453 558.972 649.365 565.153 651.771 571.333 653.796 577.514 655.379 583.694 656.582 590.042 657.531 596.222 658.291 602.403 658.797 608.583 659.177 614.764 659.494 621.111 659.683 627.292 659.81 633.472 659.873 639.652 659.937 646 660" stroke="#EF5181" stroke-width="1.66667" stroke-linecap="round" stroke-miterlimit="8" stroke-dasharray="3.33333 3.33333" fill="none" fill-rule="evenodd"/><path d="M273 660 279.18 659.937 285.361 659.873 291.708 659.747 297.889 659.494 304.069 659.24 310.25 658.797 316.43 658.228 322.778 657.405 328.958 656.329 335.139 654.873 341.319 652.975 347.667 650.57 353.847 647.595 360.028 643.861 366.208 639.43 372.389 634.177 378.736 628.038 384.917 621.139 391.097 613.481 397.278 605.127 403.458 596.329 409.806 587.279 415.986 578.228 422.167 569.494 428.347 561.329 434.528 554.114 440.875 548.165 447.056 543.734 453.236 540.949 459.416 540 465.597 540.949 471.944 543.734 478.125 548.165 484.305 554.114 490.486 561.329 496.833 569.494 503.014 578.228 509.194 587.279 515.375 596.329 521.555 605.127 527.903 613.481 534.083 621.139 540.264 628.038 546.444 634.177 552.625 639.43 558.972 643.861 565.153 647.595 571.333 650.57 577.514 652.975 583.694 654.873 590.042 656.329 596.222 657.405 602.403 658.228 608.583 658.797 614.764 659.24 621.111 659.494 627.292 659.747 633.472 659.873 639.652 659.937 646 660" stroke="#EF5181" stroke-width="1.66667" stroke-linecap="round" stroke-miterlimit="8" stroke-dasharray="3.33333 3.33333" fill="none" fill-rule="evenodd"/><path d="M273 660 279.18 659.936 285.361 659.873 291.708 659.809 297.889 659.618 304.069 659.426 310.25 659.108 316.43 658.725 322.778 658.152 328.958 657.387 335.139 656.367 341.319 655.029 347.667 653.372 353.847 651.269 360.028 648.656 366.208 645.596 372.389 641.9 378.736 637.63 384.917 632.786 391.097 627.369 397.278 621.569 403.458 615.451 409.806 609.077 415.986 602.768 422.167 596.586 428.347 590.914 434.528 585.879 440.875 581.736 447.056 578.549 453.236 576.637 459.416 576 465.597 576.637 471.944 578.549 478.125 581.736 484.305 585.879 490.486 590.914 496.833 596.586 503.014 602.768 509.194 609.077 515.375 615.451 521.555 621.569 527.903 627.369 534.083 632.786 540.264 637.63 546.444 641.9 552.625 645.596 558.972 648.656 565.153 651.269 571.333 653.372 577.514 655.029 583.694 656.367 590.042 657.387 596.222 658.152 602.403 658.725 608.583 659.108 614.764 659.426 621.111 659.618 627.292 659.809 633.472 659.873 639.652 659.936 646 660" stroke="#EF5181" stroke-width="2" stroke-miterlimit="8" fill="none" fill-rule="evenodd"/><path d="M273 660 279.18 660 285.361 659.933 291.708 659.866 297.889 659.731 304.069 659.53 310.25 659.329 316.43 658.993 322.778 658.523 328.958 657.919 335.139 657.113 341.319 656.106 347.667 654.764 353.847 653.085 360.028 651.004 366.208 648.52 372.389 645.566 378.736 642.142 384.917 638.316 391.097 634.019 397.278 629.387 403.458 624.419 409.806 619.384 415.986 614.349 422.167 609.448 428.347 604.883 434.528 600.855 440.875 597.565 447.056 595.081 453.236 593.537 459.416 593 465.597 593.537 471.944 595.081 478.125 597.565 484.305 600.855 490.486 604.883 496.833 609.448 503.014 614.349 509.194 619.384 515.375 624.419 521.555 629.387 527.903 634.019 534.083 638.316 540.264 642.142 546.444 645.566 552.625 648.52 558.972 651.004 565.153 653.085 571.333 654.764 577.514 656.106 583.694 657.113 590.042 657.919 596.222 658.523 602.403 658.993 608.583 659.329 614.764 659.53 621.111 659.731 627.292 659.866 633.472 659.933 639.652 660 646 660" stroke="#EF5181" stroke-width="1.66667" stroke-linecap="round" stroke-miterlimit="8" stroke-dasharray="3.33333 3.33333" fill="none" fill-rule="evenodd"/><path d="M271.6 659 648.622 659 648.622 661 271.6 661ZM279.215 664.256 269 660 279.215 655.744C279.725 655.531 280.311 655.772 280.523 656.282 280.736 656.792 280.494 657.377 279.985 657.59L271.985 660.923 271.985 659.077 279.985 662.41C280.494 662.623 280.736 663.208 280.523 663.718 280.311 664.228 279.725 664.469 279.215 664.256ZM641.007 655.744 651.222 660 641.007 664.257C640.497 664.469 639.912 664.228 639.699 663.718 639.487 663.208 639.728 662.623 640.238 662.41L648.238 659.077 648.238 660.923 640.238 657.59C639.728 657.377 639.487 656.792 639.699 656.282 639.912 655.772 640.497 655.531 641.007 655.744Z" fill="#EF5181"/><path d="M2.31271 1.55291 35.7683 49.1862 34.1316 50.3357 0.676058 2.70242ZM2.38824 10.8059 3.07579e-07 0 9.35449 5.91309C9.82133 6.20819 9.96055 6.82586 9.66546 7.2927 9.37036 7.75953 8.75269 7.89876 8.28586 7.60366L0.960053 2.97293 2.4708 1.91184 4.34111 10.3743C4.4603 10.9136 4.11975 11.4473 3.58048 11.5665 3.04121 11.6857 2.50743 11.3452 2.38824 10.8059ZM34.0562 41.0828 36.4444 51.8887 27.0899 45.9756C26.6231 45.6805 26.4839 45.0628 26.779 44.596 27.0741 44.1292 27.6917 43.9899 28.1586 44.285L35.4844 48.9158 33.9736 49.9769 32.1033 41.5144C31.9841 40.9751 32.3247 40.4414 32.8639 40.3222 33.4032 40.203 33.937 40.5435 34.0562 41.0828Z" fill="#EF5181" transform="matrix(1 0 0 -1 488 631.889)"/></g></svg>