<svg width="402" height="178" xmlns="http://www.w3.org/2000/svg" xmlns:xlink="http://www.w3.org/1999/xlink" overflow="hidden"><defs><clipPath id="clip0"><rect x="259" y="496" width="402" height="178"/></clipPath></defs><g clip-path="url(#clip0)" transform="translate(-259 -496)"><path d="M273.5 660.5 279.681 660.5 285.861 660.437 292.209 660.374 298.389 660.31 304.569 660.121 310.75 659.931 316.93 659.678 323.278 659.299 329.458 658.793 335.639 658.161 341.819 657.276 348.167 656.201 354.347 654.81 360.528 653.104 366.708 651.081 372.889 648.678 379.236 645.833 385.417 642.672 391.597 639.132 397.778 635.339 403.958 631.293 410.306 627.184 416.486 623.012 422.667 618.966 428.847 615.236 435.028 611.948 441.375 609.23 447.556 607.207 453.736 605.943 459.917 605.5 466.097 605.943 472.445 607.207 478.625 609.23 484.805 611.948 490.986 615.236 497.333 618.966 503.514 623.012 509.694 627.184 515.875 631.293 522.055 635.339 528.403 639.132 534.583 642.672 540.764 645.833 546.944 648.678 553.125 651.081 559.472 653.104 565.653 654.81 571.833 656.201 578.014 657.276 584.194 658.161 590.542 658.793 596.722 659.299 602.903 659.678 609.083 659.931 615.264 660.121 621.611 660.31 627.792 660.374 633.972 660.437 640.153 660.5 646.5 660.5" stroke="#EF5181" stroke-width="1.33333" stroke-miterlimit="8" fill="none" fill-rule="evenodd"/><path d="M273.5 660.5 279.681 660.437 285.861 660.31 292.209 660.183 298.389 660.056 304.569 659.802 310.75 659.421 316.93 658.914 323.278 658.216 329.458 657.264 335.639 655.995 341.819 654.345 348.167 652.251 354.347 649.65 360.528 646.477 366.708 642.606 372.889 638.038 379.236 632.771 385.417 626.806 391.597 620.144 397.778 612.91 403.958 605.296 410.306 597.427 416.486 589.559 422.667 582.008 428.847 574.965 435.028 568.747 441.375 563.543 447.556 559.673 453.736 557.325 459.917 556.5 466.097 557.325 472.445 559.673 478.625 563.543 484.805 568.747 490.986 574.965 497.333 582.008 503.514 589.559 509.694 597.427 515.875 605.296 522.055 612.91 528.403 620.144 534.583 626.806 540.764 632.771 546.944 638.038 553.125 642.606 559.472 646.477 565.653 649.65 571.833 652.251 578.014 654.345 584.194 655.995 590.542 657.264 596.722 658.216 602.903 658.914 609.083 659.421 615.264 659.802 621.611 660.056 627.792 660.183 633.972 660.31 640.153 660.437 646.5 660.5" stroke="#EF5181" stroke-width="1.33333" stroke-miterlimit="8" fill="none" fill-rule="evenodd"/><path d="M273.5 660.5 279.681 660.436 285.861 660.373 292.209 660.246 298.389 660.118 304.569 659.864 310.75 659.546 316.93 659.101 323.278 658.528 329.458 657.701 335.639 656.62 341.819 655.221 348.167 653.376 354.347 651.15 360.528 648.352 366.708 645.044 372.889 641.101 379.236 636.521 385.417 631.306 391.597 625.581 397.778 619.348 403.958 612.733 410.306 605.928 416.486 599.122 422.667 592.571 428.847 586.465 435.028 581.122 441.375 576.606 447.556 573.299 453.736 571.2 459.917 570.5 466.097 571.2 472.445 573.299 478.625 576.606 484.805 581.122 490.986 586.465 497.333 592.571 503.514 599.122 509.694 605.928 515.875 612.733 522.055 619.348 528.403 625.581 534.583 631.306 540.764 636.521 546.944 641.101 553.125 645.044 559.472 648.352 565.653 651.15 571.833 653.376 578.014 655.221 584.194 656.62 590.542 657.701 596.722 658.528 602.903 659.101 609.083 659.546 615.264 659.864 621.611 660.118 627.792 660.246 633.972 660.373 640.153 660.436 646.5 660.5" stroke="#EF5181" stroke-width="1.33333" stroke-miterlimit="8" fill="none" fill-rule="evenodd"/><path d="M273.5 660.5 279.681 660.436 285.861 660.373 292.209 660.245 298.389 660.118 304.569 659.927 310.75 659.608 316.93 659.162 323.278 658.589 329.458 657.825 335.639 656.805 341.819 655.467 348.167 653.747 354.347 651.582 360.528 648.906 366.708 645.721 372.889 641.962 379.236 637.567 385.417 632.598 391.597 627.119 397.778 621.131 403.958 614.825 410.306 608.327 416.486 601.893 422.667 595.586 428.847 589.725 435.028 584.565 441.375 580.297 447.556 577.112 453.736 575.137 459.917 574.5 466.097 575.137 472.445 577.112 478.625 580.297 484.805 584.565 490.986 589.725 497.333 595.586 503.514 601.893 509.694 608.327 515.875 614.825 522.055 621.131 528.403 627.119 534.583 632.598 540.764 637.567 546.944 641.962 553.125 645.721 559.472 648.906 565.653 651.582 571.833 653.747 578.014 655.467 584.194 656.805 590.542 657.825 596.722 658.589 602.903 659.162 609.083 659.608 615.264 659.927 621.611 660.118 627.792 660.245 633.972 660.373 640.153 660.436 646.5 660.5" stroke="#EF5181" stroke-width="1.33333" stroke-miterlimit="8" fill="none" fill-rule="evenodd"/><path d="M273.5 660.5 279.681 660.437 285.861 660.373 292.209 660.31 298.389 660.184 304.569 659.994 310.75 659.677 316.93 659.297 323.278 658.791 329.458 658.031 335.639 657.082 341.819 655.879 348.167 654.297 354.347 652.271 360.528 649.865 366.708 646.954 372.889 643.472 379.236 639.484 385.417 634.926 391.597 629.862 397.778 624.355 403.958 618.595 410.306 612.644 416.486 606.631 422.667 600.934 428.847 595.553 435.028 590.805 441.375 586.881 447.556 583.969 453.736 582.133 459.917 581.5 466.097 582.133 472.445 583.969 478.625 586.881 484.805 590.805 490.986 595.553 497.333 600.934 503.514 606.631 509.694 612.644 515.875 618.595 522.055 624.355 528.403 629.862 534.583 634.926 540.764 639.484 546.944 643.472 553.125 646.954 559.472 649.865 565.653 652.271 571.833 654.297 578.014 655.879 584.194 657.082 590.542 658.031 596.722 658.791 602.903 659.297 609.083 659.677 615.264 659.994 621.611 660.184 627.792 660.31 633.972 660.373 640.153 660.437 646.5 660.5" stroke="#EF5181" stroke-width="1.33333" stroke-miterlimit="8" fill="none" fill-rule="evenodd"/><path d="M273.5 660.5 279.681 660.437 285.861 660.373 292.209 660.247 298.389 659.994 304.569 659.741 310.75 659.298 316.93 658.728 323.278 657.905 329.458 656.829 335.639 655.373 341.819 653.475 348.167 651.07 354.347 648.095 360.528 644.361 366.708 639.93 372.889 634.677 379.236 628.538 385.417 621.639 391.597 613.981 397.778 605.627 403.958 596.829 410.306 587.779 416.486 578.728 422.667 569.994 428.847 561.829 435.028 554.614 441.375 548.665 447.556 544.234 453.736 541.449 459.917 540.5 466.097 541.449 472.445 544.234 478.625 548.665 484.805 554.614 490.986 561.829 497.333 569.994 503.514 578.728 509.694 587.779 515.875 596.829 522.055 605.627 528.403 613.981 534.583 621.639 540.764 628.538 546.944 634.677 553.125 639.93 559.472 644.361 565.653 648.095 571.833 651.07 578.014 653.475 584.194 655.373 590.542 656.829 596.722 657.905 602.903 658.728 609.083 659.298 615.264 659.741 621.611 659.994 627.792 660.247 633.972 660.373 640.153 660.437 646.5 660.5" stroke="#EF5181" stroke-width="1.33333" stroke-miterlimit="8" fill="none" fill-rule="evenodd"/><path d="M273.5 660.5 279.681 660.436 285.861 660.373 292.209 660.309 298.389 660.118 304.569 659.926 310.75 659.608 316.93 659.225 323.278 658.652 329.458 657.887 335.639 656.867 341.819 655.529 348.167 653.872 354.347 651.769 360.528 649.156 366.708 646.096 372.889 642.4 379.236 638.13 385.417 633.286 391.597 627.869 397.778 622.069 403.958 615.951 410.306 609.577 416.486 603.268 422.667 597.086 428.847 591.414 435.028 586.379 441.375 582.236 447.556 579.049 453.736 577.137 459.917 576.5 466.097 577.137 472.445 579.049 478.625 582.236 484.805 586.379 490.986 591.414 497.333 597.086 503.514 603.268 509.694 609.577 515.875 615.951 522.055 622.069 528.403 627.869 534.583 633.286 540.764 638.13 546.944 642.4 553.125 646.096 559.472 649.156 565.653 651.769 571.833 653.872 578.014 655.529 584.194 656.867 590.542 657.887 596.722 658.652 602.903 659.225 609.083 659.608 615.264 659.926 621.611 660.118 627.792 660.309 633.972 660.373 640.153 660.436 646.5 660.5" stroke="#EF5181" stroke-width="1.33333" stroke-miterlimit="8" fill="none" fill-rule="evenodd"/><path d="M273.5 660.5 279.681 660.5 285.861 660.433 292.209 660.366 298.389 660.232 304.569 660.03 310.75 659.829 316.93 659.493 323.278 659.023 329.458 658.419 335.639 657.613 341.819 656.606 348.167 655.264 354.347 653.585 360.528 651.504 366.708 649.02 372.889 646.066 379.236 642.642 385.417 638.816 391.597 634.519 397.778 629.887 403.958 624.919 410.306 619.884 416.486 614.849 422.667 609.948 428.847 605.383 435.028 601.355 441.375 598.065 447.556 595.581 453.736 594.037 459.917 593.5 466.097 594.037 472.445 595.581 478.625 598.065 484.805 601.355 490.986 605.383 497.333 609.948 503.514 614.849 509.694 619.884 515.875 624.919 522.055 629.887 528.403 634.519 534.583 638.816 540.764 642.642 546.944 646.066 553.125 649.02 559.472 651.504 565.653 653.585 571.833 655.264 578.014 656.606 584.194 657.613 590.542 658.419 596.722 659.023 602.903 659.493 609.083 659.829 615.264 660.03 621.611 660.232 627.792 660.366 633.972 660.433 640.153 660.5 646.5 660.5" stroke="#EF5181" stroke-width="1.33333" stroke-miterlimit="8" fill="none" fill-rule="evenodd"/><text font-family="Open Sans,Open Sans_MSFontService,sans-serif" font-weight="300" font-size="24" transform="translate(374.917 527)">SHOT<tspan font-size="24" x="61.1667" y="0">-</tspan><tspan font-size="24" x="68.8333" y="0">TO</tspan><tspan font-size="24" x="99.6667" y="0">-</tspan><tspan font-size="24" x="107.333" y="0">SHOT</tspan></text><path d="M271.234 659.833 649.989 659.833 649.989 661.167 271.234 661.167ZM278.977 664.449 269.5 660.5 278.977 656.551C279.317 656.41 279.707 656.57 279.849 656.91 279.99 657.25 279.83 657.641 279.49 657.782L271.49 661.115 271.49 659.885 279.49 663.218C279.83 663.36 279.99 663.75 279.849 664.09 279.707 664.43 279.317 664.59 278.977 664.449ZM642.246 656.551 651.723 660.5 642.246 664.449C641.906 664.591 641.515 664.43 641.374 664.09 641.232 663.75 641.393 663.36 641.733 663.218L649.733 659.885 649.733 661.116 641.733 657.782C641.393 657.641 641.232 657.25 641.374 656.91 641.515 656.571 641.906 656.41 642.246 656.551Z" fill="#EF5181"/></g></svg>