<svg width="407" height="146" xmlns="http://www.w3.org/2000/svg" xmlns:xlink="http://www.w3.org/1999/xlink" overflow="hidden"><defs><clipPath id="clip0"><rect x="-1278" y="528" width="407" height="146"/></clipPath></defs><g clip-path="url(#clip0)" transform="translate(1278 -528)"><path d="M-1075.08 540-1068.92 540.949-1062.59 543.734-1056.43 548.165-1050.26 554.114-1044.1 561.329-1037.77 569.494-1031.6 578.228-1025.44 587.279-1019.27 596.329-1013.11 605.127-1006.78 613.481-1000.62 621.139-994.453 628.038-988.289 634.177-982.125 639.43-975.794 643.861-969.63 647.595-963.467 650.57-957.303 652.975-951.139 654.873-944.808 656.329-938.644 657.405-932.48 658.228-926.317 658.798-920.153 659.241-913.822 659.494-907.658 659.747-901.494 659.873-895.331 659.937-889 660-901.489 660-901.494 660-907.658 659.937-913.822 659.873-920.153 659.684-926.317 659.494-932.48 659.24-938.644 658.861-944.808 658.354-951.139 657.722-957.303 656.835-963.467 655.76-969.63 654.367-975.794 652.658-982.125 650.633-988.289 648.228-994.453 645.38-1000.62 642.215-1006.78 638.671-1013.11 634.873-1019.27 630.823-1025.44 626.709-1031.6 622.532-1037.77 618.481-1044.1 614.747-1050.26 611.456-1056.43 608.734-1062.59 606.709-1068.92 605.443-1075.08 605-1081.25 605.443-1087.41 606.709-1093.57 608.734-1099.91 611.456-1106.07 614.747-1112.23 618.481-1118.4 622.532-1124.56 626.709-1130.89 630.823-1137.06 634.873-1143.22 638.671-1149.38 642.215-1155.55 645.38-1161.88 648.228-1168.04 650.633-1174.21 652.658-1180.37 654.367-1186.53 655.76-1192.86 656.835-1199.03 657.722-1205.19 658.354-1211.36 658.861-1217.69 659.24-1223.85 659.494-1230.01 659.684-1236.18 659.873-1242.34 659.937-1248.67 660-1248.68 660-1261 660-1254.84 659.937-1248.67 659.873-1242.34 659.747-1236.18 659.494-1230.01 659.241-1223.85 658.798-1217.69 658.228-1211.36 657.405-1205.19 656.329-1199.03 654.873-1192.86 652.975-1186.53 650.57-1180.37 647.595-1174.21 643.861-1168.04 639.43-1161.88 634.177-1155.55 628.038-1149.38 621.139-1143.22 613.481-1137.06 605.127-1130.89 596.329-1124.56 587.279-1118.4 578.228-1112.23 569.494-1106.07 561.329-1099.91 554.114-1093.57 548.165-1087.41 543.734-1081.25 540.949Z" fill="#82E8FF" fill-rule="evenodd"/><path d="M-1261 660-1254.84 659.937-1248.67 659.873-1242.34 659.747-1236.18 659.494-1230.01 659.24-1223.85 658.797-1217.69 658.228-1211.36 657.405-1205.19 656.329-1199.03 654.873-1192.86 652.975-1186.53 650.57-1180.37 647.595-1174.21 643.861-1168.04 639.43-1161.88 634.177-1155.55 628.038-1149.38 621.139-1143.22 613.481-1137.06 605.127-1130.89 596.329-1124.56 587.279-1118.4 578.228-1112.23 569.494-1106.07 561.329-1099.91 554.114-1093.57 548.165-1087.41 543.734-1081.25 540.949-1075.08 540-1068.92 540.949-1062.59 543.734-1056.43 548.165-1050.26 554.114-1044.1 561.329-1037.77 569.494-1031.6 578.228-1025.44 587.279-1019.27 596.329-1013.11 605.127-1006.78 613.481-1000.62 621.139-994.453 628.038-988.289 634.177-982.125 639.43-975.794 643.861-969.631 647.595-963.467 650.57-957.303 652.975-951.139 654.873-944.808 656.329-938.644 657.405-932.481 658.228-926.317 658.797-920.153 659.24-913.822 659.494-907.658 659.747-901.494 659.873-895.331 659.937-889 660" stroke="#000000" stroke-width="1.66667" stroke-linecap="round" stroke-miterlimit="8" stroke-dasharray="3.33333 3.33333" fill="none" fill-rule="evenodd"/><path d="M-1261 660-1254.84 660-1248.67 659.937-1242.34 659.874-1236.18 659.81-1230.01 659.621-1223.85 659.431-1217.69 659.178-1211.36 658.799-1205.19 658.293-1199.03 657.661-1192.86 656.776-1186.53 655.701-1180.37 654.31-1174.21 652.603-1168.04 650.58-1161.88 648.178-1155.55 645.333-1149.38 642.172-1143.22 638.632-1137.06 634.839-1130.89 630.793-1124.56 626.684-1118.4 622.511-1112.23 618.466-1106.07 614.736-1099.91 611.448-1093.57 608.73-1087.41 606.707-1081.25 605.443-1075.08 605-1068.92 605.443-1062.59 606.707-1056.43 608.73-1050.26 611.448-1044.1 614.736-1037.77 618.466-1031.6 622.511-1025.44 626.684-1019.27 630.793-1013.11 634.839-1006.78 638.632-1000.62 642.172-994.453 645.333-988.289 648.178-982.125 650.58-975.794 652.603-969.631 654.31-963.467 655.701-957.303 656.776-951.139 657.661-944.808 658.293-938.644 658.799-932.481 659.178-926.317 659.431-920.153 659.621-913.822 659.81-907.658 659.874-901.494 659.937-895.331 660-889 660" stroke="#000000" stroke-width="1.66667" stroke-linecap="round" stroke-miterlimit="8" stroke-dasharray="3.33333 3.33333" fill="none" fill-rule="evenodd"/><path d="M-1261 660-1254.84 659.937-1248.67 659.81-1242.34 659.683-1236.18 659.556-1230.01 659.302-1223.85 658.921-1217.69 658.414-1211.36 657.716-1205.19 656.764-1199.03 655.495-1192.86 653.845-1186.53 651.751-1180.37 649.149-1174.21 645.977-1168.04 642.106-1161.88 637.538-1155.55 632.271-1149.38 626.306-1143.22 619.644-1137.06 612.41-1130.89 604.796-1124.56 596.927-1118.4 589.059-1112.23 581.508-1106.07 574.465-1099.91 568.247-1093.57 563.043-1087.41 559.173-1081.25 556.825-1075.08 556-1068.92 556.825-1062.59 559.173-1056.43 563.043-1050.26 568.247-1044.1 574.465-1037.77 581.508-1031.6 589.059-1025.44 596.927-1019.27 604.796-1013.11 612.41-1006.78 619.644-1000.62 626.306-994.453 632.271-988.289 637.538-982.125 642.106-975.794 645.977-969.631 649.149-963.467 651.751-957.303 653.845-951.139 655.495-944.808 656.764-938.644 657.716-932.481 658.414-926.317 658.921-920.153 659.302-913.822 659.556-907.658 659.683-901.494 659.81-895.331 659.937-889 660" stroke="#000000" stroke-width="1.66667" stroke-linecap="round" stroke-miterlimit="8" stroke-dasharray="3.33333 3.33333" fill="none" fill-rule="evenodd"/><path d="M-1261 660-1254.84 659.936-1248.67 659.873-1242.34 659.746-1236.18 659.618-1230.01 659.364-1223.85 659.046-1217.69 658.601-1211.36 658.028-1205.19 657.201-1199.03 656.12-1192.86 654.721-1186.53 652.876-1180.37 650.65-1174.21 647.852-1168.04 644.544-1161.88 640.601-1155.55 636.021-1149.38 630.806-1143.22 625.081-1137.06 618.848-1130.89 612.233-1124.56 605.428-1118.4 598.622-1112.23 592.071-1106.07 585.965-1099.91 580.622-1093.57 576.106-1087.41 572.799-1081.25 570.7-1075.08 570-1068.92 570.7-1062.59 572.799-1056.43 576.106-1050.26 580.622-1044.1 585.965-1037.77 592.071-1031.6 598.622-1025.44 605.428-1019.27 612.233-1013.11 618.848-1006.78 625.081-1000.62 630.806-994.453 636.021-988.289 640.601-982.125 644.544-975.794 647.852-969.631 650.65-963.467 652.876-957.303 654.721-951.139 656.12-944.808 657.201-938.644 658.028-932.481 658.601-926.317 659.046-920.153 659.364-913.822 659.618-907.658 659.746-901.494 659.873-895.331 659.936-889 660" stroke="#000000" stroke-width="1.66667" stroke-linecap="round" stroke-miterlimit="8" stroke-dasharray="3.33333 3.33333" fill="none" fill-rule="evenodd"/><path d="M-1261 660-1254.84 659.936-1248.67 659.873-1242.34 659.745-1236.18 659.618-1230.01 659.427-1223.85 659.108-1217.69 658.662-1211.36 658.089-1205.19 657.324-1199.03 656.305-1192.86 654.967-1186.53 653.247-1180.37 651.081-1174.21 648.406-1168.04 645.221-1161.88 641.462-1155.55 637.067-1149.38 632.098-1143.22 626.619-1137.06 620.631-1130.89 614.324-1124.56 607.827-1118.4 601.393-1112.23 595.086-1106.07 589.225-1099.91 584.065-1093.57 579.797-1087.41 576.612-1081.25 574.637-1075.08 574-1068.92 574.637-1062.59 576.612-1056.43 579.797-1050.26 584.065-1044.1 589.225-1037.77 595.086-1031.6 601.393-1025.44 607.827-1019.27 614.324-1013.11 620.631-1006.78 626.619-1000.62 632.098-994.453 637.067-988.289 641.462-982.125 645.221-975.794 648.406-969.631 651.081-963.467 653.247-957.303 654.967-951.139 656.305-944.808 657.324-938.644 658.089-932.481 658.662-926.317 659.108-920.153 659.427-913.822 659.618-907.658 659.745-901.494 659.873-895.331 659.936-889 660" stroke="#000000" stroke-width="1.66667" stroke-linecap="round" stroke-miterlimit="8" stroke-dasharray="3.33333 3.33333" fill="none" fill-rule="evenodd"/><path d="M-1261 660-1254.84 659.937-1248.67 659.873-1242.34 659.81-1236.18 659.683-1230.01 659.494-1223.85 659.177-1217.69 658.797-1211.36 658.291-1205.19 657.531-1199.03 656.582-1192.86 655.379-1186.53 653.796-1180.37 651.771-1174.21 649.365-1168.04 646.453-1161.88 642.972-1155.55 638.984-1149.38 634.426-1143.22 629.362-1137.06 623.855-1130.89 618.095-1124.56 612.144-1118.4 606.131-1112.23 600.433-1106.07 595.053-1099.91 590.305-1093.57 586.381-1087.41 583.469-1081.25 581.633-1075.08 581-1068.92 581.633-1062.59 583.469-1056.43 586.381-1050.26 590.305-1044.1 595.053-1037.77 600.433-1031.6 606.131-1025.44 612.144-1019.27 618.095-1013.11 623.855-1006.78 629.362-1000.62 634.426-994.453 638.984-988.289 642.972-982.125 646.453-975.794 649.365-969.631 651.771-963.467 653.796-957.303 655.379-951.139 656.582-944.808 657.531-938.644 658.291-932.481 658.797-926.317 659.177-920.153 659.494-913.822 659.683-907.658 659.81-901.494 659.873-895.331 659.937-889 660" stroke="#000000" stroke-width="1.66667" stroke-linecap="round" stroke-miterlimit="8" stroke-dasharray="3.33333 3.33333" fill="none" fill-rule="evenodd"/><path d="M-1261 660-1254.84 659.936-1248.67 659.873-1242.34 659.809-1236.18 659.618-1230.01 659.426-1223.85 659.108-1217.69 658.725-1211.36 658.152-1205.19 657.387-1199.03 656.367-1192.86 655.029-1186.53 653.372-1180.37 651.269-1174.21 648.656-1168.04 645.596-1161.88 641.9-1155.55 637.63-1149.38 632.786-1143.22 627.369-1137.06 621.569-1130.89 615.451-1124.56 609.077-1118.4 602.768-1112.23 596.586-1106.07 590.914-1099.91 585.879-1093.57 581.736-1087.41 578.549-1081.25 576.637-1075.08 576-1068.92 576.637-1062.59 578.549-1056.43 581.736-1050.26 585.879-1044.1 590.914-1037.77 596.586-1031.6 602.768-1025.44 609.077-1019.27 615.451-1013.11 621.569-1006.78 627.369-1000.62 632.786-994.453 637.63-988.289 641.9-982.125 645.596-975.794 648.656-969.631 651.269-963.467 653.372-957.303 655.029-951.139 656.367-944.808 657.387-938.644 658.152-932.481 658.725-926.317 659.108-920.153 659.426-913.822 659.618-907.658 659.809-901.494 659.873-895.331 659.936-889 660" stroke="#000000" stroke-width="2" stroke-miterlimit="8" fill="none" fill-rule="evenodd"/><path d="M-1261 660-1254.84 660-1248.67 659.933-1242.34 659.866-1236.18 659.731-1230.01 659.53-1223.85 659.329-1217.69 658.993-1211.36 658.523-1205.19 657.919-1199.03 657.113-1192.86 656.106-1186.53 654.764-1180.37 653.085-1174.21 651.004-1168.04 648.52-1161.88 645.566-1155.55 642.142-1149.38 638.316-1143.22 634.019-1137.06 629.387-1130.89 624.419-1124.56 619.384-1118.4 614.349-1112.23 609.448-1106.07 604.883-1099.91 600.855-1093.57 597.565-1087.41 595.081-1081.25 593.537-1075.08 593-1068.92 593.537-1062.59 595.081-1056.43 597.565-1050.26 600.855-1044.1 604.883-1037.77 609.448-1031.6 614.349-1025.44 619.384-1019.27 624.419-1013.11 629.387-1006.78 634.019-1000.62 638.316-994.453 642.142-988.289 645.566-982.125 648.52-975.794 651.004-969.631 653.085-963.467 654.764-957.303 656.106-951.139 657.113-944.808 657.919-938.644 658.523-932.481 658.993-926.317 659.329-920.153 659.53-913.822 659.731-907.658 659.866-901.494 659.933-895.331 660-889 660" stroke="#000000" stroke-width="1.66667" stroke-linecap="round" stroke-miterlimit="8" stroke-dasharray="3.33333 3.33333" fill="none" fill-rule="evenodd"/><path d="M-1262.4 659-885.378 659-885.378 661-1262.4 661ZM-1254.78 664.256-1265 660-1254.78 655.744C-1254.27 655.531-1253.69 655.772-1253.48 656.282-1253.26 656.792-1253.51 657.377-1254.02 657.59L-1262.02 660.923-1262.02 659.077-1254.02 662.41C-1253.51 662.623-1253.26 663.208-1253.48 663.718-1253.69 664.228-1254.27 664.469-1254.78 664.256ZM-892.993 655.744-882.778 660-892.993 664.257C-893.503 664.469-894.088 664.228-894.301 663.718-894.513 663.208-894.272 662.623-893.762 662.41L-885.762 659.077-885.762 660.923-893.762 657.59C-894.272 657.377-894.513 656.792-894.301 656.282-894.088 655.772-893.503 655.531-892.993 655.744Z"/><path d="M2.31271 1.55291 35.7683 49.1862 34.1316 50.3357 0.676058 2.70242ZM2.38824 10.8059 3.07579e-07 0 9.35449 5.91309C9.82133 6.20819 9.96055 6.82586 9.66546 7.2927 9.37036 7.75953 8.75269 7.89876 8.28586 7.60366L0.960053 2.97293 2.4708 1.91184 4.34111 10.3743C4.4603 10.9136 4.11975 11.4473 3.58048 11.5665 3.04121 11.6857 2.50743 11.3452 2.38824 10.8059ZM34.0562 41.0828 36.4444 51.8887 27.0899 45.9756C26.6231 45.6805 26.4839 45.0628 26.779 44.596 27.0741 44.1292 27.6917 43.9899 28.1586 44.285L35.4844 48.9158 33.9736 49.9769 32.1033 41.5144C31.9841 40.9751 32.3247 40.4414 32.8639 40.3222 33.4032 40.203 33.937 40.5435 34.0562 41.0828Z" transform="matrix(1 0 0 -1 -1047 631.889)"/></g></svg>